<?xml version="1.0" encoding="UTF-8"?>
<!DOCTYPE svg PUBLIC "-//W3C//DTD SVG 1.1//EN" "http://www.w3.org/Graphics/SVG/1.1/DTD/svg11.dtd">
<!-- Creator: CorelDRAW 2021 (64-Bit) -->
<svg xmlns="http://www.w3.org/2000/svg" xml:space="preserve" width="75.58mm" height="20.4549mm" version="1.1" style="shape-rendering:geometricPrecision; text-rendering:geometricPrecision; image-rendering:optimizeQuality; fill-rule:evenodd; clip-rule:evenodd"
viewBox="0 0 2548.73 689.79"
 xmlns:xlink="http://www.w3.org/1999/xlink"
 xmlns:xodm="http://www.corel.com/coreldraw/odm/2003">
 <defs>
  <style type="text/css">
   <![CDATA[
    .fil0 {fill:#f9fafb;fill-rule:nonzero}
    .fil1 {fill:#f9fafb;fill-rule:nonzero}
   ]]>
  </style>
 </defs>
 <g id="Capa_x0020_1">
  <metadata id="CorelCorpID_0Corel-Layer"/>
  <g id="_2380119854544">
   <path class="fil0" d="M1072.36 373.94c-22.86,-73.57 -35.74,-115.18 -38.61,-124.82 -2.88,-9.64 -4.94,-17.26 -6.18,-22.86 -5.13,19.91 -19.84,69.14 -44.1,147.69l88.89 0zm41.99 141.85l-24.73 -81.19 -124.35 0 -24.73 81.19 -77.92 0 120.39 -342.5 88.42 0 120.85 342.5 -77.92 0z"/>
   <path class="fil0" d="M1429.79 174.69l73.02 0 -115.95 341.1 -78.85 0 -115.73 -341.1 73.03 0 64.16 202.98c3.58,11.98 7.27,25.94 11.08,41.88 3.81,15.95 6.18,27.03 7.12,33.25 1.71,-14.3 7.54,-39.35 17.5,-75.12l64.63 -202.98z"/>
   <polygon class="fil0" points="1545.74,174.69 1618.06,174.69 1618.06,515.79 1545.74,515.79 "/>
   <path class="fil0" d="M1905.27 421.07c0,30.8 -11.08,55.06 -33.25,72.79 -22.17,17.73 -53,26.59 -92.51,26.59 -36.39,0 -68.59,-6.84 -96.58,-20.53l0 -67.19c23.01,10.27 42.5,17.5 58.44,21.69 15.94,4.21 30.52,6.3 43.74,6.3 15.86,0 28.03,-3.03 36.51,-9.11 8.48,-6.06 12.72,-15.08 12.72,-27.06 0,-6.69 -1.86,-12.64 -5.6,-17.85 -3.73,-5.22 -9.22,-10.23 -16.45,-15.05 -7.23,-4.82 -21.98,-12.52 -44.21,-23.1 -20.85,-9.8 -36.47,-19.21 -46.89,-28.23 -10.42,-9.02 -18.75,-19.52 -24.96,-31.5 -6.22,-11.97 -9.33,-25.97 -9.33,-41.99 0,-30.17 10.22,-53.89 30.68,-71.16 20.45,-17.27 48.72,-25.9 84.8,-25.9 17.73,0 34.64,2.1 50.74,6.3 16.1,4.2 32.93,10.11 50.51,17.73l-23.33 56.23c-18.19,-7.47 -33.25,-12.68 -45.15,-15.63 -11.89,-2.95 -23.6,-4.43 -35.11,-4.43 -13.69,0 -24.19,3.19 -31.5,9.57 -7.31,6.38 -10.97,14.7 -10.97,24.96 0,6.38 1.48,11.94 4.43,16.68 2.95,4.75 7.65,9.34 14.12,13.77 6.45,4.43 21.73,12.41 45.84,23.92 31.89,15.25 53.74,30.53 65.56,45.84 11.82,15.33 17.73,34.11 17.73,56.35z"/>
   <path class="fil0" d="M2027.75 344.78c0,38.11 7.23,66.8 21.7,86.09 14.46,19.29 36.08,28.93 64.86,28.93 57.7,0 86.55,-38.34 86.55,-115.02 0,-76.84 -28.69,-115.26 -86.09,-115.26 -28.78,0 -50.48,9.69 -65.09,29.05 -14.63,19.36 -21.94,48.1 -21.94,86.21zm248.94 0c0,56.46 -13.99,99.86 -42,130.18 -27.99,30.33 -68.12,45.49 -120.38,45.49 -52.27,0 -92.39,-15.16 -120.39,-45.49 -28,-30.33 -41.99,-73.88 -41.99,-130.65 0,-56.77 14.04,-100.13 42.11,-130.07 28.07,-29.94 68.32,-44.91 120.74,-44.91 52.41,0 92.51,15.08 120.27,45.26 27.76,30.18 41.64,73.57 41.64,130.19z"/>
   <path class="fil0" d="M2548.73 421.07c0,30.8 -11.09,55.06 -33.25,72.79 -22.17,17.73 -53,26.59 -92.51,26.59 -36.39,0 -68.59,-6.84 -96.59,-20.53l0 -67.19c23.01,10.27 42.5,17.5 58.44,21.69 15.94,4.21 30.53,6.3 43.75,6.3 15.86,0 28.03,-3.03 36.51,-9.11 8.48,-6.06 12.72,-15.08 12.72,-27.06 0,-6.69 -1.86,-12.64 -5.6,-17.85 -3.73,-5.22 -9.21,-10.23 -16.45,-15.05 -7.23,-4.82 -21.98,-12.52 -44.21,-23.1 -20.85,-9.8 -36.48,-19.21 -46.9,-28.23 -10.42,-9.02 -18.74,-19.52 -24.96,-31.5 -6.22,-11.97 -9.33,-25.97 -9.33,-41.99 0,-30.17 10.22,-53.89 30.68,-71.16 20.45,-17.27 48.72,-25.9 84.8,-25.9 17.73,0 34.65,2.1 50.75,6.3 16.1,4.2 32.93,10.11 50.51,17.73l-23.33 56.23c-18.2,-7.47 -33.25,-12.68 -45.15,-15.63 -11.9,-2.95 -23.6,-4.43 -35.11,-4.43 -13.69,0 -24.19,3.19 -31.5,9.57 -7.31,6.38 -10.96,14.7 -10.96,24.96 0,6.38 1.47,11.94 4.43,16.68 2.95,4.75 7.65,9.34 14.11,13.77 6.45,4.43 21.73,12.41 45.84,23.92 31.89,15.25 53.74,30.53 65.56,45.84 11.82,15.33 17.73,34.11 17.73,56.35z"/>
  </g>
  <path class="fil1" d="M197.08 194.91l115.87 0 0 37.2 -115.87 0 0 -37.2zm132.28 4.1l162.16 0 0 127.24 -162.16 0 0 -127.24zm-22.31 63.07c0,0.21 -0.18,0.39 -0.39,0.39l-104.25 0c-0.21,0 -0.39,-0.18 -0.39,-0.39l0 -6.18c0,-0.22 0.18,-0.39 0.39,-0.39l104.25 0c0.22,0 0.39,0.17 0.39,0.39l0 6.18zm0 20.63c0,0.22 -0.18,0.39 -0.39,0.39l-104.25 0c-0.21,0 -0.39,-0.18 -0.39,-0.39l0 -6.19c0,-0.22 0.18,-0.39 0.39,-0.39l104.25 0c0.22,0 0.39,0.17 0.39,0.39l0 6.19zm0 19.56c0,0.22 -0.18,0.39 -0.39,0.39l-104.25 0c-0.21,0 -0.39,-0.17 -0.39,-0.39l0 -6.18c0,-0.21 0.18,-0.39 0.39,-0.39l104.25 0c0.22,0 0.39,0.18 0.39,0.39l0 6.18zm0 19.82c0,0.22 -0.18,0.4 -0.39,0.4l-104.25 0c-0.21,0 -0.39,-0.18 -0.39,-0.4l0 -6.18c0,-0.22 0.18,-0.39 0.39,-0.39l104.25 0c0.22,0 0.39,0.18 0.39,0.39l0 6.18zm0 20.88c0,0.22 -0.18,0.39 -0.39,0.39l-104.25 0c-0.21,0 -0.39,-0.18 -0.39,-0.39l0 -6.18c0,-0.22 0.18,-0.39 0.39,-0.39l104.25 0c0.22,0 0.39,0.17 0.39,0.39l0 6.18zm0 19.56c0,0.22 -0.18,0.39 -0.39,0.39l-104.25 0c-0.21,0 -0.39,-0.17 -0.39,-0.39l0 -6.18c0,-0.22 0.18,-0.39 0.39,-0.39l104.25 0c0.22,0 0.39,0.17 0.39,0.39l0 6.18zm-144.81 22.37l347.25 0 0 -208.35 -347.25 0 0 208.35z"/>
  <path class="fil1" d="M561.16 571.62c0,0.22 -0.18,0.39 -0.39,0.39l-32.54 0c-0.21,0 -0.39,-0.17 -0.39,-0.39l0 -6.19c0,-0.22 0.18,-0.38 0.39,-0.38l32.54 0c0.21,0 0.39,0.17 0.39,0.38l0 6.19zm-43.62 0c0,0.22 -0.17,0.39 -0.39,0.39l-194.58 0c-0.22,0 -0.39,-0.17 -0.39,-0.39l0 -6.19c0,-0.22 0.18,-0.38 0.39,-0.38l194.58 0c0.22,0 0.39,0.17 0.39,0.38l0 6.19zm-74.34 16.02c0,0.22 -0.17,0.39 -0.39,0.39l-277 0c-0.22,0 -0.4,-0.17 -0.4,-0.39l0 -6.18c0,-0.21 0.18,-0.39 0.4,-0.39l277 0c0.22,0 0.39,0.18 0.39,0.39l0 6.18zm-289.2 -16.02l0 -6.19c0,-0.22 0.18,-0.38 0.39,-0.38l104.25 0c0.21,0 0.39,0.17 0.39,0.38l0 6.19c0,0.22 -0.18,0.39 -0.39,0.39l-104.25 0c-0.21,0 -0.39,-0.17 -0.39,-0.39zm92.31 -25.49l-21.03 0 0 -130.36 21.03 0 0 130.36zm208.49 0l-21.03 0 0 -130.36 21.03 0 0 130.36zm-313.92 -385.61l384.65 0 0 245.75 -384.65 0 0 -245.75zm-5.69 69.26l-6.18 0c-0.22,0 -0.39,-0.18 -0.39,-0.39l0 -88.68 0 -6.18c0,-0.21 0.17,-0.39 0.39,-0.39l6.18 0 25.72 0c0.21,0 0.39,0.18 0.39,0.39l0 6.18c0,0.22 -0.18,0.39 -0.39,0.39l-25.33 0 0 88.29c0,0.22 -0.18,0.39 -0.39,0.39zm37.74 -128.03l42.74 0 0 32.06 -10.68 0 0 16.02 -16.03 0 0 -16.02 -16.02 0 0 -32.06zm74.8 0l32.05 0 0 32.06 -16.02 0 -16.02 0 0 -32.06zm64.11 0l48.08 0 0 32.06 -21.37 0 0 16.02 -10.69 0 0 -16.02 -16.03 0 0 -32.06zm74.8 0l26.71 0 0 29.37 0 18.72 -10.69 0 0 -16.02 -16.02 0 0 -32.06zm58.76 0l48.08 0 0 32.06 -16.03 0 0 16.02 -10.68 0 0 -16.02 -21.37 0 0 -32.06zm101.1 220.22l6.19 0c0.21,0 0.39,0.17 0.39,0.39l0 107.11 0 6.18c0,0.22 -0.18,0.39 -0.39,0.39l-6.19 0 -72.11 0c-0.22,0 -0.39,-0.17 -0.39,-0.39l0 -6.18c0,-0.21 0.17,-0.39 0.39,-0.39l71.72 0 0 -106.72c0,-0.22 0.17,-0.39 0.39,-0.39zm-201.61 -321.97c-190.47,0 -344.89,154.41 -344.89,344.89 0,190.48 154.41,344.89 344.89,344.89 190.48,0 344.89,-154.41 344.89,-344.89 0,-190.48 -154.41,-344.89 -344.89,-344.89z"/>
 </g>
</svg>
