<?xml version="1.0" encoding="UTF-8"?>
<!DOCTYPE svg PUBLIC "-//W3C//DTD SVG 1.1//EN" "http://www.w3.org/Graphics/SVG/1.1/DTD/svg11.dtd">
<!-- Creator: CorelDRAW 2021 (64-Bit) -->
<svg xmlns="http://www.w3.org/2000/svg" xml:space="preserve" width="61.7468mm" height="20.4548mm" version="1.1" style="shape-rendering:geometricPrecision; text-rendering:geometricPrecision; image-rendering:optimizeQuality; fill-rule:evenodd; clip-rule:evenodd"
viewBox="0 0 1698.62 562.7"
 xmlns:xlink="http://www.w3.org/1999/xlink"
 xmlns:xodm="http://www.corel.com/coreldraw/odm/2003">
 <defs>
  <style type="text/css">
   <![CDATA[
    .fil1 {fill:#f9fafb;fill-rule:nonzero}
    .fil0 {fill:#f9fafb;fill-rule:nonzero}
   ]]>
  </style>
 </defs>
 <g id="Capa_x0020_1">
  <metadata id="CorelCorpID_0Corel-Layer"/>
  <path class="fil0" d="M491.11 374.33l-150.93 60.27c-0.43,0.17 -0.91,-0.04 -1.08,-0.46l-5.83 -14.6c-0.17,-0.42 0.04,-0.9 0.46,-1.07l150.93 -60.27c0.43,-0.17 0.91,0.03 1.08,0.46l5.83 14.6c0.17,0.43 -0.04,0.91 -0.46,1.08zm-4.2 84.11l-141.17 0 0 -13.23 141.17 0 0 13.23zm-157.12 -45.47l-11.1 -11.13c-0.32,-0.32 -0.32,-0.85 0,-1.17l107.28 -106.98c0.33,-0.32 0.85,-0.32 1.17,0l11.1 11.13c0.32,0.32 0.32,0.84 -0.01,1.17l-107.28 106.98c-0.32,0.32 -0.85,0.32 -1.17,0zm-17.62 -17.08l-14.51 -6.04c-0.42,-0.18 -0.62,-0.66 -0.45,-1.08l60.67 -145.66c0.17,-0.42 0.66,-0.62 1.08,-0.44l14.52 6.04c0.42,0.18 0.62,0.66 0.44,1.09l-60.66 145.66c-0.18,0.42 -0.66,0.62 -1.08,0.44zm-30.62 67.34c-9.95,0 -18.01,-8.07 -18.01,-18.01 0,-9.95 8.06,-18.02 18.01,-18.02 9.95,0 18.01,8.07 18.01,18.02 0,9.94 -8.06,18.01 -18.01,18.01zm-32.11 -67.78l-60.66 -145.66c-0.17,-0.42 0.02,-0.91 0.45,-1.09l14.51 -6.04c0.43,-0.18 0.91,0.02 1.08,0.44l60.67 145.66c0.17,0.42 -0.02,0.91 -0.45,1.08l-14.51 6.04c-0.42,0.18 -0.91,-0.02 -1.08,-0.44zm-5.44 6.4l-11.1 11.13c-0.32,0.32 -0.85,0.32 -1.17,0l-107.27 -106.98c-0.33,-0.33 -0.33,-0.85 -0.01,-1.17l11.11 -11.13c0.32,-0.32 0.84,-0.32 1.16,0l107.28 106.98c0.32,0.32 0.32,0.85 0,1.17zm-14.58 17.69l-5.83 14.6c-0.17,0.43 -0.65,0.64 -1.08,0.46l-150.93 -60.27c-0.43,-0.17 -0.64,-0.65 -0.46,-1.08l5.83 -14.6c0.17,-0.43 0.65,-0.63 1.07,-0.46l150.94 60.27c0.43,0.17 0.63,0.65 0.46,1.07zm-12.47 38.91l-141.17 0 0 -13.23 141.17 0 0 13.23zm-34.93 -257.33c7.31,0 13.23,5.92 13.23,13.23 0,7.31 -5.93,13.23 -13.23,13.23 -7.31,0 -13.23,-5.93 -13.23,-13.23 0,-7.31 5.93,-13.23 13.23,-13.23zm90.83 -154.13c0,-0.46 0.37,-0.83 0.83,-0.83l15.72 0c0.45,0 0.83,0.37 0.83,0.83l0 362.09c0,0.45 -0.37,0.83 -0.83,0.83l-15.72 0c-0.46,0 -0.83,-0.37 -0.83,-0.83l0 -362.09zm177.78 214.42c7.31,0 13.23,5.93 13.23,13.23 0,7.31 -5.93,13.23 -13.23,13.23 -7.31,0 -13.23,-5.93 -13.23,-13.23 0,-7.31 5.93,-13.23 13.23,-13.23zm-169.29 -261.41c-155.38,0 -281.35,125.97 -281.35,281.35 0,155.38 125.97,281.35 281.35,281.35 155.39,0 281.35,-125.97 281.35,-281.35 0,-155.39 -125.97,-281.35 -281.35,-281.35z"/>
  <g id="_2380061700896">
   <path class="fil1" d="M770.23 93.72c-10.54,0 -18.7,3.96 -24.48,11.88 -5.78,7.92 -8.67,18.95 -8.67,33.1 0,29.45 11.05,44.17 33.15,44.17 9.28,0 20.51,-2.32 33.69,-6.96l0 23.49c-10.84,4.51 -22.94,6.78 -36.31,6.78 -19.21,0 -33.91,-5.82 -44.09,-17.48 -10.18,-11.65 -15.26,-28.38 -15.26,-50.18 0,-13.73 2.5,-25.76 7.5,-36.09 5,-10.33 12.18,-18.24 21.55,-23.76 9.36,-5.51 20.34,-8.26 32.93,-8.26 12.83,0 25.71,3.1 38.66,9.3l-9.03 22.77c-4.94,-2.35 -9.91,-4.39 -14.91,-6.14 -5,-1.75 -9.91,-2.62 -14.72,-2.62z"/>
   <path class="fil1" d="M855.5 138.17c0,14.76 2.8,25.86 8.4,33.34 5.6,7.47 13.97,11.2 25.11,11.2 22.34,0 33.51,-14.84 33.51,-44.53 0,-29.75 -11.11,-44.62 -33.34,-44.62 -11.14,0 -19.54,3.74 -25.2,11.25 -5.66,7.5 -8.49,18.62 -8.49,33.38zm96.39 0c0,21.86 -5.42,38.66 -16.26,50.41 -10.84,11.74 -26.38,17.61 -46.61,17.61 -20.24,0 -35.77,-5.87 -46.61,-17.61 -10.84,-11.75 -16.26,-28.61 -16.26,-50.59 0,-21.98 5.43,-38.77 16.3,-50.36 10.87,-11.6 26.45,-17.39 46.75,-17.39 20.29,0 35.82,5.84 46.57,17.53 10.75,11.68 16.13,28.49 16.13,50.41z"/>
   <path class="fil1" d="M1007.27 130.94l9.03 0c8.85,0 15.38,-1.47 19.6,-4.43 4.22,-2.95 6.32,-7.59 6.32,-13.91 0,-6.26 -2.15,-10.72 -6.46,-13.37 -4.3,-2.65 -10.97,-3.98 -20.01,-3.98l-8.49 0 0 35.69zm0 22.76l0 50.68 -28 0 0 -132.07 38.48 0c17.95,0 31.23,3.27 39.84,9.8 8.61,6.54 12.92,16.46 12.92,29.77 0,7.77 -2.14,14.68 -6.42,20.73 -4.27,6.05 -10.33,10.8 -18.15,14.23 19.87,29.69 32.82,48.87 38.84,57.54l-31.07 0 -31.52 -50.68 -14.91 0z"/>
   <polygon class="fil1" points="1152.34,204.38 1124.34,204.38 1124.34,95.62 1088.48,95.62 1088.48,72.31 1188.21,72.31 1188.21,95.62 1152.34,95.62 "/>
   <polygon class="fil1" points="1284.59,204.38 1208.53,204.38 1208.53,72.31 1284.59,72.31 1284.59,95.26 1236.54,95.26 1236.54,124.26 1281.25,124.26 1281.25,147.2 1236.54,147.2 1236.54,181.26 1284.59,181.26 "/>
  </g>
  <g id="_2380061702144">
   <polygon class="fil1" points="708.25,495.17 708.25,254.37 759.31,254.37 759.31,453.01 856.98,453.01 856.98,495.17 "/>
   <path class="fil1" d="M1016.58 395.03c-16.14,-51.94 -25.22,-81.31 -27.26,-88.12 -2.03,-6.81 -3.48,-12.18 -4.36,-16.14 -3.62,14.05 -14,48.81 -31.14,104.26l62.75 0zm29.66 100.14l-17.46 -57.32 -87.79 0 -17.46 57.32 -55.01 0 84.99 -241.78 62.42 0 85.32 241.78 -55 0z"/>
   <path class="fil1" d="M1273.68 428.3c0,21.74 -7.82,38.87 -23.48,51.39 -15.64,12.52 -37.42,18.78 -65.3,18.78 -25.69,0 -48.42,-4.83 -68.19,-14.49l0 -47.44c16.25,7.25 30,12.36 41.26,15.32 11.25,2.97 21.55,4.45 30.88,4.45 11.2,0 19.79,-2.14 25.78,-6.42 5.98,-4.28 8.97,-10.65 8.97,-19.1 0,-4.72 -1.31,-8.92 -3.96,-12.6 -2.63,-3.68 -6.5,-7.21 -11.61,-10.62 -5.1,-3.41 -15.51,-8.84 -31.21,-16.31 -14.71,-6.91 -25.75,-13.56 -33.1,-19.93 -7.36,-6.37 -13.23,-13.78 -17.62,-22.24 -4.4,-8.45 -6.6,-18.34 -6.6,-29.65 0,-21.3 7.22,-38.05 21.67,-50.23 14.43,-12.19 34.39,-18.28 59.87,-18.28 12.51,0 24.46,1.48 35.82,4.45 11.37,2.97 23.25,7.14 35.66,12.52l-16.48 39.69c-12.85,-5.27 -23.47,-8.95 -31.87,-11.04 -8.4,-2.08 -16.67,-3.13 -24.79,-3.13 -9.66,0 -17.08,2.26 -22.24,6.75 -5.17,4.5 -7.74,10.37 -7.74,17.62 0,4.5 1.04,8.43 3.13,11.77 2.09,3.36 5.41,6.59 9.97,9.72 4.55,3.13 15.34,8.76 32.37,16.88 22.5,10.76 37.92,21.55 46.28,32.37 8.35,10.81 12.52,24.07 12.52,39.77z"/>
   <polygon class="fil1" points="1456.01,495.17 1317.33,495.17 1317.33,254.37 1456.01,254.37 1456.01,296.21 1368.39,296.21 1368.39,349.07 1449.92,349.07 1449.92,390.91 1368.39,390.91 1368.39,453.01 1456.01,453.01 "/>
   <path class="fil1" d="M1557.3 361.27l16.47 0c16.14,0 28.05,-2.69 35.74,-8.07 7.68,-5.38 11.53,-13.84 11.53,-25.36 0,-11.42 -3.93,-19.54 -11.78,-24.38 -7.85,-4.83 -20.01,-7.25 -36.48,-7.25l-15.48 0 0 65.06zm0 41.5l0 92.4 -51.06 0 0 -240.8 70.17 0c32.72,0 56.93,5.96 72.63,17.87 15.71,11.91 23.56,30 23.56,54.27 0,14.17 -3.9,26.76 -11.69,37.8 -7.8,11.04 -18.84,19.69 -33.11,25.94 36.24,54.13 59.85,89.1 70.83,104.92l-56.66 0 -57.48 -92.4 -27.17 0z"/>
  </g>
 </g>
</svg>
