<?xml version="1.0" encoding="UTF-8"?>
<!DOCTYPE svg PUBLIC "-//W3C//DTD SVG 1.1//EN" "http://www.w3.org/Graphics/SVG/1.1/DTD/svg11.dtd">
<!-- Creator: CorelDRAW 2021 (64-Bit) -->
<svg xmlns="http://www.w3.org/2000/svg" xml:space="preserve" width="85.58mm" height="20.4549mm" version="1.1" style="shape-rendering:geometricPrecision; text-rendering:geometricPrecision; image-rendering:optimizeQuality; fill-rule:evenodd; clip-rule:evenodd"
viewBox="0 0 3267.79 781.05"
 xmlns:xlink="http://www.w3.org/1999/xlink"
 xmlns:xodm="http://www.corel.com/coreldraw/odm/2003">
 <defs>
  <style type="text/css">
   <![CDATA[
    .fil0 {fill:#FEFEFE;fill-rule:nonzero}
    .fil1 {fill:#FEFEFE;fill-rule:nonzero}
   ]]>
  </style>
 </defs>
 <g id="Capa_x0020_1">
  <metadata id="CorelCorpID_0Corel-Layer"/>
  <g id="_2380055700496">
   <path class="fil0" d="M1097.66 190.94c0,-42.61 -18.82,-63.91 -56.45,-63.91l-22.39 0 0 129.18 18.05 0c40.52,0 60.79,-21.75 60.79,-65.27zm43.69 -1.09c0,32.65 -9.3,57.67 -27.88,75.04 -18.6,17.37 -45.44,26.05 -80.54,26.05l-56.18 0 0 -198.38 62.28 0c32.38,0 57.54,8.55 75.45,25.64 17.91,17.1 26.87,40.98 26.87,71.64z"/>
   <polygon class="fil0" points="1296.72,290.94 1182.46,290.94 1182.46,92.57 1296.72,92.57 1296.72,127.03 1224.52,127.03 1224.52,170.59 1291.7,170.59 1291.7,205.05 1224.52,205.05 1224.52,256.2 1296.72,256.2 "/>
   <path class="fil0" d="M1422.36 124.72c-15.83,0 -28.09,5.95 -36.77,17.84 -8.69,11.9 -13.03,28.47 -13.03,49.73 0,44.23 16.6,66.35 49.8,66.35 13.93,0 30.81,-3.48 50.61,-10.45l0 35.28c-16.28,6.79 -34.47,10.17 -54.55,10.17 -28.85,0 -50.93,-8.74 -66.22,-26.26 -15.29,-17.5 -22.93,-42.62 -22.93,-75.37 0,-20.62 3.76,-38.69 11.26,-54.21 7.51,-15.51 18.29,-27.41 32.37,-35.69 14.06,-8.27 30.55,-12.42 49.45,-12.42 19.27,0 38.63,4.66 58.08,13.98l-13.57 34.2c-7.42,-3.53 -14.88,-6.61 -22.39,-9.23 -7.51,-2.63 -14.88,-3.94 -22.12,-3.94z"/>
   <path class="fil0" d="M1550.45 191.48c0,22.17 4.22,38.86 12.62,50.07 8.41,11.22 20.99,16.82 37.72,16.82 33.56,0 50.35,-22.29 50.35,-66.9 0,-44.68 -16.7,-67.03 -50.07,-67.03 -16.74,0 -29.36,5.64 -37.86,16.9 -8.51,11.25 -12.76,27.97 -12.76,50.13zm144.79 0c0,32.84 -8.14,58.08 -24.43,75.72 -16.29,17.63 -39.63,26.45 -70.02,26.45 -30.4,0 -53.73,-8.82 -70.01,-26.45 -16.29,-17.64 -24.43,-42.96 -24.43,-75.99 0,-33.02 8.16,-58.23 24.5,-75.65 16.33,-17.42 39.73,-26.12 70.22,-26.12 30.48,0 53.8,8.77 69.95,26.32 16.14,17.55 24.22,42.79 24.22,75.71z"/>
   <path class="fil0" d="M1778.42 180.63l13.57 0c13.3,0 23.11,-2.22 29.44,-6.66 6.33,-4.43 9.5,-11.39 9.5,-20.89 0,-9.42 -3.24,-16.1 -9.71,-20.08 -6.46,-3.98 -16.48,-5.97 -30.05,-5.97l-12.76 0 0 53.61zm0 34.18l0 76.12 -42.06 0 0 -198.37 57.8 0c26.96,0 46.91,4.91 59.84,14.72 12.94,9.82 19.41,24.72 19.41,44.71 0,11.67 -3.21,22.05 -9.64,31.14 -6.41,9.1 -15.51,16.21 -27.27,21.38 29.85,44.59 49.3,73.41 58.35,86.43l-46.68 0 -47.35 -76.12 -22.39 0z"/>
   <path class="fil0" d="M2016.83 208.44c-13.3,-42.79 -20.78,-66.99 -22.46,-72.59 -1.68,-5.62 -2.87,-10.04 -3.59,-13.3 -2.99,11.59 -11.53,40.21 -25.64,85.9l51.7 0zm24.42 82.5l-14.38 -47.22 -72.32 0 -14.38 47.22 -45.32 0 70.01 -199.2 51.43 0 70.29 199.2 -45.32 0z"/>
   <path class="fil0" d="M2195.81 124.72c-15.83,0 -28.09,5.95 -36.78,17.84 -8.68,11.9 -13.03,28.47 -13.03,49.73 0,44.23 16.6,66.35 49.8,66.35 13.93,0 30.8,-3.48 50.61,-10.45l0 35.28c-16.29,6.79 -34.46,10.17 -54.55,10.17 -28.86,0 -50.93,-8.74 -66.22,-26.26 -15.29,-17.5 -22.93,-42.62 -22.93,-75.37 0,-20.62 3.75,-38.69 11.26,-54.21 7.51,-15.51 18.3,-27.41 32.36,-35.69 14.07,-8.27 30.55,-12.42 49.46,-12.42 19.26,0 38.63,4.66 58.07,13.98l-13.56 34.2c-7.42,-3.53 -14.88,-6.61 -22.39,-9.23 -7.51,-2.63 -14.88,-3.94 -22.12,-3.94z"/>
   <polygon class="fil0" points="2288.62,92.57 2330.68,92.57 2330.68,290.94 2288.62,290.94 "/>
   <path class="fil0" d="M2444.94 76.68l0 -3.66c15.56,-18.08 26.19,-31.7 31.89,-40.84l46.41 0 0 2.86c-4.71,4.7 -12.74,11.69 -24.09,20.96 -11.35,9.27 -20.24,16.17 -26.66,20.69l-27.55 0zm-29.04 114.8c0,22.16 4.21,38.86 12.62,50.07 8.41,11.22 20.99,16.83 37.73,16.83 33.56,0 50.34,-22.3 50.34,-66.9 0,-44.69 -16.69,-67.04 -50.07,-67.04 -16.74,0 -29.36,5.64 -37.86,16.9 -8.5,11.26 -12.76,27.97 -12.76,50.14zm144.78 0c0,32.83 -8.14,58.07 -24.42,75.72 -16.28,17.64 -39.62,26.45 -70.01,26.45 -30.4,0 -53.74,-8.81 -70.03,-26.45 -16.28,-17.64 -24.42,-42.96 -24.42,-75.99 0,-33.03 8.17,-58.23 24.5,-75.64 16.32,-17.42 39.74,-26.13 70.22,-26.13 30.48,0 53.8,8.77 69.95,26.33 16.14,17.55 24.22,42.79 24.22,75.71z"/>
   <path class="fil0" d="M2777.79 290.94l-53.47 0 -86.3 -150.07 -1.23 0c1.72,26.52 2.58,45.41 2.58,56.71l0 93.36 -37.58 0 0 -198.37 53.06 0 86.16 148.57 0.95 0c-1.36,-25.77 -2.04,-44 -2.04,-54.68l0 -93.89 37.86 0 0 198.37z"/>
  </g>
  <path class="fil1" d="M395.24 421.74l-230.1 0 0 -180.55 230.1 0 0 180.55zm40.1 -205.06c-0.08,-6.33 -5.02,-11.42 -10.83,-11.44 -13.09,-0.05 -26.18,-0.12 -39.26,-0.12 -31.09,-0.01 -62.19,-0.02 -93.29,0 -13.73,0.01 -27.47,0.15 -41.2,0.18 -12.43,0.03 -24.87,-0.01 -37.31,-0.02 -11.14,-0.01 -22.28,-0.02 -33.43,-0.01 -12.95,0.01 -25.91,-0.05 -38.86,0.11 -5.83,0.08 -9,3.5 -9.02,9.38 -0.07,21.26 -0.09,42.53 -0.09,63.79 -0,42.91 0.02,85.82 0.02,128.73 0,33.71 -0.05,67.41 -0.01,101.12 0.01,6.71 4.93,11.41 11.62,11.41 4.54,0 9.07,0 13.6,0 10.6,0.01 21.2,0.01 31.71,0.01 7.43,-36.17 34.98,-53.87 61.16,-56.03 14.78,-1.21 28.64,2.08 41.16,9.98 16.98,10.71 26.98,26.34 30.75,45.73l113.31 0 0 -4.15c0.03,-49.26 0.07,-98.51 0.09,-147.77 0.02,-38.63 0.01,-77.26 0,-115.88 -0,-11.67 0.01,-23.34 -0.12,-35.01z"/>
  <path class="fil1" d="M552.21 396.19c19.96,-0.1 39.92,-0.03 59.87,-0.03l35.11 0c-0.99,-11.51 -5.32,-21.31 -11.7,-30.05 -13.59,-18.61 -27.37,-37.09 -41.55,-55.26 -5.6,-7.19 -12.15,-13.72 -18.82,-19.96 -11.12,-10.39 -25.1,-6.12 -38.51,-7.01l0 4.19 0 92.92c0,10.3 5.23,15.25 15.61,15.2z"/>
  <path class="fil1" d="M255.4 486.2c-25.41,0.44 -44.74,19.83 -44.64,45.4 0.1,25.01 20.16,44.4 45.8,44.24 24.38,-0.15 43.9,-20.24 43.75,-45.02 0.7,-24.14 -20.2,-45.05 -44.91,-44.62z"/>
  <path class="fil1" d="M558.81 486.25c-24.92,0.02 -44.6,19.66 -44.65,44.58 -0.06,24.96 19.56,44.91 44.27,45 25.59,0.09 45.29,-19.29 45.36,-44.62 0.07,-25.45 -19.46,-44.97 -44.97,-44.96z"/>
  <path class="fil1" d="M642.57 418.7c-31.64,0 -63.27,0.05 -94.91,-0.02 -17.69,-0.05 -33.68,-15.93 -33.65,-33.14 0.04,-26.71 0.05,-53.41 0.07,-80.13 0,-7.09 0,-14.18 0,-21.55 -2.55,0 -4.6,-0.01 -6.66,0 -11.79,0.03 -23.59,0.17 -35.39,0.06 -8.45,-0.08 -14.06,5.06 -14.06,13.4 -0.01,63.41 -0.01,126.81 0,190.21l0 31.57c0.65,0.35 0.87,0.57 1.09,0.57 10.5,0.06 21,0.17 31.49,0.05 0.85,-0.02 2.06,-1.47 2.47,-2.49 2.62,-6.59 4.24,-13.7 7.67,-19.8 14.24,-25.25 42.47,-38.26 71,-32.6 22.54,4.46 38.99,17.35 48.54,38.44 2.37,5.23 3.85,10.87 5.8,16.48 2.96,0 6.06,0.06 9.16,-0.01 8.27,-0.19 13.54,-5.51 13.56,-13.69 0.05,-27.87 0.08,-55.74 0.1,-83.61 0,-1.12 -0.17,-2.24 -0.29,-3.73l-6.01 0z"/>
  <path class="fil1" d="M659.71 533.51c-6.58,5.76 -14.16,8.94 -22.98,8.94l-11.18 0c-3.94,19.82 -14.17,35.44 -31.34,46.13 -12.12,7.55 -25.51,10.86 -39.68,9.79 -29.01,-2.17 -55.1,-21.82 -62.02,-55.79l-170.16 0c-8.19,40.5 -43.36,57.67 -70.55,55.87 -28.36,-1.87 -55.54,-20.8 -62.77,-56.04 -10.92,0 -21.91,0.13 -32.91,-0.05 -6.97,-0.12 -14.15,0.25 -20.86,-1.26 -13.6,-3.05 -21.81,-12.17 -25.01,-25.77 -0.14,-0.59 -0.5,-1.13 -0.75,-1.69l0 -304.2c1.81,-4.24 3.06,-8.84 5.54,-12.65 6.52,-10.04 16.25,-14.34 28.11,-14.3 20.47,0.06 40.95,-0.01 61.42,0.02 19.31,0.03 38.62,0.16 57.93,0.16 19.57,0 39.14,-0.14 58.7,-0.14 19.31,0 38.62,0.13 57.93,0.14 14.38,0 28.77,-0.02 43.15,-0.18 11.4,-0.13 21.2,3.37 28.46,12.42 4.84,6.03 7.27,13.07 7.28,20.85 0.03,14.39 0,28.79 0,43.17l0 2.91c13.71,-0.21 27.13,-0.53 40.55,-0.57 19.06,-0.06 38.12,0.52 57.17,0.01 15.75,-0.43 28.75,5.29 39.42,16.1 7.78,7.88 14.74,16.65 21.49,25.47 12.15,15.82 24.15,31.77 35.67,48.05 8.85,12.52 16.29,26.04 18.35,41.52 1.15,8.68 0.68,17.58 0.7,26.39 0.07,27.75 -0.26,55.49 0.16,83.22 0.19,12.32 -2.24,23.11 -11.82,31.49zm-269.18 -533.51c-215.68,0 -390.52,174.84 -390.52,390.53 0,215.68 174.84,390.52 390.52,390.52 215.68,0 390.52,-174.84 390.52,-390.52 0,-215.68 -174.84,-390.53 -390.52,-390.53z"/>
  <g id="_2380055717584">
   <path class="fil0" d="M1179.59 376.61l62.37 0 -99.03 291.31 -67.35 0 -98.84 -291.31 62.37 0 54.79 173.35c3.06,10.23 6.21,22.15 9.47,35.77 3.25,13.61 5.28,23.08 6.07,28.4 1.46,-12.22 6.44,-33.61 14.95,-64.17l55.2 -173.35z"/>
   <polygon class="fil0" points="1446.4,667.92 1278.62,667.92 1278.62,376.61 1446.4,376.61 1446.4,427.21 1340.39,427.21 1340.39,491.18 1439.02,491.18 1439.02,541.79 1340.39,541.79 1340.39,616.9 1446.4,616.9 "/>
   <polygon class="fil0" points="1745.88,667.92 1684.3,667.92 1684.3,542.19 1568.93,542.19 1568.93,667.92 1507.17,667.92 1507.17,376.61 1568.93,376.61 1568.93,490.78 1684.3,490.78 1684.3,376.61 1745.88,376.61 "/>
   <polygon class="fil0" points="1819.39,376.61 1881.16,376.61 1881.16,667.92 1819.39,667.92 "/>
   <path class="fil0" d="M2078.24 423.83c-23.25,0 -41.25,8.74 -54,26.2 -12.75,17.47 -19.13,41.81 -19.13,73.02 0,64.96 24.37,97.45 73.13,97.45 20.45,0 45.23,-5.12 74.32,-15.35l0 51.8c-23.91,9.97 -50.61,14.95 -80.1,14.95 -42.37,0 -74.78,-12.85 -97.23,-38.55 -22.45,-25.71 -33.67,-62.6 -33.67,-110.69 0,-30.29 5.51,-56.82 16.54,-79.61 11.02,-22.78 26.87,-40.25 47.53,-52.4 20.65,-12.15 44.86,-18.24 72.62,-18.24 28.3,0 56.72,6.85 85.28,20.53l-19.93 50.21c-10.89,-5.17 -21.85,-9.69 -32.88,-13.55 -11.03,-3.85 -21.86,-5.78 -32.48,-5.78z"/>
   <path class="fil0" d="M2451.64 376.61l0 188.5c0,21.52 -4.82,40.38 -14.44,56.58 -9.64,16.21 -23.56,28.63 -41.75,37.26 -18.21,8.64 -39.72,12.95 -64.56,12.95 -37.46,0 -66.55,-9.59 -87.28,-28.79 -20.72,-19.19 -31.08,-45.46 -31.08,-78.8l0 -187.7 61.58 0 0 178.33c0,22.45 4.51,38.93 13.54,49.42 9.03,10.49 23.97,15.74 44.84,15.74 20.19,0 34.84,-5.28 43.93,-15.84 9.1,-10.55 13.65,-27.13 13.65,-49.71l0 -177.93 61.57 0z"/>
   <polygon class="fil0" points="2522.97,667.92 2522.97,376.61 2584.74,376.61 2584.74,616.9 2702.9,616.9 2702.9,667.92 "/>
   <path class="fil0" d="M2895.98 546.77c-19.53,-62.83 -30.52,-98.37 -32.98,-106.61 -2.46,-8.24 -4.22,-14.74 -5.28,-19.52 -4.39,17 -16.93,59.05 -37.66,126.13l75.92 0zm35.87 121.15l-21.12 -69.34 -106.2 0 -21.12 69.34 -66.55 0 102.81 -292.51 75.52 0 103.21 292.51 -66.55 0z"/>
   <path class="fil0" d="M3096.83 505.92l19.93 0c19.53,0 33.93,-3.26 43.24,-9.76 9.3,-6.51 13.94,-16.74 13.94,-30.68 0,-13.81 -4.75,-23.65 -14.24,-29.49 -9.5,-5.84 -24.21,-8.77 -44.13,-8.77l-18.73 0 0 78.7zm0 50.21l0 111.79 -61.77 0 0 -291.31 84.88 0c39.59,0 68.87,7.21 87.87,21.61 19,14.42 28.49,36.31 28.49,65.67 0,17.13 -4.72,32.37 -14.15,45.73 -9.43,13.35 -22.78,23.81 -40.04,31.38 43.83,65.49 72.39,107.8 85.67,126.93l-68.54 0 -69.54 -111.79 -32.87 0z"/>
  </g>
 </g>
</svg>
