<?xml version="1.0" encoding="UTF-8"?>
<!DOCTYPE svg PUBLIC "-//W3C//DTD SVG 1.1//EN" "http://www.w3.org/Graphics/SVG/1.1/DTD/svg11.dtd">
<!-- Creator: CorelDRAW 2021 (64-Bit) -->
<svg xmlns="http://www.w3.org/2000/svg" xml:space="preserve" width="75.1421mm" height="20.4549mm" version="1.1" style="shape-rendering:geometricPrecision; text-rendering:geometricPrecision; image-rendering:optimizeQuality; fill-rule:evenodd; clip-rule:evenodd"
viewBox="0 0 2513.92 684.33"
 xmlns:xlink="http://www.w3.org/1999/xlink"
 xmlns:xodm="http://www.corel.com/coreldraw/odm/2003">
 <defs>
  <style type="text/css">
   <![CDATA[
    .fil0 {fill:#FEFEFE;fill-rule:nonzero}
    .fil1 {fill:#373435;fill-rule:nonzero}
   ]]>
  </style>
 </defs>
 <g id="Capa_x0020_1">
  <metadata id="CorelCorpID_0Corel-Layer"/>
  <g id="_2380068530880">
   <path class="fil0" d="M1036.48 338.78c0,-70.61 -31.18,-105.92 -93.55,-105.92l-37.1 0 0 214.08 29.91 0c67.16,0 100.74,-36.05 100.74,-108.17zm72.41 -1.8c0,54.12 -15.4,95.58 -46.21,124.36 -30.82,28.79 -75.3,43.17 -133.47,43.17l-93.1 0 0 -328.77 103.22 0c53.66,0 95.34,14.18 125.03,42.51 29.69,28.33 44.52,67.91 44.52,118.73z"/>
   <polygon class="fil0" points="1177.04,175.74 1246.75,175.74 1246.75,504.51 1177.04,504.51 "/>
   <path class="fil0" d="M1523.56 413.22c0,29.69 -10.68,53.06 -32.04,70.16 -21.37,17.09 -51.09,25.64 -89.17,25.64 -35.08,0 -66.11,-6.6 -93.1,-19.79l0 -64.76c22.18,9.89 40.96,16.86 56.33,20.92 15.37,4.04 29.42,6.07 42.17,6.07 15.29,0 27.02,-2.92 35.19,-8.77 8.17,-5.84 12.26,-14.54 12.26,-26.08 0,-6.45 -1.81,-12.18 -5.41,-17.21 -3.59,-5.01 -8.88,-9.85 -15.85,-14.5 -6.97,-4.64 -21.18,-12.06 -42.62,-22.26 -20.09,-9.44 -35.15,-18.51 -45.2,-27.21 -10.05,-8.7 -18.07,-18.81 -24.06,-30.36 -6,-11.54 -8.99,-25.04 -8.99,-40.48 0,-29.09 9.85,-51.95 29.56,-68.59 19.72,-16.64 46.96,-24.96 81.75,-24.96 17.08,0 33.39,2.03 48.91,6.07 15.52,4.05 31.74,9.75 48.68,17.09l-22.49 54.19c-17.53,-7.19 -32.04,-12.22 -43.51,-15.07 -11.47,-2.85 -22.75,-4.27 -33.85,-4.27 -13.19,0 -23.31,3.07 -30.35,9.22 -7.05,6.15 -10.57,14.17 -10.57,24.06 0,6.15 1.42,11.51 4.27,16.08 2.84,4.57 7.38,9 13.6,13.27 6.22,4.27 20.95,11.96 44.19,23.05 30.73,14.69 51.79,29.42 63.19,44.19 11.39,14.77 17.09,32.87 17.09,54.31z"/>
   <polygon class="fil0" points="1772.5,504.51 1583.16,504.51 1583.16,175.75 1772.5,175.75 1772.5,232.86 1652.87,232.86 1652.87,305.04 1764.18,305.04 1764.18,362.17 1652.87,362.17 1652.87,446.95 1772.5,446.95 "/>
   <path class="fil0" d="M1949.93 125.82c-4.65,0 -9.11,1.99 -13.38,5.96 -4.28,3.97 -7.39,10.01 -9.33,18.11l-33.51 0c1.65,-21.74 7.83,-38.75 18.55,-51.05 10.72,-12.29 24.92,-18.44 42.62,-18.44 6.15,0 12.18,1.24 18.1,3.71 5.92,2.48 11.76,5.17 17.53,8.1 5.77,2.93 11.44,5.58 16.98,7.99 5.55,2.4 11.02,3.6 16.42,3.6 4.65,0 9.11,-1.95 13.38,-5.85 4.28,-3.89 7.39,-9.89 9.33,-17.99l33.51 0c-1.65,21.74 -7.91,38.75 -18.78,51.05 -10.87,12.29 -25,18.44 -42.39,18.44 -6.15,0 -12.18,-1.24 -18.1,-3.71 -5.93,-2.47 -11.77,-5.17 -17.54,-8.1 -5.78,-2.92 -11.44,-5.62 -16.98,-8.1 -5.55,-2.48 -11.02,-3.71 -16.41,-3.71zm182.82 378.69l-88.6 0 -143.02 -248.71 -2.02 0c2.84,43.93 4.27,75.25 4.27,94l0 154.72 -62.29 0 0 -328.77 87.92 0 142.8 246.24 1.58 0c-2.25,-42.73 -3.38,-72.94 -3.38,-90.62l0 -155.62 62.74 0 0 328.77z"/>
   <path class="fil0" d="M2273.97 339.68c0,36.73 6.98,64.39 20.91,82.98 13.94,18.59 34.78,27.89 62.51,27.89 55.62,0 83.43,-36.95 83.43,-110.86 0,-74.06 -27.66,-111.09 -82.98,-111.09 -27.74,0 -48.65,9.33 -62.74,28 -14.09,18.66 -21.14,46.37 -21.14,83.09zm239.94 0c0,54.42 -13.5,96.25 -40.47,125.48 -26.99,29.23 -65.67,43.85 -116.05,43.85 -50.37,0 -89.04,-14.62 -116.03,-43.85 -26.99,-29.23 -40.48,-71.2 -40.48,-125.93 0,-54.72 13.53,-96.51 40.59,-125.37 27.07,-28.85 65.85,-43.28 116.38,-43.28 50.52,0 89.17,14.54 115.92,43.63 26.76,29.08 40.14,70.91 40.14,125.48z"/>
  </g>
  <path class="fil1" d="M399.67 218.55c-4.41,-4.35 -8.91,-8.79 -13.08,-12.91 -4.34,4.33 -8.88,8.86 -13.09,13.08 4.2,4.23 8.64,8.7 12.93,13.03 4.32,-4.3 8.81,-8.77 13.25,-13.19z"/>
  <path class="fil1" d="M554.11 193.55c0,81.53 0.01,163.08 -0.01,244.61 0,13.55 -7.31,23.61 -20.01,26.85 -4.06,1.04 -8.46,1.11 -12.7,1.11 -37.25,0.06 -74.5,-0 -111.75,-0.03 -1.72,-0 -3.45,-0 -5.44,-0 0,11.53 0.07,22.41 -0.05,33.28 -0.03,2.38 0.76,3.58 2.85,4.71 9.72,5.21 14.64,13.42 14.64,24.51 -0,2.54 0,5.09 0,8.04l17.64 0 0 17.36 -194.17 0 0 -17.62 17.56 0c0,-2.22 0.07,-3.85 -0,-5.49 -0.55,-12.37 4.35,-21.56 15.49,-27.37 1.04,-0.55 1.88,-2.54 1.9,-3.86 0.16,-9.38 0.08,-18.76 0.08,-28.15l0 -5.41 -6.03 0c-38.07,0 -76.15,-0.02 -114.23,0.02 -8.11,0.01 -15.94,-1.31 -21.46,-7.68 -3.39,-3.92 -5.52,-8.94 -8.22,-13.46l0 -293.1c0.32,-0.75 0.7,-1.47 0.94,-2.23 3.9,-12.16 13.48,-19.28 26.29,-19.28 123.2,-0.02 246.4,-0.03 369.61,0 15.73,0.01 27,11.4 27.07,27.18 0.06,12 0.02,24 0.02,36.01zm-211.95 -193.55c-188.97,0 -342.16,153.19 -342.16,342.17 0,188.97 153.19,342.16 342.16,342.16 188.97,0 342.17,-153.19 342.17,-342.16 0,-188.98 -153.19,-342.17 -342.17,-342.17z"/>
  <polygon class="fil1" points="500.92,289.53 457.34,289.53 457.34,350.63 500.92,350.63 "/>
  <polygon class="fil1" points="500.86,254.44 457.39,254.44 457.39,271.27 500.86,271.27 "/>
  <path class="fil1" d="M274.62 323.24c-1.48,3.84 -2.87,7.44 -4.52,11.72 4.31,-1.74 7.87,-3.17 11.74,-4.73 -2.51,-2.43 -4.66,-4.5 -7.23,-6.99z"/>
  <polygon class="fil1" points="500.94,183.56 457.41,183.56 457.41,200.58 500.94,200.58 "/>
  <path class="fil1" d="M372.88 244.9c-4.2,-4.26 -8.62,-8.76 -12.79,-12.98 -25.13,25.14 -50.28,50.28 -75.21,75.21 4.22,4.29 8.65,8.79 12.78,12.98 25.1,-25.11 50.24,-50.24 75.21,-75.21z"/>
  <path class="fil1" d="M393.43 519.28c-18.75,0.33 -37.5,0.08 -56.25,0.07 -15.86,-0 -31.71,-0.02 -47.56,0.02 -5.15,0.01 -8.34,2.56 -8.82,7.27 -0.31,3.09 -0.06,6.23 -0.06,9.56l123.07 0c0,-2.58 -0.05,-4.64 0.01,-6.7 0.19,-6.38 -3.4,-10.34 -10.39,-10.22z"/>
  <path class="fil1" d="M165.59 342.42l17.28 0 0 26.1 -17.28 0 0 -26.1zm0.1 -176.74l17.2 0 0 17.43 -17.2 0 0 -17.43zm17.25 158.83l-17.2 0 0 -123.58 17.2 0 0 123.58zm17.92 -158.73l44.04 0 0 17.36 -44.04 0 0 -17.36zm57.08 34.98c20.69,0.01 41.37,0.03 62.06,0.04 1.36,0 2.72,0 4.54,0l0 17.82 -61.65 0 0 61.72 -17.79 0c-0.09,-1.46 -0.22,-2.79 -0.23,-4.13 -0.04,-20.82 -0.07,-41.65 -0.08,-62.47 -0,-9.95 3.09,-12.99 13.15,-12.98zm5.08 -35.05l34.99 0 0 17.34 -34.99 0 0 -17.34zm131.54 22.08c7.63,7.59 15.25,15.19 22.83,22.83 5.79,5.83 5.84,10.26 0.12,15.99 -37.16,37.19 -74.32,74.35 -111.51,111.5 -1.25,1.25 -2.67,2.35 -4.54,3.98l102.3 0 0 -79 17.73 0c0.06,1.36 0.18,2.7 0.18,4.03 -0.01,27.04 -0.01,54.08 -0.04,81.12 -0,8.84 -2.94,11.84 -11.95,11.84 -35.86,0.05 -71.74,0.01 -107.61,0.02 -15.45,0 -30.9,0.06 -46.35,0.09 -8.58,0.02 -12.72,-5.79 -9.62,-13.7 5.47,-13.96 10.99,-27.89 16.68,-41.76 0.91,-2.21 2.59,-4.24 4.3,-5.97 36.92,-37.02 73.9,-73.98 110.88,-110.95 6.17,-6.17 10.42,-6.17 16.58,-0.04zm44.52 60.49c0.01,-8.83 3.15,-12.01 11.85,-12.01 19.04,0.01 38.07,0.02 57.11,0.05 7.51,0.01 10.94,3.27 10.94,10.77 0.03,36.83 0.01,73.66 -0.06,110.49 -0.01,8.07 -3.3,11.19 -11.34,11.2 -19.17,0.01 -38.35,0.02 -57.52,-0 -7.43,-0.01 -10.9,-3.38 -10.92,-10.84 -0.05,-18.48 -0.02,-36.97 -0.02,-55.45l-0.05 0c0,-18.07 -0.01,-36.15 0,-54.21zm11.57 -82.83c18.9,-0.03 37.8,-0 56.7,0.07 8.39,0.03 11.52,3.15 11.58,11.44 0.06,10.07 0.06,20.15 0,30.22 -0.05,8.41 -3.39,11.63 -11.91,11.64 -9.38,0.02 -18.76,0.01 -28.15,0.01 -9.38,0 -18.76,0.02 -28.14,-0.01 -8.11,-0.03 -11.58,-3.47 -11.61,-11.55 -0.04,-10.07 -0.06,-20.15 -0.05,-30.21 0,-8.08 3.46,-11.6 11.57,-11.61zm85.4 220.56c0.09,-1.4 0.23,-2.6 0.23,-3.8 0.01,-73.83 0.01,-147.65 0,-221.48 0,-1.79 -0.09,-3.6 -0.36,-5.36 -0.59,-3.83 -2.89,-6.18 -6.68,-6.83 -2.02,-0.35 -4.12,-0.39 -6.18,-0.38 -46.91,0 -93.83,0.04 -140.75,0.05 -74.23,0.01 -148.48,0 -222.72,0.01 -8.91,0 -11.5,2.63 -11.51,11.63 -0.03,72.45 -0.05,144.9 -0.08,217.34l0 8.82 388.04 0z"/>
  <path class="fil1" d="M536.3 404.52l-388.29 0c0,11.25 -0.05,22.01 0.02,32.77 0.06,7.8 3.29,10.9 11.15,10.95 6.9,0.05 13.8,0.05 20.7,0.05 97.55,0 195.1,0 292.65,0 17.53,0 35.04,0.03 52.57,-0.01 7.78,-0.02 11.03,-3.25 11.17,-11.02 0.08,-4.69 0.02,-9.38 0.02,-14.07 0.01,-6.16 0,-12.32 0,-18.66z"/>
  <polygon class="fil1" points="385.85,466.66 298.37,466.66 298.37,501.02 385.85,501.02 "/>
 </g>
</svg>
