<?xml version="1.0" encoding="UTF-8"?>
<!DOCTYPE svg PUBLIC "-//W3C//DTD SVG 1.1//EN" "http://www.w3.org/Graphics/SVG/1.1/DTD/svg11.dtd">
<!-- Creator: CorelDRAW 2021 (64-Bit) -->
<svg xmlns="http://www.w3.org/2000/svg" xml:space="preserve" width="107.039mm" height="20.4547mm" version="1.1" style="shape-rendering:geometricPrecision; text-rendering:geometricPrecision; image-rendering:optimizeQuality; fill-rule:evenodd; clip-rule:evenodd"
viewBox="0 0 7430172.58 1419875.87"
 xmlns:xlink="http://www.w3.org/1999/xlink"
 xmlns:xodm="http://www.corel.com/coreldraw/odm/2003">
 <defs>
  <style type="text/css">
   <![CDATA[
    .fil1 {fill:#FEFEFE;fill-rule:nonzero}
    .fil0 {fill:#373435;fill-rule:nonzero}
   ]]>
  </style>
 </defs>
 <g id="Capa_x0020_1">
  <metadata id="CorelCorpID_0Corel-Layer"/>
  <path class="fil0" d="M553700.71 557740.7c59718.27,79890.45 165639.57,75711.63 220248.85,-7788.43 17860.64,-27321.99 38331.31,-52957.18 56164.19,-80306.94 9593.24,-14702.23 16111.37,-31410.57 24010.87,-47209.57 -2158.83,-2755.8 -4296.83,-5518.54 -6441.77,-8274.34 -12432.34,4560.61 -24989.63,8746.37 -37241.48,13737.35 -16590.34,6761.08 -32639.23,19269.78 -49458.64,20290.19 -59156,3540.2 -118561.89,4546.72 -177842.84,3797.03 -28141.1,-354.02 -55081.3,-8822.73 -78238.36,-27682.95 -7656.54,-6233.52 -20317.95,-6330.71 -30702.53,-9232.28 -1895.05,2367.07 -3797.03,4727.2 -5699.02,7087.34 5796.21,13661 9669.6,28592.3 17756.52,40733.09 21477.2,32292.15 44217.76,63772.14 67444.23,94849.52z"/>
  <path class="fil0" d="M1097454.15 977802.43c-24392.65,26169.69 -49854.3,51520.28 -72289.44,79279.59 -14736.94,18242.43 -24836.91,16861.06 -39358.66,1055.12 -14292.68,-15556.04 -30570.64,-29279.51 -45578.3,-43419.48 -34145.55,20352.66 -34846.65,23524.96 -10821.9,51124.61 15486.63,17805.11 32063.08,34700.87 46994.38,52950.24 10745.54,13154.26 18700.57,13723.47 30938.55,1152.3 38254.95,-39247.6 77363.72,-77696.91 116701.56,-115882.45 10669.18,-10356.81 13647.11,-18485.38 1929.75,-30188.86 -12189.38,-12217.15 -20345.72,-4831.33 -28515.94,3928.92z"/>
  <path class="fil0" d="M1025831.11 1207477.93c-94835.63,222.13 -164466.45,-69235.15 -164438.68,-164063.84 34.71,-92024.3 73330.67,-167048.71 163723.7,-167576.27 89157.43,-513.68 165105.07,76121.18 165341.09,166847.41 236.01,94085.94 -70151.43,164556.69 -164626.11,164792.7zm-186144.95 -263841.86c-14445.39,-4817.44 -27592.71,-19235.07 -36151.66,-32653.11 -2519.79,-3963.63 10460.94,-24108.05 20040.29,-28293.81 27641.3,-12043.61 38442.38,15507.45 59162.94,28856.08 -15167.31,14903.54 -20720.57,39518.32 -43051.57,32090.85zm-45619.95 155393.83c-43849.85,2832.16 -87998.19,812.16 -132028.53,812.16 0,1193.95 -13.88,2380.96 -13.88,3588.79 -34249.67,0 -68506.28,152.71 -102769.84,-131.89 -8288.23,-62.47 -16763.87,-770.51 -24816.09,-2672.5 -25079.87,-5893.39 -35672.69,-19602.97 -34499.57,-43301.47 1103.71,-22615.61 15077.07,-39053.23 39261.48,-39365.6 82965.56,-1082.88 165945,-992.64 248910.56,-104.12 22726.68,236.01 37074.89,16069.72 39171.24,37310.9 2214.36,22351.83 -9627.95,42343.53 -33215.38,43863.74zm-317527.91 -166548.92c-12335.16,-14480.1 -11918.66,-28495.12 1478.55,-42169.99 14556.46,-14868.83 28918.55,-13862.3 43475.01,6.94 7524.65,7156.75 15285.32,14063.61 25544.95,23469.42 -10585.88,8801.9 -17839.82,15271.44 -25538.01,21150.94 -19214.25,14667.52 -30994.08,13924.78 -44960.5,-2457.31zm-24566.19 -29904.25c-7663.49,49625.23 -17020.71,98986.69 -26114.16,148382.85 -8489.53,46182.22 -15486.63,52006.19 -61307.88,52325.5 -35860.11,249.9 -71720.23,222.13 -107587.28,69.42 -8121.63,-41.65 -16236.32,-1159.24 -27523.3,-2019.99 3512.43,-14320.44 5712.91,-26030.86 9273.93,-37310.9 30487.34,-96584.91 60745.62,-193260.05 92100.66,-289574.24 14695.29,-45120.16 41337.01,-81535.6 85617.24,-102297.81 30778.89,-14445.39 38088.36,-11120.38 42878.03,21220.36 10356.81,70095.9 3380.54,139837.78 -7337.23,209204.82zm375503.85 -78543.78c-659.45,22254.65 -18978.23,26974.91 -38088.36,26988.8 -41892.33,34.71 -83791.61,13.88 -125690.88,13.88l0 111.07c-39608.56,0 -79217.12,-104.12 -118839.56,20.82 -37942.58,111.07 -49014.38,-11064.85 -48021.73,-49264.27 867.7,-33416.68 513.68,-66951.37 3491.61,-100173.69 1311.96,-14730 6629.19,-31098.2 15542.16,-42489.31 6816.61,-8704.72 44439.89,5129.81 54421.85,19172.6 17187.31,24170.52 33340.33,49111.56 49139.32,74233.07 35277.02,56136.42 58739.51,56448.79 93162.72,90.24 14278.79,-23365.3 27731.54,-47272.04 41052.4,-71213.49 9530.77,-17138.72 21713.21,-29723.77 43065.46,-27530.24 22490.66,2304.6 28571.47,20005.58 29348.93,37699.63 1908.93,44071.98 2714.15,88275.86 1416.08,132340.9zm-392774.45 -497453.22c27891.2,-12765.53 35436.68,-37470.56 43093.22,-63612.48 13855.36,-47376.17 40316.6,-85207.68 87213.8,-105504.81 7309.47,-3165.35 15424.15,-4470.37 29765.42,-8482.59l0 137970.5c3318.07,277.66 6656.96,534.5 9975.03,791.34 1797.86,-6920.74 5053.46,-13841.48 5171.46,-20796.92 562.27,-32000.6 159.66,-64015.09 242.95,-96008.76 97.18,-28182.75 9579.36,-38345.19 37727.39,-40858.04 49764.06,-4456.48 63473.65,9627.95 60787.27,59232.36 -1395.25,25718.49 -236.01,51610.52 957.94,77370.66 326.25,7288.64 4859.09,14389.86 11328.63,21213.42 17360.85,-44092.81 3574.9,-90899.77 13806.77,-137665.08 31632.7,6865.21 56545.97,23358.36 73691.63,47285.93 16083.6,22462.9 27717.66,48653.41 38074.47,74503.79 8093.86,20193.01 15306.15,38602.03 35179.84,51235.68 8850.49,5636.55 17805.11,20061.12 17298.37,30001.43 -2304.6,44432.94 -3241.71,88657.64 -37713.51,125496.52 -25746.26,27509.41 -43711.02,62182.52 -65708.83,93273.78 -72456.03,102401.94 -205275.9,99194.93 -274434.69,-5796.21 -18797.75,-28557.59 -40316.6,-55338.14 -60703.97,-82833.67 -30056.97,-40531.79 -36977.71,-87553.93 -37123.48,-136068.52 -20.82,-7115.1 5469.95,-18061.95 11370.28,-20748.33zm526954.86 377843.15c24142.76,42891.92 42718.38,88914.48 63362.59,133756.98 1374.43,2984.87 173.54,7163.69 173.54,12862.72 -53158.49,-41.65 -98722.91,18193.84 -141760.6,57212.36l0 -244204.18c34353.79,-270.72 62786.44,12925.19 78224.47,40372.13zm-251714.95 -704422.86c-392080.3,0 -709941.4,317840.28 -709941.4,709934.46 0,392101.12 317861.11,709941.4 709941.4,709941.4 392094.18,0 709955.29,-317840.28 709955.29,-709941.4 0,-392094.18 -317861.11,-709934.46 -709955.29,-709934.46z"/>
  <g id="_2380068509280">
   <path class="fil1" d="M2002557.6 335652.33c0,-79550.31 -35131.25,-119332.41 -105400.69,-119332.41l-41809.03 0 0 241205.43 33694.35 0c75676.92,0 113515.38,-40615.08 113515.38,-121873.02zm81605.01 -2019.99c0,60967.75 -17381.67,107684.47 -52068.66,140101.56 -34721.7,32444.87 -84860.61,48660.36 -150402.84,48660.36l-104887.02 0 0 -370443.45 116298.94 0c60474.9,0 107434.57,15965.59 140885.96,47896.78 33437.51,31917.31 50173.62,76516.85 50173.62,133784.74z"/>
   <path class="fil1" d="M2226797.85 336665.8c0,41385.6 7864.79,72567.1 23573.55,93495.91 15701.82,20942.7 39185.12,31431.4 70442.98,31431.4 62675.37,0 94002.64,-41635.49 94002.64,-124927.31 0,-83437.59 -31174.56,-125170.26 -93495.91,-125170.26 -31243.97,0 -54831.41,10516.47 -70692.88,31549.4 -15889.24,21025.99 -23830.39,52242.2 -23830.39,93620.86zm270366.93 0c0,61314.83 -15202.02,108448.04 -45613.01,141392.69 -30397.1,32930.77 -73990.12,49403.1 -130737.4,49403.1 -56761.16,0 -100340.29,-16472.33 -130751.28,-49403.1 -30397.1,-32944.66 -45613.01,-80237.53 -45613.01,-141899.43 0,-61654.96 15243.67,-108746.52 45744.9,-141260.81 30494.29,-32514.28 74191.42,-48778.36 131126.12,-48778.36 56913.87,0 100451.36,16389.03 130619.39,49167.09 30140.27,32771.12 45224.28,79883.51 45224.28,141378.81z"/>
   <polygon class="fil1" points="2716844.42,522401.2 2638300.64,522401.2 2638300.64,217319.51 2537710.45,217319.51 2537710.45,151943.87 2817441.55,151943.87 2817441.55,217319.51 2716844.42,217319.51 "/>
   <path class="fil1" d="M3055627.4 368333.21c-24829.97,-79883.51 -38817.22,-125073.08 -41940.92,-135547.9 -3130.64,-10481.76 -5365.83,-18756.1 -6719.43,-24829.97 -5581.02,21616.03 -21532.73,75086.89 -47882.9,160377.87l96543.26 0zm45599.13 154074.93l-26856.91 -88185.62 -135048.11 0 -26856.91 88185.62 -84638.48 0 130744.34 -371977.53 96029.58 0 131258.01 371977.53 -84631.53 0z"/>
   <path class="fil1" d="M3389842.83 211995.33c-29564.12,0 -52457.39,11113.44 -68672.88,33319.5 -16215.49,22233.83 -24323.24,53186.25 -24323.24,92871.17 0,82604.6 30994.08,123906.9 92996.12,123906.9 26010.04,0 57503.91,-6504.24 94502.44,-19512.73l0 65875.43c-30397.1,12675.29 -64348.29,19012.94 -101853.55,19012.94 -53894.29,0 -95106.35,-16354.32 -123650.06,-49035.2 -28557.59,-32687.82 -42836.38,-79598.9 -42836.38,-140761.01 0,-38504.85 7010.98,-72240.85 21046.82,-101214.93 14008.07,-28967.14 34152.49,-51194.03 60433.25,-66652.89 26266.87,-15444.98 57052.71,-23184.82 92357.49,-23184.82 35978.12,0 72122.84,8718.6 108448.04,26107.22l-25343.65 63848.5c-13855.36,-6580.6 -27794.02,-12321.27 -41809.03,-17228.96 -14028.9,-4893.8 -27780.13,-7351.12 -41295.36,-7351.12z"/>
   <polygon class="fil1" points="3563145.89,151943.87 3641696.61,151943.87 3641696.61,522401.2 3563145.89,522401.2 "/>
   <path class="fil1" d="M3855045.55 102207.57l0 -6851.32c29050.44,-33777.65 48903.31,-59197.65 59544.73,-76266.95l86644.59 0 0 5324.18c-8767.19,8781.08 -23760.97,21838.16 -44960.5,39150.41 -21206.47,17326.14 -37796.81,30195.8 -49784.89,38643.68l-51443.92 0zm-54227.49 234465.17c0,41378.66 7864.79,72560.16 23566.61,93495.91 15694.87,20935.75 39192.06,31417.51 70442.98,31417.51 62668.43,0 94009.59,-41628.55 94009.59,-124913.42 0,-83451.47 -31167.62,-125177.2 -93502.85,-125177.2 -31250.92,0 -54824.46,10523.41 -70699.82,31549.4 -15875.35,21025.99 -23816.5,52235.26 -23816.5,93627.8zm270366.93 0c0,61307.88 -15202.02,108434.15 -45613.01,141392.69 -30397.1,32930.77 -73990.12,49396.16 -130744.34,49396.16 -56754.22,0 -100347.23,-16465.39 -130751.28,-49396.16 -30404.05,-32958.54 -45613.01,-80244.47 -45613.01,-141899.43 0,-61661.9 15250.61,-108753.47 45751.84,-141267.75 30480.4,-32521.22 74191.42,-48778.36 131119.18,-48778.36 56920.82,0 100458.3,16395.97 130626.33,49167.09 30140.27,32771.12 45224.28,79883.51 45224.28,141385.75z"/>
   <path class="fil1" d="M4476593.09 522401.2l-99833.56 0 -161141.44 -280244.78 -2290.72 0c3207,49500.29 4824.39,84805.07 4824.39,105907.43l0 174337.35 -70193.08 0 0 -370457.33 99069.99 0 160905.43 277468.15 1770.1 0c-2540.61,-48139.74 -3810.92,-82188.1 -3810.92,-102117.33l0 -175350.82 70699.82 0 0 370457.33z"/>
  </g>
  <g id="_2380068531696">
   <polygon class="fil1" points="2122979.83,1247482.15 1776797.15,1247482.15 1776797.15,646370.57 2122979.83,646370.57 2122979.83,750799.44 1904258.13,750799.44 1904258.13,882793.26 2107784.75,882793.26 2107784.75,987215.19 1904258.13,987215.19 1904258.13,1142220.29 2122979.83,1142220.29 "/>
   <path class="fil1" d="M2502905.45 1247482.15l-144738.53 -471595.9 -3692.91 0c5213.11,95939.34 7802.32,159933.61 7802.32,192017.51l0 279578.39 -113890.22 0 0 -601111.58 173518.25 0 142260.39 459684.18 2464.25 0 150888.75 -459684.18 173518.25 0 0 601111.58 -118832.62 0 0 -284520.78c0,-13424.98 187.42,-28911.61 617.8,-46459.88 402.61,-17534.39 2262.95,-64140.04 5560.19,-139803.08l-3713.74 0 -155012.04 470783.74 -116750.15 0z"/>
   <path class="fil1" d="M3169788.34 929253.14l41940.92 0c39185.12,0 68527.11,-7746.78 87984.31,-23226.47 19450.26,-15479.69 29196.21,-38046.71 29196.21,-67631.65 0,-29890.37 -8156.34,-51957.6 -24462.07,-66208.63 -16305.73,-14251.03 -41878.45,-21380.01 -76683.45,-21380.01l-57975.93 0 0 178446.76zm287818.02 -95397.9c0,64709.25 -20220.77,114181.77 -60648.44,148438.38 -40434.6,34249.67 -97924.63,51381.45 -172490.9,51381.45l-54678.69 0 0 213807.08 -127454.04 0 0 -601111.58 192010.57 0c72907.24,0 128356.44,15701.82 166305.96,47077.68 37977.29,31382.81 56955.52,78189.76 56955.52,140406.99z"/>
   <path class="fil1" d="M3698534.13 913211.19l41128.76 0c40288.83,0 70033.43,-6705.55 89192.14,-20137.47 19186.48,-13431.92 28800.54,-34541.22 28800.54,-63327.88 0,-28495.12 -9787.6,-48778.36 -29418.34,-60856.68 -19589.09,-12050.55 -49937.6,-18082.77 -91059.42,-18082.77l-38643.68 0 0 162404.81zm0 103616.71l0 230654.25 -127460.98 0 0 -601111.58 175163.4 0c81674.43,0 142107.68,14882.71 181313.62,44627.31 39199.01,29730.71 58801.98,74878.64 58801.98,135471.54 0,35346.44 -9725.13,66798.66 -29210.1,94356.66 -19450.26,27537.18 -47008.26,49139.32 -82632.36,64764.78 90434.68,135110.58 149389.38,222421.56 176787.72,261891.29l-141434.34 0 -143495.99 -230654.25 -67832.95 0z"/>
   <polygon class="fil1" points="4473143.14,1247482.15 4126953.51,1247482.15 4126953.51,646370.57 4473143.14,646370.57 4473143.14,750799.44 4254400.61,750799.44 4254400.61,882793.26 4457927.23,882793.26 4457927.23,987215.19 4254400.61,987215.19 4254400.61,1142220.29 4473143.14,1142220.29 "/>
   <path class="fil1" d="M4953374.34 1080558.39c0,54269.14 -19526.62,97022.22 -58579.85,128287.02 -39067.12,31237.03 -93398.73,46862.49 -163029.55,46862.49 -64140.04,0 -120873.43,-12064.44 -170221.01,-36193.31l0 -118395.3c40566.49,18082.77 74892.52,30841.36 102991.97,38234.13 28092.51,7399.71 53797.11,11099.56 77093,11099.56 27953.67,0 49423.93,-5351.94 64348.29,-16041.95 14931.3,-10683.07 22393.48,-26579.24 22393.48,-47688.54 0,-11793.72 -3276.42,-22261.59 -9857.02,-31459.16 -6580.6,-9176.75 -16243.26,-18020.3 -28987.97,-26516.77 -12744.71,-8489.53 -38713.1,-22074.17 -77905.16,-40712.27 -36734.75,-17270.61 -64278.87,-33840.12 -82653.19,-49729.36 -18353.49,-15889.24 -33021.01,-34402.39 -43995.63,-55511.68 -10953.79,-21123.18 -16430.68,-45779.61 -16430.68,-74010.94 0,-53165.43 18027.24,-94981.41 54060.89,-125392.39 36054.48,-30438.75 85874.07,-45647.72 149437.97,-45647.72 31278.68,0 61064.93,3692.91 89435.1,11099.56 28377.11,7392.76 58038.41,17825.93 89032.49,31237.03l-41135.7 99104.69c-32070.02,-13161.2 -58572.91,-22337.95 -79550.31,-27558 -20956.58,-5206.17 -41593.84,-7802.32 -61877.09,-7802.32 -24128.87,0 -42621.2,5629.61 -55511.68,16847.17 -12876.6,11238.39 -19318.37,25905.91 -19318.37,43995.63 0,11252.27 2603.09,21039.88 7816.2,29404.46 5192.29,8364.58 13487.46,16437.62 24864.68,24260.76 11370.28,7802.32 38303.54,21845.1 80785.91,42128.35 56205.83,26870.79 94717.63,53811 115563.14,80806.73 20810.81,26988.8 31230.09,60086.17 31230.09,99292.12z"/>
   <path class="fil1" d="M5356311.24 997502.59c-40295.77,-129654.51 -62973.86,-202964.36 -68062.02,-219978.13 -5039.57,-16972.12 -8676.95,-30404.05 -10877.43,-40281.89 -9051.8,35089.6 -34943.83,121852.2 -77710.8,260260.02l156650.25 0zm74017.89 249979.56l-43579.13 -143086.44 -219159.02 0 -43579.13 143086.44 -137331.88 0 212168.87 -603568.89 155831.15 0 212967.15 603568.89 -137318 0z"/>
   <path class="fil1" d="M5770743.37 913211.19l41128.76 0c40295.77,0 70040.37,-6705.55 89219.91,-20137.47 19165.66,-13431.92 28779.72,-34541.22 28779.72,-63327.88 0,-28495.12 -9787.6,-48778.36 -29404.46,-60856.68 -19602.97,-12050.55 -49951.49,-18082.77 -91080.25,-18082.77l-38643.68 0 0 162404.81zm0 103616.71l0 230654.25 -127454.04 0 0 -601111.58 175163.4 0c81674.43,0 142107.68,14882.71 181320.56,44627.31 39192.06,29730.71 58795.04,74878.64 58795.04,135471.54 0,35346.44 -9725.13,66798.66 -29196.21,94356.66 -19464.14,27537.18 -47022.15,49139.32 -82653.19,64764.78 90455.51,135110.58 149396.32,222421.56 176787.72,261891.29l-141406.58 0 -143495.99 -230654.25 -67860.72 0z"/>
   <polygon class="fil1" points="6199169.69,646377.51 6326630.67,646377.51 6326630.67,1247489.09 6199169.69,1247489.09 "/>
   <path class="fil1" d="M6771904.17 997502.59c-40295.77,-129654.51 -62973.86,-202964.36 -68055.08,-219978.13 -5053.46,-16972.12 -8683.9,-30404.05 -10884.37,-40281.89 -9044.86,35089.6 -34943.83,121852.2 -77696.91,260260.02l156636.37 0zm74024.83 249979.56l-43586.07 -143086.44 -219152.08 0 -43579.13 143086.44 -137331.88 0 212161.93 -603568.89 155838.09 0 212960.21 603568.89 -137311.06 0z"/>
   <polygon class="fil1" points="7058896.14,1247482.15 7058896.14,646370.57 7186343.24,646370.57 7186343.24,1142220.29 7430172.58,1142220.29 7430172.58,1247482.15 "/>
  </g>
 </g>
</svg>
