<?xml version="1.0" encoding="UTF-8"?>
<!DOCTYPE svg PUBLIC "-//W3C//DTD SVG 1.1//EN" "http://www.w3.org/Graphics/SVG/1.1/DTD/svg11.dtd">
<!-- Creator: CorelDRAW 2021 (64-Bit) -->
<svg xmlns="http://www.w3.org/2000/svg" xml:space="preserve" width="92.6276mm" height="20.4549mm" version="1.1" style="shape-rendering:geometricPrecision; text-rendering:geometricPrecision; image-rendering:optimizeQuality; fill-rule:evenodd; clip-rule:evenodd"
viewBox="0 0 3864.81 853.46"
 xmlns:xlink="http://www.w3.org/1999/xlink"
 xmlns:xodm="http://www.corel.com/coreldraw/odm/2003">
 <defs>
  <style type="text/css">
   <![CDATA[
    .fil1 {fill:#FEFEFE;fill-rule:nonzero}
    .fil0 {fill:#373435;fill-rule:nonzero}
   ]]>
  </style>
 </defs>
 <g id="Capa_x0020_1">
  <metadata id="CorelCorpID_0Corel-Layer"/>
  <path class="fil0" d="M274.5 254.93c-18.02,18.8 -40.38,18.58 -59.03,0.69 -20.72,-19.87 -18.36,-42.54 -2.32,-59.26 7.16,-7.46 14.51,-11.81 20.42,-14.37l-12.61 -20.32c-5.51,1.88 -15.68,8.05 -26.15,18.96 -27.03,28.2 -31.08,67.82 0.71,98.3 26.54,25.44 62.47,28.08 93.35,-4.12 10.86,-11.34 17.14,-22.03 18.92,-27.75l-19.49 -12.6c-2.32,5.74 -7.7,14.11 -13.79,20.47z"/>
  <path class="fil0" d="M578.55 219.92c12.08,-10.66 26.6,-24.3 39.5,-36.04l0.27 0.27c-9.78,14.05 -19.71,30.14 -27.46,43.79l-25.71 45.02 16.07 16.16 46.77 -24.38c14.23,-7.13 31.05,-16.3 45.55,-25.06l0.41 0.4c-13.31,13.23 -26.2,26.87 -36.79,38.22l-33.67 36.2 20.12 20.23 86.5 -96.04 -26.87 -27.02 -40.13 20.47c-13.15,7.14 -28.34,16.03 -41.49,23.99l-0.4 -0.41c8.7,-12.7 17.27,-26.9 25.02,-40.28l21.63 -39.34 -27.41 -27.56 -97.3 85.18 19.04 19.14 36.38 -32.94z"/>
  <path class="fil0" d="M229.9 605.75l-84 20.31 22.36 23.92 31.56 -11.66c9.33,-3.48 16.87,-6.34 24.71,-9.73l0.27 0.28c-3.93,8.13 -7.14,14.8 -11.25,24.14l-13.64 30.83 22.74 24.34 27.83 -81.83 38.62 -36.07 -19.87 -21.27 -39.31 36.73z"/>
  <path class="fil0" d="M590.78 556.4l29.96 29.62 1.86 17.45 -61.83 -16.71 -23.96 24.23 84.32 20.11 9.06 68.99 25.18 -25.46 -9.9 -50.98c-1.26,-5.27 -2.37,-10.68 -3.89,-16.23l0.4 -0.4 40.58 40.12 20.32 -20.57 -91.78 -90.74 -20.32 20.57z"/>
  <path class="fil0" d="M752.54 651.01l-98.97 98.97c-8.19,8.19 -21.59,8.19 -29.78,0l-134.34 -134.34c-8.19,-8.19 -8.19,-21.59 0,-29.78l35.06 -35.06 -68.76 -71.83c0,0 -40.86,-9.71 -54.71,3.79 -11.19,10.92 -54.25,53.75 -70.36,69.78l33.33 33.32c8.19,8.19 8.19,21.59 0,29.78l-134.34 134.34c-8.19,8.19 -21.6,8.19 -29.78,0l-98.97 -98.97c-8.19,-8.19 -8.19,-21.59 0,-29.77l134.34 -134.35c8.19,-8.19 21.59,-8.19 29.78,0l40.7 40.7 66.05 -59.57c0,0 19.13,-30.58 9.13,-58.33 -8.29,-23.03 -59.9,-67.31 -77.25,-81.73l-38.63 38.62c-8.19,8.19 -21.59,8.19 -29.78,0l-134.34 -134.34c-8.19,-8.19 -8.19,-21.59 0,-29.77l98.97 -98.97c8.18,-8.19 21.58,-8.19 29.78,0l134.34 134.34c8.19,8.19 8.19,21.59 0,29.78l-37.07 37.07 61.22 62.75c0,0 18.47,14.95 42.48,14.73 24.01,-0.23 11.04,8.59 49.73,-24.89 28.17,-24.38 43.61,-41.37 49.95,-48.8l-40.86 -40.86c-8.19,-8.19 -8.19,-21.6 0,-29.78l134.34 -134.34c8.19,-8.19 21.59,-8.19 29.78,0l98.97 98.97c8.19,8.19 8.19,21.59 0,29.77l-134.34 134.34c-8.19,8.19 -21.59,8.19 -29.78,0l-35.49 -35.49 -73.98 75.07c0,0 -14.5,37.82 3.85,57.12 15.28,16.06 52.62,52.67 64.72,64.51l40.89 -40.91c8.19,-8.19 21.6,-8.19 29.78,0l134.34 134.35c8.19,8.19 8.19,21.58 0,29.77zm-325.81 -651.01c-235.67,0 -426.73,191.05 -426.73,426.73 0,235.68 191.06,426.73 426.73,426.73 235.67,0 426.73,-191.05 426.73,-426.73 0,-235.67 -191.06,-426.73 -426.73,-426.73z"/>
  <path class="fil0" d="M429.54 420.3c-0.35,0 -0.69,0.02 -1.03,0.05 -0.36,-0.01 -0.71,-0.05 -1.07,-0.05 -6.01,0.2 -7.68,4.34 -7.59,9.51 0,0.06 -0.01,0.12 -0.01,0.17 0,0.16 0.02,0.32 0.03,0.48l0 0c0.02,0.36 0.05,0.72 0.12,1.08 0,0.13 0.03,0.25 0.05,0.36 0.03,0.1 0.05,0.2 0.07,0.28 0.08,0.36 0.18,0.7 0.3,1.01 1.32,3.78 4.91,6.49 9.14,6.49 2.19,0 4.21,-0.74 5.84,-1.98 2.56,-1.3 4.09,-3.39 3.8,-6.84 0.03,-0.29 0.05,-0.58 0.05,-0.88 0,-5.35 -4.34,-9.68 -9.68,-9.68z"/>
  <g id="_2379702187312">
   <polygon class="fil1" points="1200.05,601.42 1022.97,601.42 1022.97,252.76 1200.05,252.76 1200.05,313.34 1088.16,313.34 1088.16,389.89 1192.26,389.89 1192.26,450.46 1088.16,450.46 1088.16,540.37 1200.05,540.37 "/>
   <path class="fil1" d="M1445.68 504.6c0,31.48 -9.99,56.28 -29.97,74.41 -19.97,18.12 -47.77,27.18 -83.38,27.18 -32.81,0 -61.84,-6.99 -87.07,-20.98l0 -68.68c20.75,10.49 38.31,17.89 52.69,22.18 14.37,4.29 27.51,6.43 39.43,6.43 14.3,0 25.27,-3.1 32.91,-9.3 7.64,-6.2 11.46,-15.41 11.46,-27.66 0,-6.84 -1.68,-12.92 -5.04,-18.25 -3.37,-5.33 -8.32,-10.45 -14.83,-15.38 -6.53,-4.92 -19.81,-12.79 -39.85,-23.61 -18.79,-10.01 -32.88,-19.63 -42.27,-28.86 -9.4,-9.22 -16.9,-19.95 -22.5,-32.19 -5.6,-12.24 -8.41,-26.55 -8.41,-42.93 0,-30.84 9.21,-55.1 27.65,-72.73 18.43,-17.65 43.92,-26.47 76.44,-26.47 15.99,0 31.23,2.15 45.75,6.44 14.51,4.29 29.68,10.34 45.52,18.12l-21.02 57.48c-16.41,-7.63 -29.97,-12.96 -40.69,-15.98 -10.72,-3.02 -21.28,-4.53 -31.66,-4.53 -12.33,0 -21.8,3.26 -28.39,9.78 -6.58,6.52 -9.88,15.02 -9.88,25.51 0,6.52 1.34,12.2 3.99,17.05 2.67,4.85 6.91,9.53 12.73,14.07 5.82,4.53 19.59,12.68 41.32,24.45 28.74,15.58 48.44,31.2 59.09,46.86 10.66,15.66 15.99,34.86 15.99,57.59z"/>
   <polygon class="fil1" points="1620.02,601.42 1554.83,601.42 1554.83,314.29 1471.34,314.29 1471.34,252.76 1703.51,252.76 1703.51,314.29 1620.02,314.29 "/>
   <path class="fil1" d="M1901.2 456.43c-20.61,-75.21 -32.21,-117.74 -34.81,-127.59 -2.59,-9.86 -4.45,-17.65 -5.57,-23.37 -4.62,20.35 -17.87,70.68 -39.75,150.96l80.13 0zm37.86 144.99l-22.3 -82.99 -112.09 0 -22.29 82.99 -70.25 0 108.52 -350.09 79.7 0 108.94 350.09 -70.24 0z"/>
   <path class="fil1" d="M2178.16 601.42l-74.03 -273.54 -1.89 0c2.66,55.65 4,92.77 4,111.37l0 162.17 -58.26 0 0 -348.66 88.74 0 72.77 266.63 1.26 0 77.18 -266.63 88.75 0 0 348.66 -60.78 0 0 -165.03c0,-7.79 0.1,-16.77 0.31,-26.95 0.21,-10.17 1.16,-37.2 2.84,-81.09l-1.9 0 -79.28 273.06 -59.74 0z"/>
   <path class="fil1" d="M2519.28 416.83l21.45 0c20.05,0 35.05,-4.49 45,-13.48 9.96,-8.97 14.93,-22.06 14.93,-39.22 0,-17.33 -4.17,-30.13 -12.51,-38.39 -8.34,-8.27 -21.42,-12.4 -39.22,-12.4l-29.66 0 0 103.5zm147.21 -55.33c0,37.53 -10.33,66.22 -31.01,86.09 -20.68,19.88 -50.09,29.81 -88.22,29.81l-27.98 0 0 124.01 -65.19 0 0 -348.66 98.21 0c37.28,0 65.64,9.1 85.06,27.31 19.42,18.2 29.12,45.35 29.12,81.44z"/>
   <path class="fil1" d="M2874.91 456.43c-20.61,-75.21 -32.21,-117.74 -34.81,-127.59 -2.6,-9.86 -4.45,-17.65 -5.57,-23.37 -4.62,20.35 -17.87,70.68 -39.75,150.96l80.13 0zm37.86 144.99l-22.3 -82.99 -112.08 0 -22.29 82.99 -70.25 0 108.52 -350.09 79.7 0 108.94 350.09 -70.23 0z"/>
   <path class="fil1" d="M3209.08 425.66c0,-74.89 -29.17,-112.32 -87.49,-112.32l-34.69 0 0 227.03 27.97 0c62.81,0 94.22,-38.24 94.22,-114.71zm67.71 -1.9c0,57.4 -14.4,101.35 -43.21,131.87 -28.81,30.53 -70.42,45.79 -124.82,45.79l-87.06 0 0 -348.66 96.53 0c50.19,0 89.16,15.02 116.92,45.07 27.76,30.05 41.64,72.02 41.64,125.92z"/>
   <path class="fil1" d="M3395.2 426.61c0,38.96 6.53,68.29 19.56,88 13.04,19.72 32.53,29.58 58.47,29.58 52,0 78.02,-39.2 78.02,-117.57 0,-78.53 -25.87,-117.81 -77.61,-117.81 -25.93,0 -45.5,9.9 -58.68,29.69 -13.18,19.79 -19.76,49.17 -19.76,88.12zm224.39 0c0,57.71 -12.62,102.07 -37.86,133.07 -25.23,31.01 -61.4,46.5 -108.5,46.5 -47.11,0 -83.29,-15.5 -108.52,-46.5 -25.24,-31 -37.86,-75.52 -37.86,-133.55 0,-58.03 12.65,-102.35 37.96,-132.95 25.3,-30.6 61.58,-45.9 108.83,-45.9 47.25,0 83.39,15.42 108.42,46.26 25.03,30.85 37.54,75.21 37.54,133.07z"/>
   <path class="fil1" d="M3864.81 504.6c0,31.48 -9.99,56.28 -29.97,74.41 -19.98,18.12 -47.77,27.18 -83.38,27.18 -32.81,0 -61.83,-6.99 -87.07,-20.98l0 -68.68c20.75,10.49 38.31,17.89 52.68,22.18 14.37,4.29 27.51,6.43 39.43,6.43 14.31,0 25.28,-3.1 32.91,-9.3 7.64,-6.2 11.46,-15.41 11.46,-27.66 0,-6.84 -1.69,-12.92 -5.04,-18.25 -3.37,-5.33 -8.32,-10.45 -14.83,-15.38 -6.52,-4.92 -19.81,-12.79 -39.85,-23.61 -18.79,-10.01 -32.88,-19.63 -42.27,-28.86 -9.39,-9.22 -16.89,-19.95 -22.5,-32.19 -5.61,-12.24 -8.42,-26.55 -8.42,-42.93 0,-30.84 9.22,-55.1 27.65,-72.73 18.43,-17.65 43.91,-26.47 76.45,-26.47 15.98,0 31.23,2.15 45.74,6.44 14.51,4.29 29.68,10.34 45.53,18.12l-21.02 57.48c-16.41,-7.63 -29.97,-12.96 -40.69,-15.98 -10.73,-3.02 -21.28,-4.53 -31.66,-4.53 -12.34,0 -21.8,3.26 -28.4,9.78 -6.58,6.52 -9.88,15.02 -9.88,25.51 0,6.52 1.33,12.2 3.99,17.05 2.67,4.85 6.91,9.53 12.72,14.07 5.82,4.53 19.59,12.68 41.33,24.45 28.73,15.58 48.44,31.2 59.09,46.86 10.66,15.66 15.99,34.86 15.99,57.59z"/>
  </g>
 </g>
</svg>
