<?xml version="1.0" encoding="UTF-8"?>
<!DOCTYPE svg PUBLIC "-//W3C//DTD SVG 1.1//EN" "http://www.w3.org/Graphics/SVG/1.1/DTD/svg11.dtd">
<!-- Creator: CorelDRAW 2021 (64-Bit) -->
<svg xmlns="http://www.w3.org/2000/svg" xml:space="preserve" width="59.1mm" height="20.4548mm" version="1.1" style="shape-rendering:geometricPrecision; text-rendering:geometricPrecision; image-rendering:optimizeQuality; fill-rule:evenodd; clip-rule:evenodd"
viewBox="0 0 1558.42 539.38"
 xmlns:xlink="http://www.w3.org/1999/xlink"
 xmlns:xodm="http://www.corel.com/coreldraw/odm/2003">
 <defs>
  <style type="text/css">
   <![CDATA[
    .str0 {stroke:#FEFEFE;stroke-width:5.27;stroke-miterlimit:22.9256}
    .fil0 {fill:#FEFEFE;fill-rule:nonzero}
    .fil1 {fill:#373435;fill-rule:nonzero}
   ]]>
  </style>
 </defs>
 <g id="Capa_x0020_1">
  <metadata id="CorelCorpID_0Corel-Layer"/>
  <g id="_2380108999152">
   <g>
    <path class="fil0" d="M771.92 165.36l91.11 0 0 119.07c-14.77,4.82 -28.67,8.19 -41.71,10.13 -13.04,1.94 -26.37,2.91 -39.98,2.91 -34.66,0 -61.13,-10.18 -79.41,-30.55 -18.28,-20.36 -27.41,-49.61 -27.41,-87.73 0,-37.07 10.6,-65.97 31.81,-86.71 21.21,-20.74 50.6,-31.11 88.2,-31.11 23.57,0 46.29,4.71 68.18,14.14l-16.18 38.96c-16.76,-8.37 -34.19,-12.57 -52.31,-12.57 -21.05,0 -37.91,7.07 -50.58,21.21 -12.68,14.14 -19.01,33.14 -19.01,57.02 0,24.93 5.11,43.96 15.32,57.1 10.22,13.15 25.06,19.72 44.53,19.72 10.16,0 20.48,-1.05 30.94,-3.15l0 -47.91 -43.51 0 0 -40.53z"/>
    <path class="fil0" d="M966.39 166.61l15.71 0c15.39,0 26.76,-2.56 34.08,-7.69 7.33,-5.13 11,-13.2 11,-24.19 0,-10.89 -3.75,-18.64 -11.24,-23.26 -7.49,-4.6 -19.09,-6.91 -34.79,-6.91l-14.77 0 0 62.05zm0 39.59l0 88.12 -48.7 0 0 -229.66 66.92 0c31.21,0 54.3,5.69 69.28,17.05 14.97,11.37 22.46,28.62 22.46,51.76 0,13.51 -3.72,25.53 -11.15,36.05 -7.44,10.52 -17.96,18.77 -31.57,24.74 34.56,51.63 57.07,84.98 67.55,100.06l-54.04 0 -54.82 -88.12 -25.92 0z"/>
    <path class="fil0" d="M1242.39 198.82c-15.39,-49.54 -24.06,-77.54 -26,-84.04 -1.94,-6.49 -3.33,-11.62 -4.16,-15.39 -3.46,13.4 -13.35,46.55 -29.69,99.44l59.85 0zm28.28 95.51l-16.65 -54.67 -83.73 0 -16.65 54.67 -52.47 0 81.06 -230.6 59.53 0 81.38 230.6 -52.46 0z"/>
    <path class="fil0" d="M1555.78 294.33l-61.9 0 -99.9 -173.74 -1.42 0c1.99,30.68 2.98,52.57 2.98,65.66l0 108.08 -43.51 0 0 -229.66 61.42 0 99.75 172.01 1.1 0c-1.57,-29.85 -2.36,-50.95 -2.36,-63.31l0 -108.7 43.83 0 0 229.66z"/>
   </g>
   <g>
    <polygon class="fil0 str0" points="696.03,476.2 674.52,476.2 674.52,343.54 749.38,343.54 749.38,361.87 696.03,361.87 696.03,403.34 746.02,403.34 746.02,421.76 696.03,421.76 "/>
    <path class="fil0 str0" d="M789.94 409.69c0,16.34 3.3,28.72 9.89,37.16 6.59,8.44 16.36,12.66 29.31,12.66 12.89,0 22.61,-4.17 29.17,-12.52 6.56,-8.35 9.84,-20.78 9.84,-37.29 0,-16.27 -3.25,-28.61 -9.75,-37.02 -6.5,-8.41 -16.2,-12.61 -29.08,-12.61 -13.01,0 -22.82,4.21 -29.45,12.61 -6.62,8.41 -9.94,20.75 -9.94,37.02zm101.27 0c0,21.6 -5.4,38.38 -16.2,50.36 -10.8,11.98 -26.09,17.97 -45.87,17.97 -20.02,0 -35.4,-5.94 -46.14,-17.83 -10.74,-11.89 -16.11,-28.78 -16.11,-50.68 0,-21.9 5.4,-38.71 16.2,-50.45 10.8,-11.74 26.21,-17.61 46.23,-17.61 19.72,0 34.97,5.96 45.73,17.88 10.77,11.92 16.15,28.7 16.15,50.36z"/>
    <path class="fil0 str0" d="M941.39 405.24l15.06 0c10.1,0 17.42,-1.87 21.96,-5.62 4.54,-3.75 6.81,-9.32 6.81,-16.7 0,-7.5 -2.45,-12.88 -7.35,-16.15 -4.9,-3.27 -12.28,-4.9 -22.14,-4.9l-14.34 0 0 43.37zm0 17.97l0 52.99 -21.69 0 0 -132.66 37.47 0c17.12,0 29.79,3.21 38.02,9.62 8.23,6.41 12.34,16.09 12.34,29.04 0,16.52 -8.59,28.28 -25.77,35.3l37.48 58.71 -24.68 0 -31.76 -52.99 -21.41 0z"/>
    <path class="fil0 str0" d="M1095.83 476.2l-38.47 -110.8 -0.73 0c1.03,16.46 1.54,31.89 1.54,46.28l0 64.52 -19.69 0 0 -132.66 30.58 0 36.84 105.53 0.55 0 37.93 -105.53 30.67 0 0 132.66 -20.87 0 0 -65.61c0,-6.59 0.17,-15.18 0.5,-25.77 0.33,-10.58 0.62,-17 0.86,-19.23l-0.73 0 -39.83 110.61 -19.15 0z"/>
    <path class="fil0 str0" d="M1273.31 420.67l-12.43 -36.12c-0.91,-2.42 -2.16,-6.23 -3.77,-11.44 -1.61,-5.2 -2.71,-9.01 -3.31,-11.43 -1.63,7.44 -4.02,15.58 -7.17,24.41l-11.98 34.57 38.66 0zm18.96 55.53l-13.25 -36.84 -50.72 0 -12.97 36.84 -22.87 0 49.63 -133.21 23.59 0 49.63 133.21 -23.05 0z"/>
    <polygon class="fil0 str0" points="1378.66,476.2 1356.97,476.2 1356.97,362.14 1317.96,362.14 1317.96,343.54 1417.68,343.54 1417.68,362.14 1378.66,362.14 "/>
    <path class="fil0 str0" d="M1454.52 409.69c0,16.34 3.3,28.72 9.89,37.16 6.59,8.44 16.36,12.66 29.31,12.66 12.89,0 22.61,-4.17 29.17,-12.52 6.56,-8.35 9.84,-20.78 9.84,-37.29 0,-16.27 -3.25,-28.61 -9.75,-37.02 -6.5,-8.41 -16.2,-12.61 -29.08,-12.61 -13.01,0 -22.82,4.21 -29.44,12.61 -6.62,8.41 -9.94,20.75 -9.94,37.02zm101.27 0c0,21.6 -5.4,38.38 -16.2,50.36 -10.8,11.98 -26.09,17.97 -45.87,17.97 -20.02,0 -35.4,-5.94 -46.14,-17.83 -10.74,-11.89 -16.11,-28.78 -16.11,-50.68 0,-21.9 5.4,-38.71 16.2,-50.45 10.8,-11.74 26.21,-17.61 46.23,-17.61 19.72,0 34.97,5.96 45.73,17.88 10.77,11.92 16.15,28.7 16.15,50.36z"/>
   </g>
  </g>
  <g id="_2380108951536">
   <path class="fil1" d="M382.06 114.8c-1.92,-0.14 -3.85,-0.13 -5.77,-0.13 -21.04,0.03 -42.08,0.08 -63.13,0.09 -19.25,0.01 -38.49,-0.05 -57.74,-0.04 -19.25,0 -38.5,0.03 -57.74,0.06 -13.47,0.02 -26.94,0.02 -40.42,0.11 -4.41,0.03 -6.96,2.17 -7.55,6.56 -0.37,2.76 -0.07,5.6 -0.07,8.69l240.19 0c0,-2.68 0.11,-5.12 -0.03,-7.53 -0.28,-4.8 -2.94,-7.44 -7.76,-7.81z"/>
   <path class="fil1" d="M360.54 208.75c-0.28,3.2 -2.8,5.6 -6.2,5.65 -7.44,0.12 -14.88,0.07 -22.32,0.07 -20.78,0.01 -41.56,0 -62.34,0 -26.55,0 -53.11,0 -79.66,0 -1.41,0 -2.83,0.01 -4.23,-0.05 -4.34,-0.18 -7.09,-2.7 -7.07,-6.44 0.01,-3.72 2.78,-6.51 6.99,-6.66 4.35,-0.15 8.72,-0.05 13.08,-0.05 50.68,0.01 101.37,0.01 152.04,0.06 1.76,0 3.59,0.2 5.27,0.7 3.25,0.96 4.74,3.36 4.45,6.72zm13.13 -7.59c-3.76,-6.3 -8.99,-11.71 -13.4,-17.65 -1.48,-2 -3.16,-2.56 -5.52,-2.54 -12.45,0.13 -24.9,0.17 -37.35,0.16 -42.1,-0.03 -84.19,0.04 -126.29,-0.26 -6.72,-0.05 -11.55,1.46 -16.22,6.75 -8.94,10.14 -14.57,21.37 -14.77,34.89 -0.26,16.94 -0.02,33.88 -0.03,50.83 -0.03,28.37 -0.07,56.73 -0.12,85.09 -0,3.54 0,7.07 0,10.72l219.33 0c0,-16.15 0,-31.93 0,-47.71 -0.02,-30.67 -0.13,-61.35 0,-92.02 0.04,-9.87 -0.52,-19.69 -5.64,-28.26z"/>
   <path class="fil1" d="M439.44 246.59c-2.89,0.62 -3.39,1.68 -3.39,4.25 0.05,44.3 0.33,88.61 -0.21,132.9 -0.12,10.1 3.28,18.84 5.93,28.05 0.8,2.8 1.75,5.75 1.62,8.58 -0.25,4.97 -4.68,9.11 -9.47,9.73 -5.59,0.74 -10.36,-1.65 -12.36,-6.97 -2.75,-7.28 -5,-14.75 -7.43,-22.15 -6.12,-18.56 -12.26,-37.12 -18.33,-55.7 -2.51,-7.69 0.87,-14.6 8.06,-15.77 2.86,-0.46 5.95,0.51 9.08,0.85l0 -82.51 -20.28 0 0 134.31 -245.88 0 0 -134.43 -27.29 0 0 89c11.19,1.86 14.6,7.63 11.06,18.29 -8.13,24.47 -16.18,48.96 -24.27,73.45 -2.15,6.52 -5.7,9.49 -11.39,9.55 -7.93,0.09 -13.28,-6.53 -10.96,-14.15 3.68,-12.1 7.76,-24.08 11.64,-36.11 0.38,-1.18 0.68,-2.46 0.68,-3.69 0.04,-45.33 0.03,-90.66 0.03,-135.99 0,-0.64 -0.06,-1.28 -0.11,-2.19 -7.7,-3.02 -14.27,-7.6 -18.68,-14.93 -3.25,-5.4 -5.11,-11.18 -5.14,-17.46 -0.09,-15.4 -0.12,-30.81 -0.01,-46.22 0.08,-12.15 3.91,-22.62 14.11,-30.09 6.22,-4.56 13.27,-6.57 20.83,-6.71 9.49,-0.18 18.99,-0.04 29.08,-0.04 0,-2.4 -0.02,-4.65 0,-6.89 0.13,-13.55 8.23,-21.79 21.83,-21.9 14.37,-0.12 28.75,-0.03 43.12,-0.07 19.25,-0.04 38.51,-0.17 57.76,-0.16 27.98,0.01 55.96,0.13 83.94,0.16 12.19,0.01 24.39,-0.21 36.58,-0.13 11.83,0.08 19.18,4.83 22.09,14.22 0.79,2.52 1.02,5.24 1.27,7.9 0.2,2.13 0.04,4.3 0.04,6.87 9.41,0 18.49,-0.04 27.57,0.01 14.71,0.08 26.26,5.99 32.65,19.49 2.38,5.03 3.47,11.05 3.64,16.67 0.48,15.65 0.3,31.33 0.13,46.99 -0.17,16.06 -11.39,29.58 -27.5,33.03zm-169.75 -246.59c-148.94,0 -269.69,120.74 -269.69,269.69 0,148.94 120.74,269.69 269.69,269.69 148.94,0 269.69,-120.74 269.69,-269.69 0,-148.95 -120.74,-269.69 -269.69,-269.69z"/>
  </g>
 </g>
</svg>
