<?xml version="1.0" encoding="UTF-8"?>
<!DOCTYPE svg PUBLIC "-//W3C//DTD SVG 1.1//EN" "http://www.w3.org/Graphics/SVG/1.1/DTD/svg11.dtd">
<!-- Creator: CorelDRAW 2021 (64-Bit) -->
<svg xmlns="http://www.w3.org/2000/svg" xml:space="preserve" width="84.8503mm" height="20.4549mm" version="1.1" style="shape-rendering:geometricPrecision; text-rendering:geometricPrecision; image-rendering:optimizeQuality; fill-rule:evenodd; clip-rule:evenodd"
viewBox="0 0 4668984.05 1125554.09"
 xmlns:xlink="http://www.w3.org/1999/xlink"
 xmlns:xodm="http://www.corel.com/coreldraw/odm/2003">
 <defs>
  <style type="text/css">
   <![CDATA[
    .fil1 {fill:#FEFEFE;fill-rule:nonzero}
    .fil0 {fill:#373435;fill-rule:nonzero}
   ]]>
  </style>
 </defs>
 <g id="Capa_x0020_1">
  <metadata id="CorelCorpID_0Corel-Layer"/>
  <path class="fil0" d="M563258.52 297058.59c24316.05,-165.08 43151.49,-19336.18 43057.95,-43850.33 -93.54,-23996.9 -19886.45,-43822.81 -43635.72,-43696.25 -23936.37,121.06 -43630.22,19836.92 -43729.27,43762.29 -82.54,24343.56 19743.38,43943.87 44307.04,43784.3z"/>
  <path class="fil0" d="M534303.77 321369.14l0 563021.91 57458.29 0 0 -562911.86c-19231.63,7175.41 -38270.68,7676.15 -57458.29,-110.05z"/>
  <polygon class="fil0" points="328401.48,972641.96 796657.38,972641.96 796657.38,915376.26 328401.48,915376.26 "/>
  <path class="fil0" d="M592158.25 185856.27c0,-7571.6 264.13,-13580.45 -60.53,-19567.29 -517.25,-9370.95 -5854.78,-15060.65 -15077.16,-15489.86 -9436.98,-451.21 -18917.99,-374.18 -28360.47,-22.01 -7676.15,286.14 -13514.42,4308.55 -14592.93,12034.22 -995.97,7158.9 -214.6,14559.92 -214.6,22824.84 19699.36,-7615.62 38424.75,-7615.62 58305.69,220.1z"/>
  <path class="fil0" d="M244624.19 238939.99c-2564.22,0 -5183.46,115.55 -7687.15,616.29 -8088.84,1661.79 -12606.49,8358.47 -11351.89,16485.83 1194.07,7725.67 6927.79,11715.06 17267.2,11715.06 80277.63,27.51 160544.25,16.51 240816.38,-5.5 2206.55,0 4396.59,-352.17 6052.87,-495.24l0 -27980.79c-2322.1,-126.56 -4589.18,-346.66 -6850.75,-346.66 -79413.72,-27.51 -158832.94,-27.51 -238246.66,11.01z"/>
  <path class="fil0" d="M327691.64 563698.73c-1364.65,10410.94 2712.79,16749.96 12023.21,22467.17 11693.05,7191.92 17195.67,19391.21 17316.72,34044.67l-28811.68 0c-2289.09,-7753.18 -6118.91,-14152.72 -15660.44,-13707.01 -7648.63,357.67 -12182.79,4523.15 -13448.39,11979.19 -1260.1,7379 2916.39,13998.65 9970.74,15792.5 3312.57,852.91 6801.23,995.97 10196.34,1535.23 18521.8,2899.88 30913.68,13475.9 36108.15,31232.83 5210.97,17795.45 682.32,34011.65 -13800.55,45627.67 -8407.99,6746.2 -18257.67,11230.83 -12430.4,25466.1l-29543.53 0c-594.28,-830.89 -1227.08,-1309.62 -1177.56,-1705.81 1199.57,-10163.33 -2107.5,-16639.9 -11720.57,-22307.6 -12078.24,-7109.38 -17245.19,-19831.42 -17982.54,-35013.13 9123.33,0 17393.76,-264.13 25631.17,198.09 1766.34,99.05 4071.93,2454.17 4974.36,4330.56 4066.43,8352.97 9948.73,11775.59 17701.91,9409.47 7263.45,-2223.06 10697.08,-7340.49 10245.87,-14890.07 -478.73,-7841.22 -5898.8,-12435.91 -15181.71,-13112.73 -22065.48,-1601.26 -37703.91,-14890.07 -42419.65,-36020.11 -4093.94,-18345.71 5299.02,-37280.21 23017.43,-47685.65 2520.2,-1480.2 4325.05,-5183.46 5183.46,-8226.41 874.92,-3141.99 198.09,-6724.19 198.09,-10647.56l28723.64 0c264.13,346.66 935.44,841.9 885.92,1232.59zm44725.24 72100.74l28520.05 0 0 28646.61 -28520.05 0 0 -28646.61zm-118168.62 28767.66l-29560.04 0c0,-8584.08 -159.58,-17069.11 170.58,-25543.13 44.02,-1320.63 2250.57,-3593.21 3538.18,-3642.73 8457.52,-324.65 16931.54,-170.58 25851.28,-170.58l0 29356.44zm-43949.37 -14202.25c269.63,55923.06 46524.6,102211.05 102431.15,102497.18 56451.31,286.14 102629.24,-45875.29 102700.78,-102667.76 60.53,-57007.08 -45484.6,-102574.22 -102453.16,-102497.18 -56770.46,71.53 -102953.9,46254.97 -102678.77,102667.76z"/>
  <path class="fil0" d="M899891.91 576459.29l-28261.42 0 0 -29224.38 28261.42 0 0 29224.38zm-87959.28 -29736.12c25466.1,2822.84 40180.08,15484.35 44180.48,38045.07 2921.89,16480.33 -4710.24,34886.57 -19891.95,43278.06 -7307.47,4038.92 -9756.13,8540.06 -8666.62,16122.66 231.11,1601.26 -291.64,3301.57 -511.74,5414.57l-28294.44 0c-456.72,-632.8 -1122.53,-1144.54 -1062,-1535.23 1524.22,-10432.96 -2597.23,-16656.41 -11962.68,-22274.58 -11869.14,-7131.39 -16595.88,-19776.39 -17701.91,-34116.2l29312.42 0c2234.06,6867.26 5337.54,13536.43 14493.88,13778.54 7885.25,192.59 14048.17,-4935.84 14736,-12474.42 759.36,-8341.96 -4148.97,-14097.7 -12199.29,-15869.54 -8540.06,-1870.89 -17800.95,-3108.98 -25146.94,-7368 -26120.91,-15165.2 -28085.34,-52615.99 -4484.63,-71473.45 11742.58,-9381.96 11742.58,-9381.96 13343.84,-23798.8l28371.48 0c401.69,726.34 946.45,1232.59 891.42,1694.8 -1111.53,9899.2 2129.51,16254.72 11527.98,21696.8 11984.69,6944.3 16970.06,19539.78 17911.01,34132.71l-26874.76 0c-4963.36,-5023.89 -8253.92,-10482.48 -13052.2,-12722.04 -7874.24,-3675.75 -16843.5,2162.53 -18246.67,10322.9 -1601.26,9271.9 3686.75,16073.13 13327.33,17146.14zm-58674.37 29730.62l-28421 0 0 -29213.38 28421 0 0 29213.38zm59224.63 -117189.16c-56561.36,22.01 -103135.48,46772.21 -102706.28,103052.95 429.2,56374.28 46458.57,102211.05 102673.27,102249.56 56610.89,38.52 102882.36,-46480.58 102519.19,-103047.44 -374.18,-56500.84 -46254.97,-102282.58 -102486.18,-102255.07z"/>
  <path class="fil0" d="M900387.14 253488.9c33.02,-9266.4 -6795.73,-14422.35 -19325.18,-14576.42 -572.27,-11.01 -1139.04,0 -1716.82,0 -78208.65,0 -156417.29,-11.01 -234625.94,16.51 -3004.43,0 -6014.36,253.12 -8738.15,385.18l0 28459.52 7846.73 0c79072.56,0 158139.61,11.01 237212.16,-5.5 12837.6,0 19303.17,-4809.28 19347.19,-14279.28z"/>
  <path class="fil0" d="M944369.53 572701.01c-7340.49,72502.44 -64138.46,122581.72 -135677.94,121635.27 -65690.2,-863.91 -121926.91,-53199.27 -128122.85,-120606.28 -6047.37,-65778.24 38226.66,-131793.1 116220.7,-143629.22l0 -131628.02 -174807.03 0 0 586457.54 10108.3 0c52781.07,0 105567.64,-11.01 158348.71,0 26962.81,5.5 37175.66,10350.42 37186.66,37643.38 0,15495.36 77.04,30979.71 -16.51,46469.57 -137.57,21872.89 -11770.09,33499.91 -33422.87,33505.41l-462978.89 0c-21196.07,-5.5 -33059.7,-11748.08 -33120.23,-32828.59 -49.52,-17492.81 -66.03,-34996.62 11.01,-52494.93 82.54,-20348.66 11979.19,-32201.29 32905.63,-32256.32 53920.11,-121.06 107851.22,-38.52 161776.84,-38.52l10581.53 0 0 -586402.51 -174520.89 0 0 219746.87c43960.38,6993.82 78599.33,28883.22 100466.72,68815.68 16040.12,29312.42 20244.12,60583.77 12788.07,93175.75 -14736,64474.12 -77377.75,108880.21 -143056.95,101655.28 -64617.19,-7103.87 -116011.6,-62674.77 -118377.72,-125151.44 -2575.22,-68072.83 46161.42,-129124.33 116831.49,-138258.67l0 -220588.77c-17443.28,0 -34572.92,209.1 -51691.55,-115.55 -6520.6,-115.55 -13294.31,-566.77 -19479.25,-2432.16 -20535.75,-6168.43 -33527.42,-26698.68 -30506.49,-47019.83 3439.13,-23171.51 20942.95,-39101.57 43910.86,-39145.59 84333.05,-132.06 168666.11,-60.53 252999.16,-66.03l11208.82 0c0,-10702.58 682.32,-20728.35 -137.57,-30627.55 -2041.47,-24508.64 5568.64,-43751.28 28233.91,-55515.87l60248.12 0c21008.98,9838.67 30820.14,26104.4 29378.45,49496.01 -720.84,11698.56 -126.56,23490.66 -126.56,36647.41l10135.81 0c84624.69,5.5 169243.88,-66.03 253863.07,88.04 17459.79,33.02 30996.22,7918.26 39228.13,23424.63 8017.31,15104.67 7384.51,30434.96 -1870.89,44879.32 -9134.34,14235.26 -22901.88,20238.61 -39448.24,20359.67 -15198.22,104.55 -30407.44,27.51 -45611.16,27.51l-9651.58 0 0 132035.21c82038.46,12909.13 122323.1,82302.59 116193.19,142743.3zm-381595.24 -572701.01c-310815.12,0 -562774.29,251964.67 -562774.29,562779.79 0,310804.12 251959.17,562774.29 562774.29,562774.29 310809.62,0 562774.29,-251970.17 562774.29,-562774.29 0,-310815.12 -251964.67,-562779.79 -562774.29,-562779.79z"/>
  <g id="_2380068546432">
   <polygon class="fil1" points="3685887.13,979476.21 3685887.13,512188.77 3784972.69,512188.77 3784972.69,897657.85 3974499.2,897657.85 3974499.2,979476.21 "/>
   <polygon class="fil1" points="2301655.18,979476.21 2202575.12,979476.21 2202575.12,594645.43 2075695.86,594645.43 2075695.86,512188.77 2428550.95,512188.77 2428550.95,594645.43 2301655.18,594645.43 "/>
   <path class="fil1" d="M2710141.69 786114.37c-31326.38,-100791.37 -48945.75,-157787.44 -52896.62,-170993.71 -3934.37,-13206.27 -6757.21,-23655.74 -8463.02,-31337.38 -7026.84,27281.96 -27160.9,94721.99 -60413.19,202331.1l121772.84 0zm57540.83 194313.79l-33885.09 -111224.33 -170360.91 0 -33874.09 111224.33 -106750.7 0 164924.33 -469191.34 121129.03 0 165573.64 469191.34 -106756.2 0z"/>
   <polygon class="fil1" points="3075295.12,979476.21 2976209.56,979476.21 2976209.56,594645.43 2849319.3,594645.43 2849319.3,512188.77 3202179.89,512188.77 3202179.89,594645.43 3075295.12,594645.43 "/>
   <path class="fil1" d="M3458067.92 786114.37c-31326.38,-100791.37 -48956.75,-157787.44 -52896.62,-170993.71 -3934.37,-13206.27 -6757.21,-23655.74 -8474.02,-31337.38 -7015.83,27281.96 -27160.9,94721.99 -60402.19,202331.1l121772.84 0zm57540.83 194313.79l-33885.09 -111224.33 -170360.91 0 -33885.09 111224.33 -106756.2 0 164940.84 -469191.34 121129.03 0 165562.63 469191.34 -106745.2 0z"/>
   <path class="fil1" d="M2028637.51 850390.4c0,42034.46 -15121.18,75149.19 -45369.05,99333.18 -30247.87,24206 -72331.85,36295.24 -126246.46,36295.24 -49666.59,0 -93604.96,-9326.93 -131809.6,-28008.3l0 -91695.55c31414.42,14009.65 57997.55,23881.34 79749.38,29604.06 21762.84,5728.22 41660.29,8595.08 59714.36,8595.08 21647.28,0 38248.67,-4132.46 49831.67,-12408.39 11555.49,-8281.43 17333.23,-20585.28 17333.23,-36939.04 0,-9123.33 -2547.71,-17245.19 -7637.63,-24343.56 -5095.42,-7120.38 -12573.47,-13965.63 -22445.16,-20552.26 -9866.19,-6564.62 -29978.24,-17074.61 -60330.65,-31502.46 -28437.51,-13382.36 -49771.14,-26225.46 -64000.9,-38529.3 -14224.26,-12309.35 -25576.15,-26638.15 -34061.18,-42980.91 -8490.53,-16353.77 -12733.05,-35447.84 -12733.05,-57309.72 0,-41187.06 13943.62,-73564.44 41874.89,-97115.63 27898.25,-23562.19 66477.07,-35332.28 115719.96,-35332.28 24194.99,0 47278.46,2861.36 69250.39,8589.58 21966.43,5733.72 44950.85,13806.06 68931.24,24206l-31832.62 76722.94c-24844.3,-10185.34 -45374.55,-17294.71 -61612.76,-21333.63 -16243.72,-4027.91 -32212.3,-6041.87 -47916.76,-6041.87 -18686.88,0 -33004.68,4341.56 -42986.42,13046.7 -9970.74,8716.14 -14956.1,20062.53 -14956.1,34066.68 0,8710.64 2013.96,16293.24 6052.87,22769.81 4027.91,6471.07 10443.96,12733.05 19248.14,18785.92 8815.19,6041.87 29664.59,16931.54 62575.72,32636 43503.66,20805.38 73322.32,41649.28 89461.49,62553.71 16128.16,20915.43 24194.99,46535.6 24194.99,76888.02z"/>
   <polygon class="fil1" points="4307610.92,980428.16 4037388.57,980428.16 4037388.57,511236.81 4307610.92,511236.81 4307610.92,592741.53 4136875.83,592741.53 4136875.83,695777.96 4295741.78,695777.96 4295741.78,777282.67 4136875.83,777282.67 4136875.83,898279.64 4307610.92,898279.64 "/>
   <path class="fil1" d="M4668978.55 849873.15c0,42194.04 -15176.21,75429.83 -45539.63,99729.37 -30374.43,24283.03 -72612.49,36416.3 -126741.7,36416.3 -49853.68,0 -93957.13,-9370.95 -132310.34,-28123.86l0 -92042.22c31524.47,14059.18 58217.65,23969.38 80057.52,29719.62 21839.87,5761.24 41803.35,8633.6 59939.97,8633.6 21724.32,0 38397.24,-4154.47 50007.75,-12468.92 11610.51,-8297.94 17415.77,-20667.82 17415.77,-37076.61 0,-9167.35 -2558.72,-17305.72 -7659.64,-24448.11 -5117.43,-7142.39 -12628.5,-14009.65 -22544.21,-20618.29 -9904.7,-6597.63 -30093.79,-17146.14 -60561.76,-31634.52 -28553.06,-13431.88 -49963.73,-26319 -64248.52,-38666.86 -14279.28,-12358.87 -25675.19,-26742.7 -34198.74,-43151.49 -8523.55,-16414.3 -12788.07,-35596.41 -12788.07,-57540.83 0,-41330.13 14020.66,-73834.07 42045.47,-97473.3 28008.3,-23655.74 66735.7,-35480.85 116171.18,-35480.85 24288.54,0 47465.54,2872.36 69520.02,8633.6 22059.98,5739.23 45126.93,13839.07 69195.36,24277.53l-31948.17 77031.09c-24954.35,-10229.36 -45550.63,-17355.24 -61849.38,-21421.67 -16309.75,-4038.92 -32344.36,-6063.88 -48109.35,-6063.88 -18763.91,0 -33136.74,4369.08 -43151.49,13107.23 -10020.26,8732.65 -15016.63,20134.06 -15016.63,34198.74 0,8727.14 2019.46,16342.76 6058.38,22846.85 4066.43,6509.59 10504.49,12782.57 19341.69,18857.46 8842.7,6063.88 29780.14,16997.57 62817.84,32762.56 43657.74,20893.42 73602.96,41819.86 89808.15,62812.33 16188.69,20981.47 24288.54,46717.19 24288.54,77185.16z"/>
   <polygon class="fil1" points="1678159.55,979476.21 1408481.96,979476.21 1408481.96,511236.81 1678159.55,511236.81 1678159.55,592570.94 1507776.62,592570.94 1507776.62,695381.77 1666312.42,695381.77 1666312.42,776743.42 1507776.62,776743.42 1507776.62,897487.27 1678159.55,897487.27 "/>
  </g>
  <g id="_2380068547728">
   <path class="fil1" d="M1858859.87 182714.28c-22313.1,0 -39585.8,8380.48 -51818.11,25146.94 -12237.81,16771.97 -18356.72,40125.06 -18356.72,70070.28 0,62350.11 23391.61,93516.92 70174.83,93516.92 19633.32,0 43404.62,-4908.33 71313.87,-14730.5l0 49721.62c-22940.4,9552.54 -48566.07,14334.31 -76860.51,14334.31 -40664.31,0 -71765.09,-12336.86 -93313.32,-36994.07 -21542.73,-24668.22 -32311.35,-60077.53 -32311.35,-106222.45 0,-29064.8 5288.01,-54525.4 15864.03,-76387.28 10576.02,-21861.88 25785.25,-38622.84 45611.16,-50288.38 19825.92,-11665.54 43052.45,-17492.81 69696.1,-17492.81 27155.4,0 54426.35,6564.62 81840.37,19699.36l-19127.08 48175.38c-10449.46,-4968.86 -20975.96,-9299.42 -31540.98,-13002.68 -10598.03,-3692.25 -20975.96,-5546.63 -31172.31,-5546.63z"/>
   <path class="fil1" d="M2680757.74 182714.28c-22307.6,0 -39574.8,8380.48 -51818.11,25146.94 -12237.81,16771.97 -18356.72,40125.06 -18356.72,70070.28 0,62350.11 23391.61,93516.92 70174.83,93516.92 19633.32,0 43404.62,-4908.33 71313.87,-14730.5l0 49721.62c-22940.4,9552.54 -48560.56,14334.31 -76860.51,14334.31 -40664.31,0 -71776.09,-12336.86 -93313.32,-36994.07 -21542.73,-24668.22 -32305.84,-60077.53 -32305.84,-106222.45 0,-29064.8 5282.51,-54525.4 15858.53,-76387.28 10576.02,-21861.88 25785.25,-38622.84 45611.16,-50288.38 19825.92,-11665.54 43046.95,-17492.81 69696.1,-17492.81 27144.39,0 54426.35,6564.62 81834.87,19699.36l-19121.58 48175.38c-10449.46,-4968.86 -20975.96,-9299.42 -31551.99,-13002.68 -10576.02,-3692.25 -20975.96,-5546.63 -31161.3,-5546.63z"/>
   <polygon class="fil1" points="3642025.8,420185.07 3476853.85,420185.07 3476853.85,133388.85 3642025.8,133388.85 3642025.8,183209.52 3537657.73,183209.52 3537657.73,246186.93 3634767.85,246186.93 3634767.85,296007.59 3537657.73,296007.59 3537657.73,369968.22 3642025.8,369968.22 "/>
   <polygon class="fil1" points="1408481.96,420185.07 1408481.96,133388.85 1469291.35,133388.85 1469291.35,369968.22 1585622.1,369968.22 1585622.1,420185.07 "/>
   <polygon class="fil1" points="1626253.4,133383.35 1687057.27,133383.35 1687057.27,420179.57 1626253.4,420179.57 "/>
   <polygon class="fil1" points="1963057.36,133383.35 2023861.24,133383.35 2023861.24,420179.57 1963057.36,420179.57 "/>
   <polygon class="fil1" points="2786209.82,133383.35 2847019.2,133383.35 2847019.2,420179.57 2786209.82,420179.57 "/>
   <polygon class="fil1" points="2189500.91,420185.07 2128686.03,420185.07 2128686.03,183990.89 2050813.04,183990.89 2050813.04,133388.85 2267379.4,133388.85 2267379.4,183990.89 2189500.91,183990.89 "/>
   <path class="fil1" d="M2949472.36 276687.91c0,32047.22 6080.39,56176.18 18241.16,72392.38 12160.78,16216.2 30335.91,24316.05 54536.4,24316.05 48522.05,0 72772.06,-32234.31 72772.06,-96708.43 0,-64600.68 -24123.46,-96912.03 -72381.38,-96912.03 -24200.49,0 -42441.66,8143.87 -54728.99,24426.1 -12298.34,16282.23 -18439.26,40449.71 -18439.26,72485.93zm209319.42 0c0,47471.05 -11781.1,83958.88 -35321.28,109457.99 -23540.18,25510.12 -57276.7,38254.17 -101220.58,38254.17 -43938.37,0 -77691.4,-12744.05 -101220.58,-38254.17 -23540.18,-25499.11 -35315.77,-62119 -35315.77,-109848.67 0,-47729.67 11803.11,-84178.98 35403.82,-109358.94 23606.21,-25179.96 57447.28,-37769.94 101523.22,-37769.94 44070.43,0 77784.94,12683.52 101121.53,38056.07 23353.09,25378.05 35029.64,61865.88 35029.64,109463.49z"/>
   <path class="fil1" d="M2434218.64 301504.7c-19231.63,-61865.88 -30049.77,-96846 -32465.42,-104945.84 -2421.15,-8110.85 -4159.98,-14526.9 -5205.47,-19231.63 -4314.05,16749.96 -16672.92,58135.11 -37065.6,124177.48l74736.5 0zm35304.77 119269.15l-20788.87 -68270.93 -104555.16 0 -20794.38 68270.93 -65530.62 0 101237.08 -287973.77 74334.81 0 101627.77 287973.77 -65530.62 0z"/>
   <path class="fil1" d="M3859967.81 340958.44c0,25796.25 -9288.41,46117.4 -27843.22,60968.96 -18571.32,14857.06 -44395.09,22274.58 -77487.8,22274.58 -30484.48,0 -57452.79,-5728.22 -80904.93,-17190.16l0 -56286.23c19281.16,8600.58 35601.91,14658.96 48945.75,18175.13 13365.85,3516.17 25570.64,5277.01 36647.41,5277.01 13283.31,0 23485.15,-2536.7 30583.53,-7615.62 7098.37,-5078.91 10653.06,-12639.5 10653.06,-22670.77 0,-5596.16 -1568.24,-10581.53 -4688.23,-14950.6 -3130.99,-4363.57 -7714.66,-8556.56 -13778.54,-12606.49 -6058.38,-4027.91 -18406.24,-10476.98 -37038.09,-19347.19 -17454.29,-8198.89 -30550.51,-16089.64 -39272.15,-23633.72 -8738.15,-7560.59 -15704.46,-16348.26 -20904.43,-26390.53 -5216.48,-10031.26 -7819.21,-21746.33 -7819.21,-35167.2 0,-25273.5 8556.56,-45143.44 25686.2,-59604.31 17129.64,-14460.87 40812.88,-21685.8 71033.24,-21685.8 14851.55,0 29026.29,1760.84 42507.69,5277.01 13486.91,3516.17 27584.6,8468.52 42309.6,14846.05l-19539.78 47091.37c-15247.74,-6245.47 -27843.22,-10609.04 -37813.96,-13085.21 -9965.23,-2476.18 -19776.39,-3719.77 -29411.47,-3719.77 -11467.45,0 -20255.12,2674.27 -26385.03,8017.31 -6118.91,5343.04 -9183.86,12303.84 -9183.86,20904.43 0,5348.54 1238.09,10003.75 3714.26,13971.14 2476.18,3978.39 6416.05,7813.71 11825.12,11533.48 5403.57,3708.76 18202.65,10394.44 38402.74,20029.51 26693.18,12766.06 45005.88,25559.64 54899.57,38391.73 9910.21,12832.09 14862.56,28575.07 14862.56,47195.92z"/>
   <path class="fil1" d="M3447282.8 420773.85l-77449.28 0 -125024.88 -217413.76 -1771.84 0c2498.19,38402.74 3747.28,65794.75 3747.28,82165.02l0 135248.74 -54459.37 0 0 -287379.49 76860.51 0 124832.29 215240.23 1370.15 0c-1964.43,-37351.74 -2943.9,-63764.29 -2943.9,-79215.62l0 -136024.61 54839.05 0 0 287379.49z"/>
  </g>
 </g>
</svg>
