<?xml version="1.0" encoding="UTF-8"?>
<!DOCTYPE svg PUBLIC "-//W3C//DTD SVG 1.1//EN" "http://www.w3.org/Graphics/SVG/1.1/DTD/svg11.dtd">
<!-- Creator: CorelDRAW 2021 (64-Bit) -->
<svg xmlns="http://www.w3.org/2000/svg" xml:space="preserve" width="87.1973mm" height="20.4549mm" version="1.1" style="shape-rendering:geometricPrecision; text-rendering:geometricPrecision; image-rendering:optimizeQuality; fill-rule:evenodd; clip-rule:evenodd"
viewBox="0 0 4930848.98 1156687.45"
 xmlns:xlink="http://www.w3.org/1999/xlink"
 xmlns:xodm="http://www.corel.com/coreldraw/odm/2003">
 <defs>
  <style type="text/css">
   <![CDATA[
    .fil1 {fill:#FEFEFE;fill-rule:nonzero}
    .fil0 {fill:#373435;fill-rule:nonzero}
   ]]>
  </style>
 </defs>
 <g id="Capa_x0020_1">
  <metadata id="CorelCorpID_0Corel-Layer"/>
  <path class="fil0" d="M654607.43 880183.8c-40154.87,254.47 -80298.42,135.72 -120458.94,135.72 -29099.7,0 -58199.39,-84.82 -87304.74,124.41 -2821.75,16.96 -7175.96,989.59 -8171.21,2895.27 -3930.1,7520.91 -6797.09,15590.33 -10286.11,24021.67l245153.34 0c-3223.25,-7170.31 -6695.31,-13311.44 -8725.38,-19893.65 -1730.37,-5637.85 -4399.45,-7317.34 -10206.95,-7283.41z"/>
  <path class="fil0" d="M440623.45 724161.7c45.24,-56073.18 0,-112140.7 141.37,-168213.88 16.96,-5490.83 -2793.48,-5999.76 -7113.76,-5971.49 -18055.84,124.41 -36128.63,395.84 -54178.82,-84.82 -9596.23,-265.78 -15426.34,3432.47 -19859.72,11909.05 -27731.23,52991.3 -55801.75,105796 -83736.55,158685.51 -1210.13,2273.24 -2177.11,4670.88 -3641.7,7826.27l167563.58 0c327.98,-1589 825.6,-2878.3 825.6,-4150.64z"/>
  <path class="fil0" d="M385115.75 879556.11l-26311.87 0 0 -26108.3c32503.9,-802.98 27063.96,-6112.86 26311.87,26108.3zm-13509.36 -54229.71c-23569.28,158.33 -41037.02,18118.04 -40776.9,41902.2 254.47,23162.14 18151.97,40709.04 41359.34,40539.39 23478.81,-158.33 41274.52,-18400.78 40923.92,-41930.48 -339.29,-23150.83 -18293.34,-40658.14 -41506.37,-40511.12z"/>
  <path class="fil0" d="M783820.04 590617.51l-53455 0 0 -26594.61 53455 0 0 26594.61zm41681.67 -53997.86l-136518.63 0 0 81706.47 136518.63 0 0 -81706.47z"/>
  <path class="fil0" d="M565142.55 674495.43l53613.33 0 0 26362.76 -53613.33 0 0 -26362.76zm-41393.27 53788.63l136807.02 0 0 -81169.26 -136807.02 0 0 81169.26z"/>
  <path class="fil0" d="M619016.01 590600.55l-54376.73 0c0,-7933.71 -254.47,-15154.91 192.26,-22342.19 90.48,-1617.28 2567.29,-4393.79 3980.99,-4416.41 16585.58,-305.36 33182.47,-203.57 50203.48,-203.57l0 26962.17zm41534.64 -53935.66l-136394.22 0 0 81497.24 136394.22 0 0 -81497.24z"/>
  <path class="fil0" d="M784125.4 481140.23c-17207.61,0 -34013.73,73.51 -50802.89,-152.68 -1170.55,-16.96 -2431.57,-2182.76 -3409.86,-3517.3 -395.84,-542.86 -96.13,-1577.69 -147.03,-2369.37 -1266.68,-21465.69 -1266.68,-21465.69 20363,-21465.69l33996.77 0 0 27505.04zm41970.06 19718.35c33.93,-19113.29 79.17,-38226.57 0,-57334.2 -50.89,-12655.48 -4942.31,-17462.08 -17631.72,-17473.39 -37146.5,-22.62 -74293,-16.96 -111445.16,11.31 -2606.87,0 -5225.05,226.19 -7882.82,350.6l0 81943.97 136501.66 0c186.61,-2799.14 458.04,-5151.54 458.04,-7498.29z"/>
  <path class="fil0" d="M730268.91 674467.16l53839.53 0 0 26334.49 -53839.53 0 0 -26334.49zm-41093.57 53839.53l136484.7 0 0 -81321.94 -136484.7 0 0 81321.94z"/>
  <path class="fil0" d="M633339.66 259827.6c-11.31,-1724.72 -508.93,-4297.66 -1685.14,-5027.13 -12587.63,-7905.44 -25356.21,-15516.82 -39006.94,-23761.55l0 98382.53 40759.93 0c0,-23902.92 33.93,-46754.04 -67.86,-69593.85z"/>
  <path class="fil0" d="M495774.9 245984.6c-39.58,-5275.95 1605.97,-8193.83 6135.48,-10851.6 23478.81,-13746.86 46844.52,-27714.27 70017.96,-41958.75 4880.11,-2997.05 8403.06,-2719.97 13119.18,169.64 23207.37,14199.25 46691.84,27946.11 69876.59,42201.91 2691.69,1656.86 5779.22,5445.59 5813.15,8267.34 378.87,36643.22 226.19,73292.1 192.26,109935.32 0,780.36 -294.05,1549.42 -622.03,3189.32l-163916.22 0c-180.95,-2793.48 -469.35,-5134.58 -469.35,-7481.32 -28.27,-34488.74 96.13,-68983.13 -147.03,-103471.87zm-329732.46 688672.06l0 -26509.79 149626.5 0c-3873.55,-9302.18 -7153.35,-17693.93 -10964.69,-25831.21 -593.76,-1255.37 -3658.67,-1843.47 -5598.27,-1905.67 -7543.53,-226.19 -15098.37,33.93 -22647.55,-141.37 -25062.16,-593.76 -41732.56,-16823.08 -42043.57,-41743.87 -378.87,-29388.09 -559.83,-58798.8 226.19,-88169.93 209.23,-7673.59 3194.97,-15839.15 6836.68,-22754.99 31271.15,-59386.9 63294.38,-118377.97 94378.92,-177855.35 10054.27,-19232.04 24445.78,-28262.78 46052.84,-27408.9 17224.58,684.23 34505.7,-16.96 51758.55,220.54 5151.54,73.51 7006.32,-1458.94 7147.69,-6847.99 610.72,-23207.37 774.71,-23196.07 27069.62,-19893.65l0 232249.05 28019.63 0 0 -9681.05c0,-90872.93 554.17,-181757.17 -350.6,-272618.8 -271.43,-27001.76 17891.85,-47975.48 47540.06,-47630.54 88164.27,1012.21 176356.82,356.25 264526.75,361.91 29405.06,0 45979.33,16636.48 45984.98,46199.87 16.96,91138.71 11.31,182288.73 11.31,273433.09l0 9873.31c2533.36,571.14 4569.09,1091.38 6638.76,1475.91 20396.93,3754.8 33815.81,18225.48 34381.3,39001.28 655.96,23987.74 701.2,48015.06 11.31,71985.84 -667.27,23190.41 -17247.2,39052.18 -40663.8,39702.48 -16709.99,475 -33442.6,305.36 -50152.58,50.89 -4931,-79.17 -6881.91,1651.21 -8340.86,6339.05 -2131.87,6847.99 -5553.03,13294.48 -8685.8,20498.72l135003.13 0c158.33,-2703 452.39,-5547.38 452.39,-8386.1 28.27,-184177.44 0,-368354.87 147.03,-552532.31 0,-5824.46 -1668.17,-9138.19 -6847.99,-12112.62 -110353.78,-63345.28 -220611.43,-126860.2 -330795.57,-190488.21 -4546.47,-2629.49 -7871.51,-2838.72 -12497.15,-163.99 -110653.49,63905.1 -221369.18,127708.42 -332203.62,191291.2 -5309.87,3042.29 -5835.77,6774.47 -5835.77,11875.12 79.17,100582.26 62.2,201170.17 62.2,301746.77 0,11886.43 -5.65,11886.43 -11603.69,11886.43 -15923.97,5.65 -15923.97,5.65 -15923.97,-15584.68 0,-104093.9 79.17,-208182.14 -175.3,-312270.38 -16.96,-7634 2001.81,-11920.36 8878.06,-15878.73 118242.25,-68004.85 236292.24,-136337.67 354370.51,-204625.26 2510.74,-1447.63 4823.56,-3257.18 7215.55,-4902.73l3234.56 0c2318.48,1707.76 4501.24,3636.05 6978.05,5072.37 118304.46,68423.3 236608.91,136863.57 355049.08,205066.34 5717.02,3296.76 7520.91,6944.12 7509.6,13345.37 -163.99,188757.84 -130.06,377526.99 -130.06,566290.48l0 11009.93 40952.19 0 0 26962.17 -824602.59 0zm412292.81 -934656.66c-319401.11,0 -578335.24,258934.14 -578335.24,578346.55 0,319401.11 258934.14,578340.9 578335.24,578340.9 319412.42,0 578352.21,-258939.79 578352.21,-578340.9 0,-319412.42 -258939.79,-578346.55 -578352.21,-578346.55z"/>
  <path class="fil0" d="M564701.48 459029.89c-882.15,-4241.11 1803.89,-5485.17 5756.61,-5439.94 11541.48,141.37 23094.28,45.24 34647.07,45.24l13899.54 0 0 27510.69c-17145.41,0 -34313.44,2064.01 -50593.66,-842.57 -8606.63,-1538.11 -2171.45,-13944.78 -3709.56,-21273.43zm-41280.17 49129.06l137174.59 0 0 -82051.42c-42184.95,0 -83352.02,-130.06 -124513.45,113.1 -7650.97,39.58 -12355.78,5750.95 -12576.32,14069.19 -260.12,9692.36 -79.17,19384.72 -84.82,29077.08 0,12842.09 0,25689.84 0,38792.05z"/>
  <path class="fil0" d="M556937.41 330037.82c6118.51,254.47 7831.92,-1877.4 7769.72,-7843.23 -260.12,-27736.88 -101.79,-55473.77 -135.72,-83210.65 0,-2075.32 -333.63,-4139.33 -650.3,-7871.51 -13543.29,8159.9 -26142.23,15669.5 -38622.41,23399.64 -1057.45,655.96 -1764.3,2708.66 -1764.3,4128.02 -118.75,23382.67 -79.17,46776.66 -79.17,71278.99 12022.14,0 22771.95,-316.67 33482.18,118.75z"/>
  <path class="fil0" d="M803464.87 852837.09c15646.88,-180.95 31282.46,5.65 46923.68,-101.79 12644.17,-79.17 16902.25,-4325.94 16987.07,-17145.41 130.06,-19684.42 50.89,-39380.16 33.93,-59058.92 -16.96,-16828.74 -3494.68,-20272.52 -20526.99,-20272.52 -191732.27,-11.31 -383464.55,-11.31 -575196.82,-11.31l-9901.59 0c0,4399.45 0,7351.26 0,10286.11 45.24,24547.57 -124.41,49083.82 243.16,73620.08 113.1,7747.1 5106.3,12067.38 13215.31,12463.22 7537.87,367.56 15109.67,-141.37 22647.55,243.16 4976.24,254.47 6785.78,-1713.41 8273,-6418.22 9409.62,-29704.76 34731.89,-48416.56 65267.91,-48767.15 29552.08,-339.29 55592.52,18253.75 65409.28,47455.24 1984.84,5914.94 4603.02,7803.65 10772.43,7781.03 68762.59,-226.19 137530.84,-135.72 206293.43,-135.72l7882.82 0c610.72,-1752.99 978.28,-2736.93 1294.95,-3743.49 10167.36,-31915.8 34466.12,-50870.75 65850.36,-51351.41 30383.34,-463.7 55767.82,18231.13 66427.15,49462.7 1549.42,4535.16 3749.14,5733.99 8103.35,5694.4z"/>
  <path class="fil0" d="M743263.68 875173.63c-220.54,1837.82 -2736.93,4738.74 -4365.52,4863.14 -7142.04,531.55 -14351.93,226.19 -22873.74,226.19 0,-8391.75 -299.71,-15590.33 214.88,-22726.72 124.41,-1679.48 2974.43,-3200.63 4653.92,-4687.84 305.36,-271.43 1051.8,-45.24 1583.35,-67.86 21850.22,-910.43 23337.44,593.76 20787.11,22393.08zm-13843 -49841.57c-23173.45,135.72 -40810.82,17863.57 -40856.06,41070.95 -62.2,23207.37 17496.01,41093.57 40601.6,41359.34 23416.6,282.74 41670.36,-17676.96 41743.87,-41104.88 79.17,-23450.53 -17999.29,-41466.78 -41489.4,-41325.41z"/>
  <g id="_2380064876608">
   <g>
    <path class="fil1" d="M2215506.96 453335.48l-76436.18 0 -123388.14 -214572.08 -1741.68 0c2454.19,37898.59 3686.94,64928.63 3686.94,81090.1l0 133481.99 -53749.05 0 0 -283634.38 75848.08 0 123207.18 212434.56 1357.16 0c-1945.26,-36869.42 -2906.58,-62926.82 -2906.58,-78194.83l0 -134239.73 54122.27 0 0 283634.38z"/>
    <polygon class="fil1" points="2396325.44,453335.48 2336180.79,453335.48 2336180.79,219751.9 2259150.85,219751.9 2259150.85,169701.1 2473338.41,169701.1 2473338.41,219751.9 2396325.44,219751.9 "/>
    <path class="fil1" d="M2655700.65 335958.42c-19005.84,-61173.83 -29716.07,-95764.35 -32108.06,-103788.54 -2391.99,-8012.88 -4099.74,-14363.24 -5128.92,-19011.5 -4280.7,16557.31 -16500.76,57498.19 -36677.15,122800.04l73914.13 0zm34924.16 117953.86l-20549.61 -67512.88 -103415.32 0 -20560.92 67512.88 -64804.22 0 100107.25 -284793.62 73535.26 0 100491.78 284793.62 -64804.22 0z"/>
    <path class="fil1" d="M1644935.78 169701.1l60732.75 0 -96420.31 283628.73 -65578.93 0 -96228.05 -283628.73 60732.75 0 53341.9 168785.02c2974.43,9952.48 6056.31,21567.48 9223.01,34828.03 3155.39,13249.24 5134.58,22460.94 5920.59,27646.41 1413.7,-11909.05 6265.54,-32735.74 14538.54,-62474.43l53737.74 -168785.02z"/>
    <polygon class="fil1" points="1904718.14,453335.48 1741361.75,453335.48 1741361.75,169701.1 1904718.14,169701.1 1904718.14,218971.53 1801506.4,218971.53 1801506.4,281242.39 1897530.87,281242.39 1897530.87,330535.45 1801506.4,330535.45 1801506.4,403669.21 1904718.14,403669.21 "/>
   </g>
   <g>
    <path class="fil1" d="M1629803.49 986980.7l-103703.71 -337881.06 -2640.8 0c3732.18,68739.97 5598.27,114589.24 5598.27,137559.11l0 200321.94 -81610.34 0 0 -430670.97 124309.87 0 101928.1 329342.28 1769.96 0 108108.82 -329342.28 124309.87 0 0 430670.97 -85133.29 0 0 -203850.55c0,-9618.85 147.03,-20719.25 441.08,-33284.26 294.05,-12576.32 1628.59,-45968.02 3975.34,-100163.8l-2640.8 0 -111060.63 337298.61 -83651.73 0z"/>
    <path class="fil1" d="M2226912.73 807875.63c-28873.5,-92886.05 -45125.45,-145424.97 -48767.15,-157594.13 -3619.08,-12169.17 -6220.3,-21804.98 -7809.3,-28873.5 -6469.11,25141.32 -25022.57,87299.09 -55666.03,186467.64l112242.49 0zm53013.92 179105.06l-31214.6 -102504.89 -157023 0 -31220.25 102504.89 -98382.53 0 151995.86 -432446.58 111648.73 0 152595.27 432446.58 -98399.5 0z"/>
    <polygon class="fil1" points="2566558.09,733639.18 2656401.85,556298.42 2754790.03,556298.42 2611926.7,819360.57 2611926.7,986980.7 2521189.48,986980.7 2521189.48,822318.04 2378331.8,556298.42 2477296.78,556298.42 "/>
    <path class="fil1" d="M2885585.98 765164.79c0,48122.5 9132.53,84347.27 27391.94,108702.57 18265.06,24349.65 45560.87,36535.78 81893.08,36535.78 72867.99,0 109296.33,-48416.56 109296.33,-145238.36 0,-97014.06 -36241.73,-145515.44 -108713.88,-145515.44 -36332.21,0 -63718.49,12220.06 -82175.82,36677.15 -18457.33,24451.43 -27691.65,60732.75 -27691.65,108838.29zm314311.77 0c0,71290.3 -17676.96,126085.49 -53025.23,164385.57 -35342.62,38300.09 -86004.13,57435.99 -152001.52,57435.99 -65986.08,0 -116658.9,-19135.91 -152001.52,-57435.99 -35336.96,-38300.09 -53019.58,-93287.54 -53019.58,-164968.02 0,-71674.82 17727.86,-126419.12 53172.26,-164221.58 35427.44,-37819.43 86252.95,-56712.17 152431.29,-56712.17 66178.34,0 116811.58,19051.08 151860.15,57141.94 35065.53,38107.82 52584.16,92891.7 52584.16,164374.26z"/>
    <path class="fil1" d="M3380478.72 747493.48l29455.95 0c28867.85,0 50175.2,-4795.29 63916.41,-14431.1 13746.86,-9630.16 20623.12,-24745.49 20623.12,-45362.95 0,-20419.55 -7017.63,-34958.09 -21052.89,-43604.3 -14035.26,-8640.56 -35800.66,-12955.19 -65239.64,-12955.19l-27702.96 0 0 116353.54zm0 74236.46l0 165262.07 -91314.01 0 0 -430670.97 125474.77 0c58538.68,0 101837.62,10642.37 129919.45,31955.38 28081.83,21313.01 42122.74,53664.23 42122.74,97064.96 0,25339.24 -6972.39,47873.69 -20905.86,67597.7 -13956.09,19740.97 -33691.41,35212.55 -59205.95,46403.44 64792.91,96827.46 107023.09,159364.09 126650.97,187649.49l-101328.69 0 -102810.25 -165262.07 -48603.16 0z"/>
    <polygon class="fil1" points="3687422.27,556315.38 3778741.93,556315.38 3778741.93,986986.35 3687422.27,986986.35 "/>
    <path class="fil1" d="M4141379.78 861500.28c0,38882.53 -14006.99,69525.99 -41992.68,91907.76 -27980.04,22387.43 -66913.47,33583.97 -116794.62,33583.97 -45951.05,0 -86597.89,-8640.56 -121951.81,-25927.34l0 -84833.59c29071.42,12955.19 53652.92,22082.07 73795.38,27380.63 20125.5,5309.87 38537.59,7961.98 55236.27,7961.98 20023.71,0 35393.51,-3822.66 46103.73,-11484.94 10698.92,-7656.62 16048.37,-19045.43 16048.37,-34177.72 0,-8436.99 -2358.06,-15946.59 -7079.83,-22534.45 -4704.81,-6570.9 -11620.65,-12904.3 -20758.84,-18994.54 -9138.19,-6078.93 -27753.85,-15799.56 -55813.06,-29161.9 -26345.8,-12372.74 -46064.15,-24247.86 -59205.95,-35647.98 -13175.73,-11394.46 -23682.38,-24643.7 -31536.92,-39770.34 -7854.54,-15115.33 -11790.3,-32792.29 -11790.3,-53013.92 0,-38107.82 12921.26,-68061.39 38741.16,-89849.41 25814.25,-21810.63 61524.42,-32701.81 107090.95,-32701.81 22370.46,0 43745.68,2652.11 64057.78,7956.33 20334.73,5304.22 41591.19,12768.58 63792.01,22387.43l-29461.6 70984.94c-22981.18,-9426.58 -41981.37,-15997.48 -57006.22,-19735.32 -15024.85,-3726.53 -29795.24,-5592.62 -44339.43,-5592.62 -17269.82,0 -30530.36,4020.58 -39764.68,12078.69 -9228.66,8046.81 -13848.65,18553.46 -13848.65,31514.3 0,8069.43 1877.4,15075.75 5609.58,21064.2 3732.18,5988.45 9669.74,11784.64 17818.33,17382.91 8142.94,5592.62 27431.52,15658.19 57877.07,30202.39 40256.65,19249 67863.48,38537.59 82775.23,57877.07 14923.07,19339.48 22398.74,43061.44 22398.74,71143.27z"/>
    <polygon class="fil1" points="4385577.46,986980.7 4294257.8,986980.7 4294257.8,632293.52 4177321.81,632293.52 4177321.81,556309.73 4502530.41,556309.73 4502530.41,632293.52 4385577.46,632293.52 "/>
    <path class="fil1" d="M4779435.56 807875.63c-28862.19,-92886.05 -45125.45,-145424.97 -48755.84,-157594.13 -3630.39,-12169.17 -6231.61,-21804.98 -7803.65,-28873.5 -6486.08,25141.32 -25039.54,87299.09 -55683,186467.64l112242.49 0zm53030.89 179105.06l-31231.56 -102504.89 -157011.69 0 -31214.6 102504.89 -98399.5 0 152001.52 -432446.58 111643.08 0 152595.27 432446.58 -98382.53 0z"/>
   </g>
  </g>
 </g>
</svg>
