<?xml version="1.0" encoding="UTF-8"?>
<!DOCTYPE svg PUBLIC "-//W3C//DTD SVG 1.1//EN" "http://www.w3.org/Graphics/SVG/1.1/DTD/svg11.dtd">
<!-- Creator: CorelDRAW 2021 (64-Bit) -->
<svg xmlns="http://www.w3.org/2000/svg" xml:space="preserve" width="78.2642mm" height="20.4549mm" version="1.1" style="shape-rendering:geometricPrecision; text-rendering:geometricPrecision; image-rendering:optimizeQuality; fill-rule:evenodd; clip-rule:evenodd"
viewBox="0 0 3972298.96 1038188.32"
 xmlns:xlink="http://www.w3.org/1999/xlink"
 xmlns:xodm="http://www.corel.com/coreldraw/odm/2003">
 <defs>
  <style type="text/css">
   <![CDATA[
    .fil1 {fill:#FEFEFE;fill-rule:nonzero}
    .fil0 {fill:#373435;fill-rule:nonzero}
   ]]>
  </style>
 </defs>
 <g id="Capa_x0020_1">
  <metadata id="CorelCorpID_0Corel-Layer"/>
  <path class="fil0" d="M817338.11 596092.02l-269615.6 28600.44 119619.37 235188.49c6796.09,13384.09 1476.97,29737.35 -11896.97,36553.75 -3948.74,1999.75 -8161.4,2959.02 -12308.09,2959.02 -9897.22,0 -19439.16,-5440.94 -24235.51,-14866.14l-118644.87 -233264.87 -182890.54 199121.99c-28717.18,14612.36 -62733.17,-6258.09 -62733.17,-38477.36l15.23 -641558.34c0,-25753.08 29239.95,-40619.22 50044.42,-25448.55l518502.86 377820.17c26032.24,18982.37 22860.05,58774.28 -5857.13,73371.42zm-298251.57 -596092.02c-286679.43,0 -519086.55,232407.12 -519086.55,519091.62 0,286689.58 232407.12,519096.7 519086.55,519096.7 286689.58,0 519101.77,-232407.12 519101.77,-519096.7 0,-286684.51 -232412.19,-519091.62 -519101.77,-519091.62z"/>
  <polygon class="fil1" points="1681243.93,379332.67 1532673.92,379332.67 1532673.92,121375.49 1681243.93,121375.49 1681243.93,166192.15 1587372.57,166192.15 1587372.57,222829.65 1674711.77,222829.65 1674711.77,267646.31 1587372.57,267646.31 1587372.57,334170.88 1681243.93,334170.88 "/>
  <path class="fil1" d="M2300155.4 308077.74c0,23200.11 -8344.12,41482.06 -25047.59,54840.77 -16698.39,13358.71 -39923.88,20033 -69691.68,20033 -27422.92,0 -51673.66,-5151.63 -72762.36,-15465.05l0 -50623.03c17337.91,7735.06 32016.25,13186.15 44024.88,16348.18 12008.63,3162.04 22992.01,4745.59 32955.22,4745.59 11957.88,0 21119.15,-2283.97 27509.21,-6851.92 6384.98,-4573.02 9577.47,-11369.12 9577.47,-20388.28 0,-5039.97 -1405.91,-9521.64 -4217.74,-13450.07 -2811.83,-3923.36 -6943.28,-7699.53 -12389.29,-11338.67 -5446.01,-3628.98 -16551.2,-9430.28 -33305.43,-17398.81 -15703.59,-7384.85 -27478.75,-14470.25 -35330.55,-21266.34 -7851.8,-6796.09 -14125.11,-14698.65 -18809.8,-23727.96 -4684.69,-9014.09 -7024.49,-19566.05 -7024.49,-31635.59 0,-22733.16 7699.53,-40603.99 23113.82,-53607.42 15404.14,-13008.5 36695.86,-19510.22 63885.31,-19510.22 13358.71,0 26103.29,1583.56 38228.66,4745.59 12130.44,3162.04 24814.12,7618.32 38051.02,13353.64l-17571.38 42365.19c-13719.07,-5628.73 -25052.66,-9552.09 -34010.92,-11780.23 -8963.33,-2223.07 -17789.63,-3339.68 -26453.5,-3339.68 -10313.41,0 -18226.12,2400.71 -23727.96,7207.21 -5506.92,4806.5 -8262.91,11074.74 -8262.91,18804.73 0,4806.5 1116.61,8998.86 3339.68,12566.94 2228.14,3578.23 5770.84,7034.64 10633.17,10374.32 4862.33,3339.68 16373.56,9343.99 34538.77,18012.95 24017.26,11485.86 40482.18,23002.16 49389.68,34538.77 8902.43,11541.69 13358.71,25692.18 13358.71,42446.4z"/>
  <polygon class="fil1" points="2106677.36,379332.67 1957802.82,379332.67 1957802.82,120842.56 2106677.36,120842.56 2106677.36,165750.58 2012613.14,165750.58 2012613.14,222509.89 2100135.05,222509.89 2100135.05,267417.91 2012613.14,267417.91 2012613.14,334074.44 2106677.36,334074.44 "/>
  <path class="fil1" d="M1353853.92 235883.83l17652.59 0c17292.23,0 30052.03,-2877.81 38279.42,-8643.58 8232.46,-5760.69 12353.77,-14820.46 12353.77,-27169.15 0,-12242.1 -4207.59,-20936.43 -12612.62,-26113.44 -8410.1,-5182.08 -21438.91,-7760.44 -39081.35,-7760.44l-16591.81 0 0 69686.61zm0 44466.45l0 98982.39 -54698.66 0 0 -257957.18 75173.22 0c35051.4,0 60987.2,6384.98 77812.48,19144.78 16815.13,12769.96 25225.23,32143.14 25225.23,58139.85 0,15175.74 -4172.06,28671.5 -12521.26,40492.33 -8364.42,11820.84 -20180.19,21088.7 -35472.66,27783.28 38822.49,57992.66 64113.71,95459.99 75873.64,112396.93l-60697.9 0 -61581.03 -98982.39 -29113.06 0z"/>
  <path class="fil1" d="M1873651.04 248846.66c0,-55586.87 -24555.27,-83385.38 -73650.57,-83385.38l-29214.57 0 0 168552.26 23545.24 0c52876.55,0 79319.9,-28387.27 79319.9,-85166.88zm57008.01 -1416.06c0,42613.89 -12125.37,75249.35 -36386.25,97916.53 -24250.74,22657.03 -59276.76,33985.54 -105072.99,33985.54l-73300.36 0 0 -258840.32 81263.82 0c42258.61,0 75071.71,11150.87 98444.39,33462.77 23367.6,22301.74 35051.4,53470.39 35051.4,93475.47z"/>
  <path class="fil1" d="M2260322.88 548067.65c-32924.76,0 -58413.92,12368.99 -76472.55,37101.9 -18058.63,24743.06 -27093.02,59215.85 -27093.02,103418.37 0,92013.73 34523.55,137997.75 103565.56,137997.75 28976.03,0 64057.88,-7237.66 105250.63,-21728.21l0 73366.34c-33858.66,14114.96 -71681.28,21169.91 -113437.41,21169.91 -60012.7,0 -105910.44,-18205.82 -137708.45,-54597.15 -31798,-36421.78 -47684.32,-88658.82 -47684.32,-156761.87 0,-42898.12 7801.04,-80472.04 23423.43,-112747.14 15597.01,-32244.65 38035.79,-56982.63 67296.05,-74203.8 29260.25,-17216.09 63540.18,-25829.22 102860.07,-25829.22 40076.14,0 80324.85,9694.2 120781.66,29072.46l-28224.85 71112.82c-15424.44,-7334.1 -30945.32,-13724.15 -46557.56,-19200.61 -15632.54,-5435.86 -30955.47,-8171.55 -45999.25,-8171.55z"/>
  <polygon class="fil1" points="3068322.08,898515.65 3068322.08,475254.53 3158056.9,475254.53 3158056.9,824413.36 3329735.67,824413.36 3329735.67,898515.65 "/>
  <polygon class="fil1" points="2415942.77,475264.68 2505697.9,475264.68 2505697.9,898525.8 2415942.77,898525.8 "/>
  <path class="fil1" d="M1712001.46 686750.59c0,47293.5 8973.48,82893.06 26920.45,106829.11 17941.89,23920.83 44781.13,35888.86 80482.19,35888.86 71605.14,0 107407.72,-47577.73 107407.72,-142717.97 0,-95348.33 -35599.55,-143022.5 -106829.11,-143022.5 -35701.06,0 -62626.59,12018.78 -80771.5,36041.12 -18144.91,24037.56 -27209.75,59692.95 -27209.75,106981.38zm308910.12 0c0,70046.97 -17383.59,123898.01 -52120.3,161532.84 -34746.87,37634.83 -84537.52,56459.85 -149387.17,56459.85 -64849.66,0 -114640.3,-18825.03 -149387.17,-56459.85 -34731.64,-37634.83 -52100,-91673.67 -52100,-162106.37 0,-70453.01 17419.11,-124248.22 52252.27,-161411.03 34823,-37142.5 84776.07,-55728.98 149813.51,-55728.98 65037.45,0 114787.49,18723.52 149234.91,56170.55 34457.57,37436.88 51693.96,91282.86 51693.96,161542.99z"/>
  <path class="fil1" d="M3972298.96 781601.52c0,38061.17 -13688.62,68057.37 -41086.17,89973.38 -27402.62,21910.93 -65519.62,32879.08 -114356.08,32879.08 -44984.15,0 -84791.29,-8465.93 -119385.9,-25367.35l0 -83070.7c28453.25,12683.67 52531.42,21636.85 72234.51,26824.01 19713.24,5187.16 37736.34,7785.82 54084.52,7785.82 19601.58,0 34645.36,-3755.87 45131.34,-11242.23 10475.83,-7496.51 15708.67,-18657.54 15708.67,-33452.62 0,-8262.91 -2309.35,-15622.39 -6917.91,-22063.2 -4608.55,-6440.81 -11389.42,-12648.14 -20327.37,-18611.86 -8943.03,-5938.33 -27164.07,-15470.12 -54652.98,-28544.61 -25768.31,-12115.22 -45095.81,-23743.19 -57967.28,-34883.91 -12886.69,-11150.87 -23169.65,-24123.85 -30853.96,-38944.31 -7689.38,-14805.23 -11541.69,-32107.61 -11541.69,-51912.21 0,-37284.62 12648.14,-66605.78 37924.13,-87953.33 25275.99,-21337.4 60215.72,-32001.02 104834.44,-32001.02 21910.93,0 42821.99,2588.5 62723.02,7785.82 19890.88,5187.16 40705.5,12495.88 62438.79,21916.01l-28844.06 69493.74c-22489.54,-9227.26 -41091.24,-15657.92 -55794.96,-19322.43 -14703.72,-3659.44 -29184.12,-5481.54 -43400.59,-5481.54 -16926.79,0 -29899.77,3943.66 -38944.31,11836.06 -9039.46,7882.25 -13546.51,18155.06 -13546.51,30848.89 0,7887.33 1817.03,14754.48 5476.46,20606.53 3639.13,5877.43 9465.81,11541.69 17439.42,17033.38 7988.84,5471.39 26879.84,15328.01 56678.1,29544.48 39390.95,18850.4 66412.91,37741.41 81035.42,56678.1 14602.21,18936.69 21910.93,42157.1 21910.93,69646z"/>
  <polygon class="fil1" points="3654846.78,898515.65 3410583.3,898515.65 3410583.3,474401.85 3654846.78,474401.85 3654846.78,548077.8 3500511,548077.8 3500511,641208.14 3644122.25,641208.14 3644122.25,714889.16 3500511,714889.16 3500511,824250.94 3654846.78,824250.94 "/>
  <path class="fil1" d="M2856318.47 723370.32c-28382.19,-91298.08 -44344.64,-142920.99 -47907.64,-154889.01 -3588.38,-11952.8 -6141.35,-21423.68 -7689.38,-28366.97 -6364.68,24702.46 -24611.1,85796.24 -54708.81,183255.98l110305.83 0zm52105.08 176023.39l-30691.54 -100748.66 -154300.26 0 -30691.54 100748.66 -96698.41 0 149392.25 -424991.86 109717.07 0 149975.93 424991.86 -96703.49 0z"/>
  <path class="fil1" d="M1573998.63 781601.52c0,38061.17 -13703.85,68057.37 -41101.39,89973.38 -27387.39,21910.93 -65504.39,32879.08 -114340.85,32879.08 -44994.3,0 -84791.29,-8465.93 -119401.12,-25367.35l0 -83070.7c28458.32,12683.67 52546.64,21636.85 72249.73,26824.01 19713.24,5187.16 37736.34,7785.82 54069.29,7785.82 19616.8,0 34660.59,-3755.87 45136.42,-11242.23 10470.76,-7496.51 15718.82,-18657.54 15718.82,-33452.62 0,-8262.91 -2324.58,-15622.39 -6917.91,-22063.2 -4618.7,-6440.81 -11389.42,-12648.14 -20342.6,-18611.86 -8927.8,-5938.33 -27148.85,-15470.12 -54637.75,-28544.61 -25768.31,-12115.22 -45100.89,-23743.19 -57982.5,-34883.91 -12886.69,-11150.87 -23154.43,-24123.85 -30838.73,-38944.31 -7699.53,-14805.23 -11541.69,-32107.61 -11541.69,-51912.21 0,-37284.62 12632.92,-66605.78 37924.13,-87953.33 25275.99,-21337.4 60210.65,-32001.02 104819.21,-32001.02 21926.16,0 42832.14,2588.5 62723.02,7785.82 19906.11,5187.16 40715.66,12495.88 62438.79,21916.01l-28828.84 69493.74c-22504.76,-9227.26 -41091.24,-15657.92 -55810.19,-19322.43 -14703.72,-3659.44 -29179.05,-5481.54 -43400.59,-5481.54 -16926.79,0 -29899.77,3943.66 -38939.23,11836.06 -9029.31,7882.25 -13551.58,18155.06 -13551.58,30848.89 0,7887.33 1832.26,14754.48 5476.46,20606.53 3654.36,5877.43 9465.81,11541.69 17454.64,17033.38 7973.61,5471.39 26864.62,15328.01 56662.87,29544.48 39406.18,18850.4 66428.14,37741.41 81035.42,56678.1 14607.29,18936.69 21926.16,42157.1 21926.16,69646z"/>
 </g>
</svg>
