<?xml version="1.0" encoding="UTF-8"?>
<!DOCTYPE svg PUBLIC "-//W3C//DTD SVG 1.1//EN" "http://www.w3.org/Graphics/SVG/1.1/DTD/svg11.dtd">
<!-- Creator: CorelDRAW 2021 (64-Bit) -->
<svg xmlns="http://www.w3.org/2000/svg" xml:space="preserve" width="197.215mm" height="37.4676mm" version="1.1" style="shape-rendering:geometricPrecision; text-rendering:geometricPrecision; image-rendering:optimizeQuality; fill-rule:evenodd; clip-rule:evenodd"
viewBox="0 0 19281.71 3663.2"
 xmlns:xlink="http://www.w3.org/1999/xlink"
 xmlns:xodm="http://www.corel.com/coreldraw/odm/2003">
 <defs>
  <style type="text/css">
   <![CDATA[
    .str0 {stroke:#fefefe;stroke-width:8.62;stroke-miterlimit:10}
    .fil3 {fill:none}
    .fil5 {fill:none;fill-rule:nonzero}
    .fil1 {fill:#EF464A}
    .fil2 {fill:#EF4446}
    .fil0 {fill:#fefefe}
    .fil4 {fill:#fefefe;fill-rule:nonzero}
   ]]>
  </style>
 </defs>
 <g id="Capa_x0020_1">
  <metadata id="CorelCorpID_0Corel-Layer"/>
  <path class="fil0" d="M4961.16 2227.31l0 -114.48c0,-85.86 18.5,-153.19 55.58,-205.38 42.06,-58.95 104.34,-89.23 186.83,-89.23l390.58 0 0 -63.98c0,-16.8 -5.06,-30.27 -18.51,-43.74 -11.82,-11.78 -25.24,-18.54 -40.41,-18.54l-574.07 0 0 -159.93 562.29 0c124.58,0 200.34,58.92 227.25,175.09 1.68,20.19 3.37,35.35 3.37,43.75l0 489.91c0,42.06 -11.79,84.17 -35.34,121.21 -50.52,80.83 -116.18,121.19 -196.97,121.19l-316.51 0c-47.13,0 -92.57,-16.8 -138.05,-48.81 -43.75,-33.66 -75.72,-72.38 -92.57,-116.13 -8.4,-26.95 -13.47,-57.27 -13.47,-90.93zm200.34 84.17c18.51,8.4 47.13,13.47 89.23,13.47l213.77 0c85.89,0 129.64,-30.33 129.64,-94.26l0 -153.21c0,-60.61 -37.04,-94.25 -109.42,-101.02l-252.53 0c-74.08,8.45 -112.8,42.11 -112.8,101.02l0 153.21c0,38.72 15.15,65.62 42.1,80.79zm813.09 171.69l0 -698.61c0,-16.85 1.7,-33.69 3.38,-55.56 6.76,-62.3 25.25,-107.73 53.89,-136.37 28.59,-28.62 74.06,-47.12 136.36,-57.21 15.12,-1.69 30.28,-3.38 42.06,-3.38l89.23 0 0 159.93 -79.1 0c-57.27,0 -85.9,32.01 -85.9,95.94l0 695.27 -159.93 0zm457.9 0l159.92 0 0 -1267.65 -159.92 0 0 1267.65zm205.4 -577.41l368.67 -373.73 223.9 0 -454.52 457.9 473.07 493.24 -217.2 0 -393.92 -410.77c-25.24,-26.9 -38.72,-53.83 -38.72,-80.78 0,-31.98 13.47,-60.6 38.72,-85.86zm745.78 326.61l0 -424.23c0,-183.53 97.64,-276.11 294.61,-276.11l235.68 0c77.45,0 138.05,21.88 181.79,63.99 45.48,43.74 67.35,102.7 67.35,178.41l0 112.81 -621.2 289.56 0 42.1c8.4,40.38 16.85,67.31 30.32,80.79 13.43,16.85 40.38,25.26 79.11,25.26l523.57 0 0 158.22 -533.66 0c-74.07,0 -136.37,-23.56 -185.19,-69 -48.82,-45.44 -72.39,-106.08 -72.39,-181.8zm158.24 -228.97l462.97 -215.5 0 -15.12c0,-53.88 -32.01,-80.83 -95.98,-80.83l-259.26 0c-72.38,0 -107.73,38.72 -107.73,119.5l0 191.94zm823.24 479.77l0 -1267.65 158.23 0 0 316.51 163.3 0 0 159.93 -163.3 0 0 791.21 -158.23 0zm414.1 0l159.92 0 0 -951.14 -159.92 0 0 951.14zm-28.59 -1159.88c0,-28.64 10.09,-55.57 30.28,-75.76 20.18,-21.87 45.43,-32.01 75.75,-32.01 30.32,0 55.53,11.82 77.45,33.7 21.88,21.87 31.96,48.82 31.96,79.1 0,30.32 -10.08,55.58 -30.27,75.76 -21.92,20.23 -47.17,30.33 -77.44,30.33 -30.32,0 -57.27,-10.1 -77.45,-32.02 -20.19,-20.19 -30.28,-47.13 -30.28,-79.1zm410.72 1159.88l0 -707.04c0,-161.62 89.23,-244.1 267.7,-244.1l249.16 0c178.43,0 269.35,82.48 269.35,244.1l0 707.04 -159.93 0 0 -730.61c-8.4,-38.73 -43.79,-58.92 -107.73,-58.92l-250.84 0c-40.42,0 -67.35,6.72 -84.17,21.88 -16.85,13.47 -25.24,42.11 -25.24,80.83l0 686.82 -158.29 0zm1006.73 309.76l0 -158.24 511.79 0c79.14,0 119.51,-37.04 119.51,-112.79l0 -38.74 -378.76 0c-70.7,0 -129.65,-25.24 -176.78,-75.75 -45.44,-50.51 -69.01,-112.8 -69.01,-183.48l0 -449.51c0,-111.11 47.13,-185.18 143.08,-223.86 30.33,-11.77 57.22,-18.54 80.84,-18.54l335 0c129.61,0 203.68,62.29 222.22,188.57 1.68,16.85 3.33,30.27 3.33,42.06l0 796.29c0,77.44 -26.9,136.36 -80.79,176.77 -47.13,38.73 -111.11,57.22 -191.94,57.22l-518.49 0zm163.3 -567.32c10.09,67.35 43.75,99.33 101.01,99.33l281.14 0c26.95,0 47.16,-8.42 62.29,-25.26 16.85,-18.5 23.56,-42.1 23.56,-72.38l0 -429.27c0,-70.74 -28.59,-106.08 -85.85,-106.08l-291.22 0c-60.61,10.09 -90.93,45.48 -90.93,104.39l0 429.27zm1358.59 257.55l0 -1267.65 550.45 0c237.38,0 356.89,101.02 356.89,303.04l0 180.16c0,102.66 -30.27,181.8 -90.87,235.68 -62.3,55.53 -143.13,82.47 -247.47,82.47l-385.52 0 0 466.3 -183.48 0zm567.31 -648.1c48.82,0 85.85,-8.45 109.41,-25.25 25.26,-16.85 40.42,-48.82 45.44,-95.99l0 -185.18c0,-10.1 0,-18.5 -1.68,-23.57 -5.03,-37.04 -16.82,-63.97 -35.35,-79.1 -16.81,-11.82 -45.44,-20.22 -85.85,-25.24 -1.69,0 -6.72,-1.69 -13.47,-1.69l-402.32 0 0 436.02 383.82 0zm498.32 648.1l0 -698.61c0,-16.85 0,-33.69 3.32,-55.56 6.76,-62.3 25.26,-107.73 52.2,-136.37 28.63,-28.62 74.08,-47.12 138.05,-57.21 15.15,-1.69 28.63,-3.38 40.42,-3.38l89.22 0 0 159.93 -77.45 0c-58.91,0 -87.54,32.01 -87.54,95.94l0 695.27 -158.22 0zm456.2 0l158.24 0 0 -951.14 -158.24 0 0 951.14zm-28.64 -1159.88c0,-28.64 10.1,-55.57 30.32,-75.76 20.19,-21.87 45.45,-32.01 75.77,-32.01 30.27,0 55.53,11.82 77.4,33.7 20.23,21.87 32.01,48.82 32.01,79.1 0,30.32 -11.78,55.58 -32.01,75.76 -20.18,20.23 -45.44,30.33 -75.76,30.33 -31.96,0 -57.22,-10.1 -77.41,-32.02 -20.22,-20.19 -30.32,-47.13 -30.32,-79.1zm409.09 1159.88l0 -707.04c0,-161.62 90.93,-244.1 269.35,-244.1l249.16 0c178.46,0 267.69,82.48 267.69,244.1l0 707.04 -158.28 0 0 -730.61c-8.4,-38.73 -45.44,-58.92 -107.72,-58.92l-250.85 0c-40.37,0 -69.01,6.72 -84.17,21.88 -16.81,13.47 -25.24,42.11 -25.24,80.83l0 686.82 -159.93 0zm1006.72 0l0 -1267.65 159.92 0 0 316.51 163.31 0 0 159.93 -163.31 0 0 791.21 -159.92 0z"/>
  <path class="fil0" d="M1020.17 2367.04c8.41,6.72 806.38,-1191.89 1710.39,-2311.42 21.88,-18.5 20.19,-31.96 75.77,-55.53 57.22,-1.68 74.07,26.95 92.57,38.74 37.04,30.27 69.05,62.28 99.32,94.26 60.64,63.97 119.54,131.32 176.77,196.96 114.49,133.03 223.91,266 329.98,397.3 210.44,260.94 404.02,508.4 570.7,722.22 333.32,427.62 555.54,722.22 563.95,734.01 33.65,45.43 23.55,129.6 -21.88,183.48 -47.13,55.57 -111.11,62.28 -144.81,16.85 -8.4,-11.78 -218.84,-318.19 -535.3,-762.62 -158.29,-223.91 -343.47,-481.47 -543.77,-752.5 -99.32,-136.36 -203.71,-274.41 -311.45,-412.46 -53.88,-67.35 -109.45,-136.36 -164.99,-200.33 -26.95,-33.66 -57.22,-63.98 -84.17,-89.24 -13.47,-26.9 -26.94,8.45 -13.47,-45.43 25.26,47.13 -13.46,26.95 -20.19,50.51 -920.86,1040.39 -1776.07,2208.72 -1779.44,2195.24z"/>
  <path class="fil1" d="M3639.64 2367.04c-8.4,6.72 -806.38,-1191.89 -1710.39,-2311.42 -23.56,-18.5 -20.19,-31.96 -75.77,-55.53 -57.22,-1.68 -74.07,26.95 -92.56,38.74 -37.04,30.27 -69.05,62.28 -99.32,94.26 -62.3,63.97 -119.55,131.32 -176.78,196.96 -114.49,133.03 -223.9,266 -329.98,397.3 -210.44,260.94 -405.71,508.4 -570.69,722.22 -333.33,427.62 -555.55,722.22 -563.95,734.01 -13.47,18.49 -20.19,43.74 -20.19,70.68 0,38.74 15.12,80.84 42.06,112.81 45.44,55.57 111.11,62.28 144.81,16.85 8.41,-11.78 218.84,-318.19 535.31,-762.62 158.28,-223.91 343.46,-481.47 542.1,-752.5 100.98,-136.36 205.37,-274.41 313.1,-412.46 53.88,-67.35 107.77,-136.36 164.99,-200.33 26.95,-33.66 55.58,-63.98 84.17,-89.24 13.47,-26.9 26.94,8.45 13.47,-45.43 -25.25,47.13 13.46,26.95 20.19,50.51 920.86,1040.39 1776.07,2208.72 1779.44,2195.24z"/>
  <path class="fil0" d="M5686.74 3308.1c0,53.88 -47.13,80.79 -139.74,80.79l-84.16 0c-37.04,0 -67.31,-5.03 -89.23,-15.12 -33.66,-13.46 -48.82,-35.34 -48.82,-65.66l0 -138.05c0,-53.88 45.47,-80.8 138.05,-80.8l84.16 0c43.8,0 74.07,3.34 90.93,11.79 31.97,11.78 48.82,35.34 48.82,69.01l0 138.05zm-55.53 -1.7l0 -134.66c0,-25.26 -26.95,-38.73 -82.52,-38.73l-85.85 0c-55.54,0 -84.16,13.46 -84.16,38.73l0 134.66c0,25.26 28.62,37.05 84.16,37.05l85.85 0c55.57,0 82.52,-11.79 82.52,-37.05zm595.96 62.3c0,10.09 -3.39,16.85 -11.82,18.54 -3.34,1.65 -10.1,1.65 -23.57,1.65 -11.78,0 -18.51,-6.72 -18.51,-20.19l0 -193.58 -161.61 198.65c-8.4,10.1 -20.22,16.81 -33.64,16.81 -15.16,0 -26.95,-6.71 -35.39,-16.81l-163.27 -198.65 0 193.58c0,13.47 -6.75,20.19 -20.23,20.19 -11.78,0 -20.18,0 -23.55,-1.65 -6.73,-1.69 -11.79,-8.45 -11.79,-18.54l0 -250.84c0,-18.51 10.09,-26.91 30.32,-26.91 13.47,0 25.25,3.33 31.96,13.42l191.95 227.29 188.51 -227.29c6.75,-10.09 16.85,-15.12 30.32,-15.12 20.19,0 30.33,10.1 30.33,30.29l0 249.16zm409.03 -63.98c0,57.26 -53.83,84.17 -163.27,84.17l-11.77 0 -18.54 0 -16.86 0 -11.77 0c-77.41,0 -122.9,-15.12 -138.02,-43.75 -6.75,-10.1 -8.44,-23.57 -8.44,-40.42l0 -196.96c0,-11.78 6.75,-18.51 18.54,-18.51 11.78,0 20.19,0 23.56,1.7 8.4,1.64 11.78,8.4 11.78,16.81l0 193.61c0,18.51 11.78,30.29 35.35,37.04 6.71,1.64 15.15,3.33 23.56,3.33 10.08,1.7 21.87,1.7 33.66,1.7l75.75 0c28.64,0 47.16,-1.7 57.26,-5.04 23.56,-5.06 35.35,-18.54 35.35,-37.04l0 -193.61c0,-8.41 3.37,-15.16 11.77,-16.81 1.69,-1.7 10.1,-1.7 23.56,-1.7 11.79,0 18.5,6.73 18.5,18.51l0 196.96zm410.77 52.2c0,21.87 -10.09,33.65 -30.27,33.65 -8.45,0 -20.23,-5.03 -30.33,-15.12l-255.86 -215.5 0 208.75c0,10.09 -3.37,16.85 -11.79,18.54 -1.68,0 -5.06,1.65 -8.4,1.65l-15.16 0c-11.78,0 -18.53,-6.72 -18.53,-20.19l0 -249.16c0,-21.87 8.43,-31.97 26.94,-31.97 11.78,0 25.25,5.03 37.03,15.15l252.55 213.77 0 -208.74c0,-8.41 3.33,-15.16 10.08,-16.81 3.39,0 6.72,-1.7 10.1,-1.7l13.48 0c13.45,0 20.17,6.73 20.17,18.51l0 249.16zm94.31 11.78c0,13.47 -6.77,20.19 -20.23,20.19l-13.47 0c-5.03,0 -6.72,-1.65 -10.1,-1.65 -8.4,-1.69 -11.77,-8.45 -11.77,-18.54l0 -260.94c0,-8.41 3.37,-15.16 11.77,-16.81 1.7,0 5.07,-1.7 8.45,-1.7l15.12 0c13.46,0 20.23,6.73 20.23,18.51l0 260.94zm368.67 -254.18c0,13.47 -5.07,18.5 -18.55,18.5l-193.57 0c-47.13,0 -70.7,10.09 -70.7,28.63l0 148.15c0,23.56 25.24,33.66 77.44,33.66l185.19 0c13.47,0 20.19,8.4 20.19,21.87 0,15.16 -6.72,23.56 -20.19,23.56l-185.19 0c-25.24,0 -43.78,-1.65 -53.88,-3.34 -11.78,-1.68 -25.25,-6.76 -37.04,-13.47 -15.16,-6.75 -25.25,-15.15 -31.96,-23.56 -6.77,-10.09 -10.14,-21.87 -10.14,-37.04l0 -149.83c0,-18.54 8.44,-33.65 25.25,-47.13 15.15,-11.79 32.01,-18.54 53.88,-21.92 5.07,-1.64 11.78,-1.64 18.5,-3.34l26.95 0 195.27 0c13.47,0 18.55,8.42 18.55,25.26zm454.51 254.18c0,6.76 -3.33,13.47 -8.4,18.54 -5.07,5.03 -11.79,8.41 -18.5,8.41 -10.14,0 -20.23,-5.07 -25.25,-15.15l-48.82 -70.7 -230.66 0 -48.82 70.7c-5.03,6.75 -10.1,11.77 -16.86,11.77 -5.03,0 -11.78,-3.37 -16.81,-6.72 -6.75,-3.37 -10.09,-8.45 -10.09,-15.15 0,-1.69 1.64,-3.38 1.64,-5.06l173.39 -262.6c6.77,-11.77 18.54,-16.85 35.39,-16.85 13.46,0 21.88,3.37 26.91,10.1l0 3.37c0,0 1.68,1.69 1.68,3.37l183.53 257.57c0,1.68 1.64,5.03 1.64,8.4zm-132.98 -104.36l-82.48 -121.23 -84.16 121.23 166.64 0zm479.78 -149.82c0,13.47 -5.03,18.5 -18.5,18.5l-195.28 0c-47.13,0 -70.73,10.09 -70.73,28.63l0 148.15c0,23.56 26.94,33.66 79.13,33.66l185.19 0c13.47,0 20.19,8.4 20.19,21.87 0,15.16 -6.72,23.56 -20.19,23.56l-185.19 0c-25.24,0 -43.74,-1.65 -53.88,-3.34 -11.77,-1.68 -25.24,-6.76 -37.04,-13.47 -15.12,-6.75 -25.24,-15.15 -31.96,-23.56 -6.76,-10.09 -10.1,-21.87 -10.1,-37.04l0 -149.83c0,-18.54 8.4,-33.65 25.26,-47.13 15.12,-11.79 31.96,-18.54 53.83,-21.92 5.07,-1.64 11.79,-1.64 18.55,-3.34l26.94 0 195.28 0c13.47,0 18.5,8.42 18.5,25.26zm97.68 254.18c0,13.47 -5.07,20.19 -18.55,20.19l-15.15 0c-3.33,0 -6.73,-1.65 -8.41,-1.65 -8.4,-1.69 -11.78,-8.45 -11.78,-18.54l0 -260.94c0,-8.41 3.38,-15.16 11.78,-16.81 1.68,0 5.07,-1.7 8.41,-1.7l15.15 0c13.47,0 18.55,6.73 18.55,18.51l0 260.94zm400.63 -60.6c0,53.88 -45.43,80.79 -138.05,80.79l-85.86 0c-37.03,0 -67.3,-5.03 -89.18,-15.12 -32.01,-13.46 -48.86,-35.34 -48.86,-65.66l0 -138.05c0,-53.88 45.46,-80.8 138.03,-80.8l85.86 0c42.11,0 72.43,3.34 90.92,11.79 32.02,11.78 47.13,35.34 47.13,69.01l0 138.05zm-53.85 -1.7l0 -134.66c0,-25.26 -28.62,-38.73 -82.52,-38.73l-87.54 0c-55.52,0 -84.15,13.46 -84.15,38.73l0 134.66c0,25.26 28.63,37.05 84.15,37.05l87.54 0c53.9,0 82.52,-11.79 82.52,-37.05zm462.93 50.52c0,21.87 -10.09,33.65 -28.59,33.65 -10.13,0 -20.23,-5.03 -32.01,-15.12l-254.18 -215.5 0 208.75c0,10.09 -5.06,16.85 -11.78,18.54 -3.37,0 -6.77,1.65 -10.14,1.65l-13.47 0c-13.42,0 -20.19,-6.72 -20.19,-20.19l0 -249.16c0,-21.87 10.1,-31.97 28.64,-31.97 11.79,0 23.56,5.03 37.04,15.15l250.85 213.77 0 -208.74c0,-8.41 3.33,-15.16 11.78,-16.81 1.69,0 5.03,-1.7 10.1,-1.7l13.46 0c13.47,0 18.5,6.73 18.5,18.51l0 249.16zm550.51 -252.54c0,5.06 -1.69,8.45 -5.06,15.16l-178.43 250.85c-8.44,13.47 -18.53,18.5 -32,18.5 -13.47,0 -23.56,-5.03 -31.98,-16.82l-178.46 -252.53c-3.33,-6.72 -5.03,-10.1 -5.03,-15.16 0,-10.09 8.41,-15.12 26.91,-15.12 13.47,0 21.92,1.7 26.95,8.42l161.61 230.62 161.61 -230.62c3.38,-6.72 13.47,-8.42 26.95,-8.42 18.53,0 26.94,5.04 26.94,15.12zm75.76 264.32c0,13.47 -6.76,20.19 -18.55,20.19l-15.12 0c-3.37,0 -6.76,-1.65 -8.44,-1.65 -8.41,-1.69 -11.78,-8.45 -11.78,-18.54l0 -260.94c0,-8.41 3.37,-15.16 11.78,-16.81 1.68,0 5.06,-1.7 8.44,-1.7l15.12 0c11.79,0 18.55,6.73 18.55,18.51l0 260.94zm368.66 -53.88c0,15.16 -1.68,28.64 -6.71,37.04 -13.47,25.24 -55.57,37.04 -122.9,37.04l-190.24 0c-11.78,0 -18.54,-6.72 -18.54,-20.19 0,-8.4 1.68,-15.16 3.37,-18.5 3.38,-3.37 8.41,-6.75 15.16,-6.75l190.24 0c50.48,0 75.72,-8.42 75.72,-28.64l0 -25.21c0,-18.54 -25.24,-28.64 -74.07,-30.32l-90.88 -3.37 -18.54 0c-6.72,0 -16.82,-1.7 -28.59,-1.7 -18.55,-1.64 -35.39,-8.4 -50.51,-20.19 -15.16,-11.77 -21.92,-26.94 -21.92,-45.43l0 -23.61c0,-33.64 18.54,-57.21 57.26,-69 18.49,-5.03 52.15,-6.73 102.66,-6.73 11.82,0 18.54,8.42 18.54,25.26 0,10.09 -3.37,15.12 -11.77,18.5l-23.56 0c-58.93,0 -89.24,11.78 -89.24,31.96l0 20.24c0,13.47 11.79,21.87 33.66,25.24 3.37,1.69 10.1,1.69 18.54,3.38l30.28 0 72.42 0c35.35,0 62.3,5.02 82.49,13.46 31.96,13.44 47.12,33.66 47.12,60.61l0 26.91zm399 -10.1c0,57.26 -53.88,84.17 -163.3,84.17l-11.78 0 -16.85 0 -18.51 0 -11.77 0c-75.77,0 -122.89,-15.12 -138.05,-43.75 -5.07,-10.1 -8.41,-23.57 -8.41,-40.42l0 -196.96c0,-11.78 6.71,-18.51 18.5,-18.51 13.47,0 20.23,0 23.56,1.7 8.45,1.64 13.47,8.4 13.47,16.81l0 193.61c0,18.51 10.1,30.29 33.69,37.04 6.73,1.64 15.12,3.33 25.21,3.33 8.45,1.7 20.24,1.7 32.02,1.7l75.76 0c28.59,0 48.82,-1.7 57.21,-5.04 23.56,-5.06 35.35,-18.54 35.35,-37.04l0 -193.61c0,-8.41 3.37,-15.16 11.77,-16.81 3.38,-1.7 10.14,-1.7 23.57,-1.7 13.47,0 18.54,6.73 18.54,18.51l0 196.96zm427.58 63.98c0,6.76 -3.33,13.47 -8.4,18.54 -5.03,5.03 -10.1,8.41 -18.5,8.41 -10.1,0 -18.55,-5.07 -25.26,-15.15l-48.81 -70.7 -228.98 0 -48.82 70.7c-5.06,6.75 -11.78,11.77 -16.85,11.77 -6.73,0 -11.78,-3.37 -18.5,-6.72 -5.07,-3.37 -8.45,-8.45 -8.45,-15.15 0,-1.69 0,-3.38 1.69,-5.06l171.74 -262.6c6.72,-11.77 20.19,-16.85 37.04,-16.85 11.78,0 21.87,3.37 25.21,10.1 0,1.69 0,1.69 1.68,3.37 0,0 0,1.69 1.7,3.37l181.83 257.57c1.65,1.68 1.65,5.03 1.65,8.4zm-132.98 -104.36l-82.48 -121.23 -82.47 121.23 164.95 0zm489.9 104.36c0,13.47 -6.76,20.19 -20.23,20.19l-173.39 0c-40.38,0 -72.39,-3.34 -94.26,-11.79 -35.34,-11.77 -52.19,-33.64 -52.19,-67.3l0 -202.03c0,-11.78 6.76,-18.51 18.53,-18.51 13.44,0 20.19,0 23.57,1.7 8.41,1.64 11.78,8.4 11.78,16.81l0 202.03c0,15.15 13.47,25.24 38.72,30.27 8.42,3.39 26.92,3.39 55.53,3.39l171.71 0c13.47,0 20.23,8.4 20.23,25.24zm1063.94 -53.88c0,15.16 -3.37,28.64 -8.4,37.04 -13.47,25.24 -53.88,37.04 -122.9,37.04l-188.56 0c-13.46,0 -20.22,-6.72 -20.22,-20.19 0,-8.4 1.69,-15.16 3.37,-18.5 3.38,-3.37 8.41,-6.75 16.85,-6.75l188.56 0c50.48,0 75.72,-8.42 75.72,-28.64l0 -25.21c0,-18.54 -23.56,-28.64 -74.07,-30.32l-90.88 -3.37 -16.85 0c-8.41,0 -18.54,-1.7 -28.64,-1.7 -20.19,-1.64 -37.04,-8.4 -50.51,-20.19 -15.12,-11.77 -23.56,-26.94 -23.56,-45.43l0 -23.61c0,-33.64 18.54,-57.21 57.26,-69 18.49,-5.03 53.84,-6.73 102.66,-6.73 11.79,0 18.54,8.42 18.54,25.26 0,10.09 -3.37,15.12 -11.77,18.5l-23.57 0c-58.95,0 -89.23,11.78 -89.23,31.96l0 20.24c0,13.47 11.79,21.87 33.66,25.24 5.06,1.69 10.09,1.69 18.54,3.38l30.28 0 72.42 0c35.35,0 62.25,5.02 82.49,13.46 31.96,13.44 48.81,33.66 48.81,60.61l0 26.91zm356.89 -75.72c0,15.12 -6.72,23.56 -20.19,23.56l-262.62 0 0 48.82c0,21.88 23.56,31.98 70.69,31.98l191.93 0c13.47,0 20.19,6.75 20.19,20.22 0,16.82 -6.72,25.21 -20.19,25.21l-195.27 0c-28.63,0 -53.89,-5.03 -77.45,-15.12 -30.32,-13.46 -43.79,-33.7 -43.79,-60.6l0 -148.19c0,-13.42 5.07,-26.9 13.47,-38.68 21.87,-25.25 58.91,-37.04 112.8,-37.04l53.89 0c11.77,0 18.5,8.42 18.5,25.26 0,13.47 -6.73,18.5 -18.5,18.5l-8.45 0 -5.03 0 -1.69 0 -3.38 0 -10.09 0 -8.4 0c-58.93,0 -89.23,10.09 -89.23,31.96l0 52.2 262.62 0c13.47,0 20.19,8.45 20.19,21.92zm395.62 -38.73c0,28.59 -13.47,47.13 -42.06,60.6 -21.92,8.41 -48.83,13.47 -77.45,13.47l-90.92 0 183.48 77.41c8.45,3.37 13.47,10.13 13.47,18.54 0,11.78 -10.1,18.5 -31.97,18.5 -8.41,0 -15.16,0 -20.23,-1.65l-249.12 -106.08 0 87.54c0,13.47 -6.75,20.19 -18.54,20.19 -13.47,0 -21.87,0 -23.56,-1.65 -8.41,-3.37 -11.78,-8.45 -11.78,-18.54l0 -260.94c0,-11.78 6.72,-18.51 18.5,-18.51l220.57 0c33.65,0 62.28,5.04 84.16,13.47 30.28,11.79 45.44,33.66 45.44,62.25l0 35.39zm-53.85 1.69l0 -38.73c0,-20.23 -25.24,-30.32 -75.75,-30.32l-185.19 0 0 95.94 193.58 0c45.43,0 67.35,-8.4 67.35,-26.9zm486.49 -97.68c0,5.06 -1.68,8.45 -5.03,15.16l-176.77 250.85c-10.1,13.47 -20.19,18.5 -33.66,18.5 -13.47,0 -23.56,-5.03 -32.01,-16.82l-178.43 -252.53c-3.37,-6.72 -5.05,-10.1 -5.05,-15.16 0,-10.09 8.4,-15.12 26.94,-15.12 13.47,0 21.88,1.7 26.95,8.42l161.61 230.62 161.61 -230.62c3.33,-6.72 13.47,-8.42 26.9,-8.42 18.55,0 26.95,5.04 26.95,15.12zm75.76 264.32c0,13.47 -5.03,20.19 -18.49,20.19l-13.47 0c-5.07,0 -8.42,-1.65 -10.1,-1.65 -8.45,-1.69 -11.78,-8.45 -11.78,-18.54l0 -260.94c0,-8.41 3.33,-15.16 11.78,-16.81 1.68,0 5.03,-1.7 8.41,-1.7l15.16 0c13.46,0 18.49,6.73 18.49,18.51l0 260.94zm370.35 -254.18c0,13.47 -6.71,18.5 -18.5,18.5l-195.26 0c-47.18,0 -70.75,10.09 -70.75,28.63l0 148.15c0,23.56 26.95,33.66 79.14,33.66l185.18 0c13.47,0 20.18,8.4 20.18,21.87 0,15.16 -6.71,23.56 -20.18,23.56l-185.18 0c-25.26,0 -43.79,-1.65 -53.88,-3.34 -11.79,-1.68 -25.26,-6.76 -37.04,-13.47 -15.16,-6.75 -25.26,-15.15 -31.97,-23.56 -6.77,-10.09 -10.1,-21.87 -10.1,-37.04l0 -149.83c0,-18.54 8.41,-33.65 25.25,-47.13 15.12,-11.79 31.97,-18.54 53.85,-21.92 5.05,-1.64 10.09,-1.64 18.53,-3.34l26.96 0 195.26 0c11.79,0 18.5,8.42 18.5,25.26zm97.64 254.18c0,13.47 -6.71,20.19 -18.5,20.19l-15.15 0c-3.34,0 -6.72,-1.65 -8.41,-1.65 -8.41,-1.69 -11.78,-8.45 -11.78,-18.54l0 -260.94c0,-8.41 3.37,-15.16 11.78,-16.81 1.69,0 3.37,-1.7 8.41,-1.7l15.15 0c11.79,0 18.5,6.73 18.5,18.51l0 260.94zm400.67 -60.6c0,53.88 -45.43,80.79 -138.04,80.79l-85.85 0c-37.04,0 -67.32,-5.03 -89.23,-15.12 -31.97,-13.46 -48.82,-35.34 -48.82,-65.66l0 -138.05c0,-53.88 45.48,-80.8 138.05,-80.8l85.85 0c42.1,0 72.39,3.34 90.93,11.79 31.96,11.78 47.12,35.34 47.12,69.01l0 138.05zm-53.83 -1.7l0 -134.66c0,-25.26 -28.64,-38.73 -84.21,-38.73l-85.85 0c-55.53,0 -84.17,13.46 -84.17,38.73l0 134.66c0,25.26 28.64,37.05 84.17,37.05l87.54 0c53.88,0 82.52,-11.79 82.52,-37.05zm422.51 8.42c0,15.16 -3.34,28.64 -8.41,37.04 -13.47,25.24 -53.88,37.04 -122.89,37.04l-188.56 0c-13.47,0 -20.19,-6.72 -20.19,-20.19 0,-8.4 1.69,-15.16 3.38,-18.5 3.33,-3.37 8.41,-6.75 16.81,-6.75l188.56 0c50.51,0 75.75,-8.42 75.75,-28.64l0 -25.21c0,-18.54 -23.56,-28.64 -74.07,-30.32l-89.22 -3.37 -18.5 0c-8.45,0 -16.86,-1.7 -28.64,-1.7 -20.19,-1.64 -37.04,-8.4 -50.51,-20.19 -15.15,-11.77 -23.56,-26.94 -23.56,-45.43l0 -23.61c0,-33.64 20.19,-57.21 57.22,-69 18.55,-5.03 53.88,-6.73 102.7,-6.73 13.47,0 18.54,8.42 18.54,25.26 0,10.09 -3.37,15.12 -11.82,18.5l-21.87 0c-60.6,0 -90.89,11.78 -90.89,31.96l0 20.24c0,13.47 11.79,21.87 33.66,25.24 5.03,1.69 11.79,1.69 18.5,3.38l30.33 0 72.38 0c35.34,0 63.98,5.02 82.47,13.46 32.01,13.44 48.83,33.66 48.83,60.61l0 26.91zm-9678.24 -200.3c0,13.47 -5.06,18.5 -18.54,18.5l-195.28 0c-47.13,0 -70.69,10.09 -70.69,28.63l0 148.15c0,23.56 26.9,33.66 79.1,33.66l185.19 0c13.46,0 20.22,8.4 20.22,21.87 0,15.16 -6.76,23.56 -20.22,23.56l-185.19 0c-25.25,0 -43.75,-1.65 -53.84,-3.34 -11.78,-1.68 -25.25,-6.76 -37.04,-13.47 -15.16,-6.75 -25.24,-15.15 -32.01,-23.56 -6.71,-10.09 -10.09,-21.87 -10.09,-37.04l0 -149.83c0,-18.54 8.41,-33.65 25.25,-47.13 15.15,-11.79 31.97,-18.54 53.89,-21.92 5.03,-1.64 11.78,-1.64 18.49,-3.34l26.95 0 195.28 0c13.47,0 18.54,8.42 18.54,25.26z"/>
  <path class="fil0" d="M11952.62 3151.54l-173.39 0 0 -173.4c0,-25.25 -20.19,-45.44 -45.43,-45.44 -25.26,0 -45.48,20.19 -45.48,45.44l0 173.4 -175.09 0c-25.26,0 -45.45,20.19 -45.45,45.43 0,25.24 20.19,45.48 45.45,45.48l175.09 0 0 173.39c0,25.25 20.22,45.44 45.48,45.44 25.24,0 45.43,-20.19 45.43,-45.44l0 -173.39 173.39 0c25.25,0 45.44,-20.24 45.44,-45.48 0,-25.24 -20.19,-45.43 -45.44,-45.43z"/>
  <path class="fil2" d="M15488.81 3663.2l-89.04 0c-12.58,0 -22.76,-10.22 -22.76,-22.8l0 -2898.52c0,-12.58 10.18,-22.79 22.76,-22.79l89.04 0c12.58,0 22.8,10.21 22.8,22.79l0 2898.52c0,12.58 -10.22,22.8 -22.8,22.8z"/>
  <path class="fil0" d="M19277.4 2986.58c0,31.81 -7.08,60.09 -17.66,77.75 -28.28,52.99 -113.08,77.68 -257.93,77.68l-395.65 0c-28.27,0 -42.42,-14.11 -42.42,-42.38 0,-17.66 3.54,-31.77 7.08,-38.84 7.08,-7.08 17.66,-14.11 35.34,-14.11l395.65 0c106,0 159,-17.7 159,-60.09l0 -52.99c0,-38.84 -49.47,-60.04 -155.46,-63.58l-190.78 -7.08 -35.33 0c-17.66,0 -38.84,-3.54 -60.04,-3.54 -42.39,-3.53 -77.74,-17.66 -106,-42.37 -31.78,-24.74 -49.46,-56.54 -49.46,-95.39l0 -49.45c0,-70.67 38.89,-120.12 120.15,-144.85 38.85,-10.63 113.04,-14.13 215.51,-14.13 24.69,0 38.83,17.66 38.83,53.01 0,21.15 -7.07,31.77 -24.73,38.84l-49.46 0c-123.65,0 -187.24,24.73 -187.24,67.12l0 42.37c0,28.28 24.74,45.93 70.67,53.01 10.61,3.53 21.19,3.53 38.83,7.07l63.62 0 151.89 0c74.2,0 130.74,10.58 173.11,28.27 67.12,28.24 102.47,70.66 102.47,127.15l0 56.54z"/>
  <path class="fil3 str0" d="M19277.4 2986.58c0,31.81 -7.08,60.09 -17.66,77.75 -28.28,52.99 -113.08,77.68 -257.93,77.68l-395.65 0c-28.27,0 -42.42,-14.11 -42.42,-42.38 0,-17.66 3.54,-31.77 7.08,-38.84 7.08,-7.08 17.66,-14.11 35.34,-14.11l395.65 0c106,0 159,-17.7 159,-60.09l0 -52.99c0,-38.84 -49.47,-60.04 -155.46,-63.58l-190.78 -7.08 -35.33 0c-17.66,0 -38.84,-3.54 -60.04,-3.54 -42.39,-3.53 -77.74,-17.66 -106,-42.37 -31.78,-24.74 -49.46,-56.54 -49.46,-95.39l0 -49.45c0,-70.67 38.89,-120.12 120.15,-144.85 38.85,-10.63 113.04,-14.13 215.51,-14.13 24.69,0 38.83,17.66 38.83,53.01 0,21.15 -7.07,31.77 -24.73,38.84l-49.46 0c-123.65,0 -187.24,24.73 -187.24,67.12l0 42.37c0,28.28 24.74,45.93 70.67,53.01 10.61,3.53 21.19,3.53 38.83,7.07l63.62 0 151.89 0c74.2,0 130.74,10.58 173.11,28.27 67.12,28.24 102.47,70.66 102.47,127.15l0 56.54z"/>
  <path class="fil0" d="M15991.91 2877.06l176.66 -254.39 173.12 254.39 -349.78 0zm625.31 201.39l-385.08 -540.53c0,-3.55 -3.49,-7.08 -3.49,-7.08l0 -7.08c-10.62,-14.08 -28.32,-21.16 -56.54,-21.16 -35.35,0 -60.09,10.58 -74.2,35.31l-363.89 551.16c0,3.48 -3.49,7.03 -3.49,10.56 0,14.13 7.04,24.74 21.15,31.81 10.62,7.04 24.74,14.12 35.3,14.12 14.16,0 24.78,-10.62 35.35,-24.74l102.46 -148.38 483.99 0 102.46 148.38c10.58,21.2 31.81,31.81 52.96,31.81 14.16,0 28.27,-7.08 38.89,-17.7 10.58,-10.58 17.65,-24.69 17.65,-38.84 0,-7.03 -3.54,-14.11 -3.54,-17.66z"/>
  <path class="fil3 str0" d="M15991.91 2877.06l176.66 -254.39 173.12 254.39 -349.78 0zm625.31 201.39l-385.08 -540.53c0,-3.55 -3.49,-7.08 -3.49,-7.08l0 -7.08c-10.62,-14.08 -28.32,-21.16 -56.54,-21.16 -35.35,0 -60.09,10.58 -74.2,35.31l-363.89 551.16c0,3.48 -3.49,7.03 -3.49,10.56 0,14.13 7.04,24.74 21.15,31.81 10.62,7.04 24.74,14.12 35.3,14.12 14.16,0 24.78,-10.62 35.35,-24.74l102.46 -148.38 483.99 0 102.46 148.38c10.58,21.2 31.81,31.81 52.96,31.81 14.16,0 28.27,-7.08 38.89,-17.7 10.58,-10.58 17.65,-24.69 17.65,-38.84 0,-7.03 -3.54,-14.11 -3.54,-17.66z"/>
  <path class="fil0" d="M18289.9 2968.93c0,52.96 -56.54,77.73 -173.12,77.73l-180.19 0c-116.58,0 -176.66,-24.77 -176.66,-77.73l0 -282.62c0,-52.99 60.08,-81.26 176.66,-81.26l180.19 0c116.58,0 173.12,28.27 173.12,81.26l0 282.62zm14.16 -431c-35.39,-17.69 -98.93,-24.74 -190.78,-24.74l-176.69 0c-194.31,0 -289.65,56.5 -289.65,169.58l0 289.69c0,63.57 31.81,109.49 102.42,137.77 45.96,21.19 109.5,31.81 187.23,31.81l176.69 0c194.28,0 293.19,-56.54 293.19,-169.58l0 -289.69c0,-70.65 -35.34,-120.12 -102.41,-144.85z"/>
  <path class="fil3 str0" d="M18289.9 2968.93c0,52.96 -56.54,77.73 -173.12,77.73l-180.19 0c-116.58,0 -176.66,-24.77 -176.66,-77.73l0 -282.62c0,-52.99 60.08,-81.26 176.66,-81.26l180.19 0c116.58,0 173.12,28.27 173.12,81.26l0 282.62zm14.16 -431c-35.39,-17.69 -98.93,-24.74 -190.78,-24.74l-176.69 0c-194.31,0 -289.65,56.5 -289.65,169.58l0 289.69c0,63.57 31.81,109.49 102.42,137.77 45.96,21.19 109.5,31.81 187.23,31.81l176.69 0c194.28,0 293.19,-56.54 293.19,-169.58l0 -289.69c0,-70.65 -35.34,-120.12 -102.41,-144.85z"/>
  <path class="fil0" d="M17512.66 3074.91c0,45.91 -21.2,70.65 -63.62,70.65 -17.66,0 -42.38,-10.58 -63.57,-31.78l-537 -452.22 0 438.07c0,21.2 -7.05,35.35 -24.74,38.89 -3.5,0 -10.58,3.5 -17.65,3.5l-31.77 0c-24.78,0 -38.89,-14.12 -38.89,-42.39l0 -522.84c0,-45.92 17.66,-67.11 56.53,-67.11 24.74,0 53.01,10.58 77.7,31.77l529.97 448.69 0 -438.07c0,-17.71 7.03,-31.81 21.19,-35.35 7.08,0 14.11,-3.5 21.19,-3.5l28.28 0c28.27,0 42.38,14.12 42.38,38.85l0 522.84z"/>
  <path class="fil3 str0" d="M17512.66 3074.91c0,45.91 -21.2,70.65 -63.62,70.65 -17.66,0 -42.38,-10.58 -63.57,-31.78l-537 -452.22 0 438.07c0,21.2 -7.05,35.35 -24.74,38.89 -3.5,0 -10.58,3.5 -17.65,3.5l-31.77 0c-24.78,0 -38.89,-14.12 -38.89,-42.39l0 -522.84c0,-45.92 17.66,-67.11 56.53,-67.11 24.74,0 53.01,10.58 77.7,31.77l529.97 448.69 0 -438.07c0,-17.71 7.03,-31.81 21.19,-35.35 7.08,0 14.11,-3.5 21.19,-3.5l28.28 0c28.27,0 42.38,14.12 42.38,38.85l0 522.84z"/>
  <path class="fil4" d="M17209.88 2373.45c-17.94,0 -46.93,-13.1 -86.98,-39.37 -40.1,-26.25 -79.62,-39.4 -118.58,-39.4 -32.34,0 -62.38,12.71 -90.08,38 -28.27,26.25 -42.34,55.49 -42.34,87.79 0,14.19 7.96,21.31 24,21.31 13.82,0 22.93,-10.74 27.35,-32.29 4.42,-21.52 17.25,-32.24 38.64,-32.24 11.34,0 42.43,12.09 93.37,36.26 50.92,24.21 95.87,36.31 134.83,36.31 37.41,0 70.49,-13.19 99.21,-39.62 28.79,-26.38 43.15,-57.94 43.15,-94.78 0,-13.8 -7.51,-20.75 -22.63,-20.75 -15.72,0 -24.49,4.59 -26.38,13.72 0,2.82 -0.97,9.57 -2.82,20.22 -7.84,29.89 -31.4,44.84 -70.74,44.84z"/>
  <path class="fil5 str0" d="M17209.88 2373.45c-17.94,0 -46.93,-13.1 -86.98,-39.37 -40.1,-26.25 -79.62,-39.4 -118.58,-39.4 -32.34,0 -62.38,12.71 -90.08,38 -28.27,26.25 -42.34,55.49 -42.34,87.79 0,14.19 7.96,21.31 24,21.31 13.82,0 22.93,-10.74 27.35,-32.29 4.42,-21.52 17.25,-32.24 38.64,-32.24 11.34,0 42.43,12.09 93.37,36.26 50.92,24.21 95.87,36.31 134.83,36.31 37.41,0 70.49,-13.19 99.21,-39.62 28.79,-26.38 43.15,-57.94 43.15,-94.78 0,-13.8 -7.51,-20.75 -22.63,-20.75 -15.72,0 -24.49,4.59 -26.38,13.72 0,2.82 -0.97,9.57 -2.82,20.22 -7.84,29.89 -31.4,44.84 -70.74,44.84z"/>
  <path class="fil4" d="M17037.67 1971.56l0 -646.39c-120.35,92.36 -201.26,138.53 -242.92,138.53 -19.95,0 -37.52,-7.88 -53,-23.77 -15.36,-15.84 -23.08,-34.25 -23.08,-55.01 0,-24.17 7.64,-41.98 22.76,-53.32 15.12,-11.33 41.9,-26.07 80.26,-44.03 57.26,-26.95 103.12,-55.38 137.44,-85.22 34.35,-29.88 64.75,-63.26 91.29,-100.21 26.54,-36.87 43.79,-59.63 51.84,-68.19 8.04,-8.45 23.24,-12.71 45.48,-12.71 25.09,0 45.2,9.69 60.39,29.08 15.12,19.46 22.68,46.17 22.68,80.26l0 813.3c0,95.19 -32.45,142.75 -97.28,142.75 -28.9,0 -52.06,-9.69 -69.64,-29.08 -17.49,-19.46 -26.22,-48.04 -26.22,-86z"/>
  <path class="fil5 str0" d="M17037.67 1971.56l0 -646.39c-120.35,92.36 -201.26,138.53 -242.92,138.53 -19.95,0 -37.52,-7.88 -53,-23.77 -15.36,-15.84 -23.08,-34.25 -23.08,-55.01 0,-24.17 7.64,-41.98 22.76,-53.32 15.12,-11.33 41.9,-26.07 80.26,-44.03 57.26,-26.95 103.12,-55.38 137.44,-85.22 34.35,-29.88 64.75,-63.26 91.29,-100.21 26.54,-36.87 43.79,-59.63 51.84,-68.19 8.04,-8.45 23.24,-12.71 45.48,-12.71 25.09,0 45.2,9.69 60.39,29.08 15.12,19.46 22.68,46.17 22.68,80.26l0 813.3c0,95.19 -32.45,142.75 -97.28,142.75 -28.9,0 -52.06,-9.69 -69.64,-29.08 -17.49,-19.46 -26.22,-48.04 -26.22,-86z"/>
  <path class="fil4" d="M18164.94 1203.04l-337.38 0 -40.49 230.17c67.2,-36 129.19,-54.05 186.07,-54.05 45.51,0 87.97,8.53 127.47,25.63 39.53,17 74.28,40.61 104.11,70.65 29.8,30.07 53.25,65.75 70.3,106.88 17,41.26 25.57,85.53 25.57,132.82 0,68.68 -15.35,131.22 -46.17,187.56 -30.8,56.36 -75.18,101.12 -133.18,134.22 -57.99,33.13 -124.85,49.71 -200.7,49.71 -84.76,0 -153.53,-15.6 -206.25,-46.81 -52.83,-31.28 -90.23,-67.2 -112.32,-107.61 -22.03,-40.5 -33.01,-75.93 -33.01,-106.24 0,-18.47 7.71,-35.95 23.08,-52.56 15.45,-16.61 34.74,-24.81 57.9,-24.81 39.77,0 69.33,22.93 88.79,68.85 18.9,42.14 44.55,74.91 76.72,98.4 32.22,23.45 68.2,35.19 107.97,35.19 36.48,0 68.46,-9.53 95.88,-28.43 27.42,-18.98 48.61,-45.03 63.57,-78.14 14.95,-33.17 22.35,-70.8 22.35,-112.95 0,-45.44 -8.04,-84.28 -24.17,-116.49 -16.08,-32.22 -37.59,-56.18 -64.57,-72.14 -27.03,-15.85 -57.07,-23.72 -90.2,-23.72 -40.74,0 -69.89,4.95 -87.39,14.87 -17.49,9.93 -42.74,27.35 -75.67,52.23 -32.86,24.82 -59.96,37.33 -81.31,37.33 -23.16,0 -43.8,-8.41 -61.82,-25.25 -17.97,-16.82 -27.01,-35.87 -27.01,-57.14 0,-2.42 2.64,-18.51 7.88,-48.35l59.67 -340.23c6.55,-40.7 18.87,-70.34 36.88,-88.83 17.97,-18.37 47.42,-27.67 88.14,-27.67l375.03 0c73.84,0 110.83,28.2 110.83,84.52 0,24.66 -9.05,44.52 -27.06,59.64 -17.97,15.21 -44.52,22.77 -79.51,22.77z"/>
  <path class="fil5 str0" d="M18164.94 1203.04l-337.38 0 -40.49 230.17c67.2,-36 129.19,-54.05 186.07,-54.05 45.51,0 87.97,8.53 127.47,25.63 39.53,17 74.28,40.61 104.11,70.65 29.8,30.07 53.25,65.75 70.3,106.88 17,41.26 25.57,85.53 25.57,132.82 0,68.68 -15.35,131.22 -46.17,187.56 -30.8,56.36 -75.18,101.12 -133.18,134.22 -57.99,33.13 -124.85,49.71 -200.7,49.71 -84.76,0 -153.53,-15.6 -206.25,-46.81 -52.83,-31.28 -90.23,-67.2 -112.32,-107.61 -22.03,-40.5 -33.01,-75.93 -33.01,-106.24 0,-18.47 7.71,-35.95 23.08,-52.56 15.45,-16.61 34.74,-24.81 57.9,-24.81 39.77,0 69.33,22.93 88.79,68.85 18.9,42.14 44.55,74.91 76.72,98.4 32.22,23.45 68.2,35.19 107.97,35.19 36.48,0 68.46,-9.53 95.88,-28.43 27.42,-18.98 48.61,-45.03 63.57,-78.14 14.95,-33.17 22.35,-70.8 22.35,-112.95 0,-45.44 -8.04,-84.28 -24.17,-116.49 -16.08,-32.22 -37.59,-56.18 -64.57,-72.14 -27.03,-15.85 -57.07,-23.72 -90.2,-23.72 -40.74,0 -69.89,4.95 -87.39,14.87 -17.49,9.93 -42.74,27.35 -75.67,52.23 -32.86,24.82 -59.96,37.33 -81.31,37.33 -23.16,0 -43.8,-8.41 -61.82,-25.25 -17.97,-16.82 -27.01,-35.87 -27.01,-57.14 0,-2.42 2.64,-18.51 7.88,-48.35l59.67 -340.23c6.55,-40.7 18.87,-70.34 36.88,-88.83 17.97,-18.37 47.42,-27.67 88.14,-27.67l375.03 0c73.84,0 110.83,28.2 110.83,84.52 0,24.66 -9.05,44.52 -27.06,59.64 -17.97,15.21 -44.52,22.77 -79.51,22.77z"/>
 </g>
</svg>
