<?xml version="1.0" encoding="UTF-8"?>
<!DOCTYPE svg PUBLIC "-//W3C//DTD SVG 1.1//EN" "http://www.w3.org/Graphics/SVG/1.1/DTD/svg11.dtd">
<!-- Creator: CorelDRAW 2021 (64-Bit) -->
<svg xmlns="http://www.w3.org/2000/svg" xml:space="preserve" width="20.4549mm" height="20.4549mm" version="1.1" style="shape-rendering:geometricPrecision; text-rendering:geometricPrecision; image-rendering:optimizeQuality; fill-rule:evenodd; clip-rule:evenodd"
viewBox="0 0 689.79 689.79"
 xmlns:xlink="http://www.w3.org/1999/xlink"
 xmlns:xodm="http://www.corel.com/coreldraw/odm/2003">
 <defs>
  <style type="text/css">
   <![CDATA[
    .fil1 {fill:#f9fafb;fill-rule:nonzero}
   ]]>
  </style>
 </defs>
 <g id="Capa_x0020_1">
  <metadata id="CorelCorpID_0Corel-Layer"/>  
  <path class="fil1" d="M197.08 194.91l115.87 0 0 37.2 -115.87 0 0 -37.2zm132.28 4.1l162.16 0 0 127.24 -162.16 0 0 -127.24zm-22.31 63.07c0,0.21 -0.18,0.39 -0.39,0.39l-104.25 0c-0.21,0 -0.39,-0.18 -0.39,-0.39l0 -6.18c0,-0.22 0.18,-0.39 0.39,-0.39l104.25 0c0.22,0 0.39,0.17 0.39,0.39l0 6.18zm0 20.63c0,0.22 -0.18,0.39 -0.39,0.39l-104.25 0c-0.21,0 -0.39,-0.18 -0.39,-0.39l0 -6.19c0,-0.22 0.18,-0.39 0.39,-0.39l104.25 0c0.22,0 0.39,0.17 0.39,0.39l0 6.19zm0 19.56c0,0.22 -0.18,0.39 -0.39,0.39l-104.25 0c-0.21,0 -0.39,-0.17 -0.39,-0.39l0 -6.18c0,-0.21 0.18,-0.39 0.39,-0.39l104.25 0c0.22,0 0.39,0.18 0.39,0.39l0 6.18zm0 19.82c0,0.22 -0.18,0.4 -0.39,0.4l-104.25 0c-0.21,0 -0.39,-0.18 -0.39,-0.4l0 -6.18c0,-0.22 0.18,-0.39 0.39,-0.39l104.25 0c0.22,0 0.39,0.18 0.39,0.39l0 6.18zm0 20.88c0,0.22 -0.18,0.39 -0.39,0.39l-104.25 0c-0.21,0 -0.39,-0.18 -0.39,-0.39l0 -6.18c0,-0.22 0.18,-0.39 0.39,-0.39l104.25 0c0.22,0 0.39,0.17 0.39,0.39l0 6.18zm0 19.56c0,0.22 -0.18,0.39 -0.39,0.39l-104.25 0c-0.21,0 -0.39,-0.17 -0.39,-0.39l0 -6.18c0,-0.22 0.18,-0.39 0.39,-0.39l104.25 0c0.22,0 0.39,0.17 0.39,0.39l0 6.18zm-144.81 22.37l347.25 0 0 -208.35 -347.25 0 0 208.35z"/>
  <path class="fil1" d="M561.16 571.62c0,0.22 -0.18,0.39 -0.39,0.39l-32.54 0c-0.21,0 -0.39,-0.17 -0.39,-0.39l0 -6.19c0,-0.22 0.18,-0.38 0.39,-0.38l32.54 0c0.21,0 0.39,0.17 0.39,0.38l0 6.19zm-43.62 0c0,0.22 -0.17,0.39 -0.39,0.39l-194.58 0c-0.22,0 -0.39,-0.17 -0.39,-0.39l0 -6.19c0,-0.22 0.18,-0.38 0.39,-0.38l194.58 0c0.22,0 0.39,0.17 0.39,0.38l0 6.19zm-74.34 16.02c0,0.22 -0.17,0.39 -0.39,0.39l-277 0c-0.22,0 -0.4,-0.17 -0.4,-0.39l0 -6.18c0,-0.21 0.18,-0.39 0.4,-0.39l277 0c0.22,0 0.39,0.18 0.39,0.39l0 6.18zm-289.2 -16.02l0 -6.19c0,-0.22 0.18,-0.38 0.39,-0.38l104.25 0c0.21,0 0.39,0.17 0.39,0.38l0 6.19c0,0.22 -0.18,0.39 -0.39,0.39l-104.25 0c-0.21,0 -0.39,-0.17 -0.39,-0.39zm92.31 -25.49l-21.03 0 0 -130.36 21.03 0 0 130.36zm208.49 0l-21.03 0 0 -130.36 21.03 0 0 130.36zm-313.92 -385.61l384.65 0 0 245.75 -384.65 0 0 -245.75zm-5.69 69.26l-6.18 0c-0.22,0 -0.39,-0.18 -0.39,-0.39l0 -88.68 0 -6.18c0,-0.21 0.17,-0.39 0.39,-0.39l6.18 0 25.72 0c0.21,0 0.39,0.18 0.39,0.39l0 6.18c0,0.22 -0.18,0.39 -0.39,0.39l-25.33 0 0 88.29c0,0.22 -0.18,0.39 -0.39,0.39zm37.74 -128.03l42.74 0 0 32.06 -10.68 0 0 16.02 -16.03 0 0 -16.02 -16.02 0 0 -32.06zm74.8 0l32.05 0 0 32.06 -16.02 0 -16.02 0 0 -32.06zm64.11 0l48.08 0 0 32.06 -21.37 0 0 16.02 -10.69 0 0 -16.02 -16.03 0 0 -32.06zm74.8 0l26.71 0 0 29.37 0 18.72 -10.69 0 0 -16.02 -16.02 0 0 -32.06zm58.76 0l48.08 0 0 32.06 -16.03 0 0 16.02 -10.68 0 0 -16.02 -21.37 0 0 -32.06zm101.1 220.22l6.19 0c0.21,0 0.39,0.17 0.39,0.39l0 107.11 0 6.18c0,0.22 -0.18,0.39 -0.39,0.39l-6.19 0 -72.11 0c-0.22,0 -0.39,-0.17 -0.39,-0.39l0 -6.18c0,-0.21 0.17,-0.39 0.39,-0.39l71.72 0 0 -106.72c0,-0.22 0.17,-0.39 0.39,-0.39zm-201.61 -321.97c-190.47,0 -344.89,154.41 -344.89,344.89 0,190.48 154.41,344.89 344.89,344.89 190.48,0 344.89,-154.41 344.89,-344.89 0,-190.48 -154.41,-344.89 -344.89,-344.89z"/>
 </g>
</svg>
