<?xml version="1.0" encoding="UTF-8"?>
<!DOCTYPE svg PUBLIC "-//W3C//DTD SVG 1.1//EN" "http://www.w3.org/Graphics/SVG/1.1/DTD/svg11.dtd">
<!-- Creator: CorelDRAW 2021 (64-Bit) -->
<svg xmlns="http://www.w3.org/2000/svg" xml:space="preserve" width="20.4548mm" height="20.4548mm" version="1.1" style="shape-rendering:geometricPrecision; text-rendering:geometricPrecision; image-rendering:optimizeQuality; fill-rule:evenodd; clip-rule:evenodd"
viewBox="0 0 562.7 562.7"
 xmlns:xlink="http://www.w3.org/1999/xlink"
 xmlns:xodm="http://www.corel.com/coreldraw/odm/2003">
 <defs>
  <style type="text/css">
   <![CDATA[
    .fil0 {fill:#f9fafb;fill-rule:nonzero}
   ]]>
  </style>
 </defs>
 <g id="Capa_x0020_1">
  <metadata id="CorelCorpID_0Corel-Layer"/>
  <path class="fil0" d="M491.11 374.33l-150.93 60.27c-0.43,0.17 -0.91,-0.04 -1.08,-0.46l-5.83 -14.6c-0.17,-0.42 0.04,-0.9 0.46,-1.07l150.93 -60.27c0.43,-0.17 0.91,0.03 1.08,0.46l5.83 14.6c0.17,0.43 -0.04,0.91 -0.46,1.08zm-4.2 84.11l-141.17 0 0 -13.23 141.17 0 0 13.23zm-157.12 -45.47l-11.1 -11.13c-0.32,-0.32 -0.32,-0.85 0,-1.17l107.28 -106.98c0.33,-0.32 0.85,-0.32 1.17,0l11.1 11.13c0.32,0.32 0.32,0.84 -0.01,1.17l-107.28 106.98c-0.32,0.32 -0.85,0.32 -1.17,0zm-17.62 -17.08l-14.51 -6.04c-0.42,-0.18 -0.62,-0.66 -0.45,-1.08l60.67 -145.66c0.17,-0.42 0.66,-0.62 1.08,-0.44l14.52 6.04c0.42,0.18 0.62,0.66 0.44,1.09l-60.66 145.66c-0.18,0.42 -0.66,0.62 -1.08,0.44zm-30.62 67.34c-9.95,0 -18.01,-8.07 -18.01,-18.01 0,-9.95 8.06,-18.02 18.01,-18.02 9.95,0 18.01,8.07 18.01,18.02 0,9.94 -8.06,18.01 -18.01,18.01zm-32.11 -67.78l-60.66 -145.66c-0.17,-0.42 0.02,-0.91 0.45,-1.09l14.51 -6.04c0.43,-0.18 0.91,0.02 1.08,0.44l60.67 145.66c0.17,0.42 -0.02,0.91 -0.45,1.08l-14.51 6.04c-0.42,0.18 -0.91,-0.02 -1.08,-0.44zm-5.44 6.4l-11.1 11.13c-0.32,0.32 -0.85,0.32 -1.17,0l-107.27 -106.98c-0.33,-0.33 -0.33,-0.85 -0.01,-1.17l11.11 -11.13c0.32,-0.32 0.84,-0.32 1.16,0l107.28 106.98c0.32,0.32 0.32,0.85 0,1.17zm-14.58 17.69l-5.83 14.6c-0.17,0.43 -0.65,0.64 -1.08,0.46l-150.93 -60.27c-0.43,-0.17 -0.64,-0.65 -0.46,-1.08l5.83 -14.6c0.17,-0.43 0.65,-0.63 1.07,-0.46l150.94 60.27c0.43,0.17 0.63,0.65 0.46,1.07zm-12.47 38.91l-141.17 0 0 -13.23 141.17 0 0 13.23zm-34.93 -257.33c7.31,0 13.23,5.92 13.23,13.23 0,7.31 -5.93,13.23 -13.23,13.23 -7.31,0 -13.23,-5.93 -13.23,-13.23 0,-7.31 5.93,-13.23 13.23,-13.23zm90.83 -154.13c0,-0.46 0.37,-0.83 0.83,-0.83l15.72 0c0.45,0 0.83,0.37 0.83,0.83l0 362.09c0,0.45 -0.37,0.83 -0.83,0.83l-15.72 0c-0.46,0 -0.83,-0.37 -0.83,-0.83l0 -362.09zm177.78 214.42c7.31,0 13.23,5.93 13.23,13.23 0,7.31 -5.93,13.23 -13.23,13.23 -7.31,0 -13.23,-5.93 -13.23,-13.23 0,-7.31 5.93,-13.23 13.23,-13.23zm-169.29 -261.41c-155.38,0 -281.35,125.97 -281.35,281.35 0,155.38 125.97,281.35 281.35,281.35 155.39,0 281.35,-125.97 281.35,-281.35 0,-155.39 -125.97,-281.35 -281.35,-281.35z"/>
</g>
</svg>
