<?xml version="1.0" encoding="UTF-8"?>
<!DOCTYPE svg PUBLIC "-//W3C//DTD SVG 1.1//EN" "http://www.w3.org/Graphics/SVG/1.1/DTD/svg11.dtd">
<!-- Creator: CorelDRAW 2021 (64-Bit) -->
<svg xmlns="http://www.w3.org/2000/svg" xml:space="preserve" width="20.4547mm" height="20.4547mm" version="1.1" style="shape-rendering:geometricPrecision; text-rendering:geometricPrecision; image-rendering:optimizeQuality; fill-rule:evenodd; clip-rule:evenodd"
viewBox="0 0 1419875.87 1419875.87"
 xmlns:xlink="http://www.w3.org/1999/xlink"
 xmlns:xodm="http://www.corel.com/coreldraw/odm/2003">
 <defs>
  <style type="text/css">
   <![CDATA[
    .fil0 {fill:#FEFEFE;fill-rule:nonzero}
   ]]>
  </style>
 </defs>
 <g id="Capa_x0020_1">
  <metadata id="CorelCorpID_0Corel-Layer"/>
  <path class="fil0" d="M553700.71 557740.7c59718.27,79890.45 165639.57,75711.63 220248.85,-7788.43 17860.64,-27321.99 38331.31,-52957.18 56164.19,-80306.94 9593.24,-14702.23 16111.37,-31410.57 24010.87,-47209.57 -2158.83,-2755.8 -4296.83,-5518.54 -6441.77,-8274.34 -12432.34,4560.61 -24989.63,8746.37 -37241.48,13737.35 -16590.34,6761.08 -32639.23,19269.78 -49458.64,20290.19 -59156,3540.2 -118561.89,4546.72 -177842.84,3797.03 -28141.1,-354.02 -55081.3,-8822.73 -78238.36,-27682.95 -7656.54,-6233.52 -20317.95,-6330.71 -30702.53,-9232.28 -1895.05,2367.07 -3797.03,4727.2 -5699.02,7087.34 5796.21,13661 9669.6,28592.3 17756.52,40733.09 21477.2,32292.15 44217.76,63772.14 67444.23,94849.52z"/>
  <path class="fil0" d="M1097454.15 977802.43c-24392.65,26169.69 -49854.3,51520.28 -72289.44,79279.59 -14736.94,18242.43 -24836.91,16861.06 -39358.66,1055.12 -14292.68,-15556.04 -30570.64,-29279.51 -45578.3,-43419.48 -34145.55,20352.66 -34846.65,23524.96 -10821.9,51124.61 15486.63,17805.11 32063.08,34700.87 46994.38,52950.24 10745.54,13154.26 18700.57,13723.47 30938.55,1152.3 38254.95,-39247.6 77363.72,-77696.91 116701.56,-115882.45 10669.18,-10356.81 13647.11,-18485.38 1929.75,-30188.86 -12189.38,-12217.15 -20345.72,-4831.33 -28515.94,3928.92z"/>
  <path class="fil0" d="M1025831.11 1207477.93c-94835.63,222.13 -164466.45,-69235.15 -164438.68,-164063.84 34.71,-92024.3 73330.67,-167048.71 163723.7,-167576.27 89157.43,-513.68 165105.07,76121.18 165341.09,166847.41 236.01,94085.94 -70151.43,164556.69 -164626.11,164792.7zm-186144.95 -263841.86c-14445.39,-4817.44 -27592.71,-19235.07 -36151.66,-32653.11 -2519.79,-3963.63 10460.94,-24108.05 20040.29,-28293.81 27641.3,-12043.61 38442.38,15507.45 59162.94,28856.08 -15167.31,14903.54 -20720.57,39518.32 -43051.57,32090.85zm-45619.95 155393.83c-43849.85,2832.16 -87998.19,812.16 -132028.53,812.16 0,1193.95 -13.88,2380.96 -13.88,3588.79 -34249.67,0 -68506.28,152.71 -102769.84,-131.89 -8288.23,-62.47 -16763.87,-770.51 -24816.09,-2672.5 -25079.87,-5893.39 -35672.69,-19602.97 -34499.57,-43301.47 1103.71,-22615.61 15077.07,-39053.23 39261.48,-39365.6 82965.56,-1082.88 165945,-992.64 248910.56,-104.12 22726.68,236.01 37074.89,16069.72 39171.24,37310.9 2214.36,22351.83 -9627.95,42343.53 -33215.38,43863.74zm-317527.91 -166548.92c-12335.16,-14480.1 -11918.66,-28495.12 1478.55,-42169.99 14556.46,-14868.83 28918.55,-13862.3 43475.01,6.94 7524.65,7156.75 15285.32,14063.61 25544.95,23469.42 -10585.88,8801.9 -17839.82,15271.44 -25538.01,21150.94 -19214.25,14667.52 -30994.08,13924.78 -44960.5,-2457.31zm-24566.19 -29904.25c-7663.49,49625.23 -17020.71,98986.69 -26114.16,148382.85 -8489.53,46182.22 -15486.63,52006.19 -61307.88,52325.5 -35860.11,249.9 -71720.23,222.13 -107587.28,69.42 -8121.63,-41.65 -16236.32,-1159.24 -27523.3,-2019.99 3512.43,-14320.44 5712.91,-26030.86 9273.93,-37310.9 30487.34,-96584.91 60745.62,-193260.05 92100.66,-289574.24 14695.29,-45120.16 41337.01,-81535.6 85617.24,-102297.81 30778.89,-14445.39 38088.36,-11120.38 42878.03,21220.36 10356.81,70095.9 3380.54,139837.78 -7337.23,209204.82zm375503.85 -78543.78c-659.45,22254.65 -18978.23,26974.91 -38088.36,26988.8 -41892.33,34.71 -83791.61,13.88 -125690.88,13.88l0 111.07c-39608.56,0 -79217.12,-104.12 -118839.56,20.82 -37942.58,111.07 -49014.38,-11064.85 -48021.73,-49264.27 867.7,-33416.68 513.68,-66951.37 3491.61,-100173.69 1311.96,-14730 6629.19,-31098.2 15542.16,-42489.31 6816.61,-8704.72 44439.89,5129.81 54421.85,19172.6 17187.31,24170.52 33340.33,49111.56 49139.32,74233.07 35277.02,56136.42 58739.51,56448.79 93162.72,90.24 14278.79,-23365.3 27731.54,-47272.04 41052.4,-71213.49 9530.77,-17138.72 21713.21,-29723.77 43065.46,-27530.24 22490.66,2304.6 28571.47,20005.58 29348.93,37699.63 1908.93,44071.98 2714.15,88275.86 1416.08,132340.9zm-392774.45 -497453.22c27891.2,-12765.53 35436.68,-37470.56 43093.22,-63612.48 13855.36,-47376.17 40316.6,-85207.68 87213.8,-105504.81 7309.47,-3165.35 15424.15,-4470.37 29765.42,-8482.59l0 137970.5c3318.07,277.66 6656.96,534.5 9975.03,791.34 1797.86,-6920.74 5053.46,-13841.48 5171.46,-20796.92 562.27,-32000.6 159.66,-64015.09 242.95,-96008.76 97.18,-28182.75 9579.36,-38345.19 37727.39,-40858.04 49764.06,-4456.48 63473.65,9627.95 60787.27,59232.36 -1395.25,25718.49 -236.01,51610.52 957.94,77370.66 326.25,7288.64 4859.09,14389.86 11328.63,21213.42 17360.85,-44092.81 3574.9,-90899.77 13806.77,-137665.08 31632.7,6865.21 56545.97,23358.36 73691.63,47285.93 16083.6,22462.9 27717.66,48653.41 38074.47,74503.79 8093.86,20193.01 15306.15,38602.03 35179.84,51235.68 8850.49,5636.55 17805.11,20061.12 17298.37,30001.43 -2304.6,44432.94 -3241.71,88657.64 -37713.51,125496.52 -25746.26,27509.41 -43711.02,62182.52 -65708.83,93273.78 -72456.03,102401.94 -205275.9,99194.93 -274434.69,-5796.21 -18797.75,-28557.59 -40316.6,-55338.14 -60703.97,-82833.67 -30056.97,-40531.79 -36977.71,-87553.93 -37123.48,-136068.52 -20.82,-7115.1 5469.95,-18061.95 11370.28,-20748.33zm526954.86 377843.15c24142.76,42891.92 42718.38,88914.48 63362.59,133756.98 1374.43,2984.87 173.54,7163.69 173.54,12862.72 -53158.49,-41.65 -98722.91,18193.84 -141760.6,57212.36l0 -244204.18c34353.79,-270.72 62786.44,12925.19 78224.47,40372.13zm-251714.95 -704422.86c-392080.3,0 -709941.4,317840.28 -709941.4,709934.46 0,392101.12 317861.11,709941.4 709941.4,709941.4 392094.18,0 709955.29,-317840.28 709955.29,-709941.4 0,-392094.18 -317861.11,-709934.46 -709955.29,-709934.46z"/>
 </g>
</svg>
