<?xml version="1.0" encoding="UTF-8"?>
<!DOCTYPE svg PUBLIC "-//W3C//DTD SVG 1.1//EN" "http://www.w3.org/Graphics/SVG/1.1/DTD/svg11.dtd">
<!-- Creator: CorelDRAW 2021 (64-Bit) -->
<svg xmlns="http://www.w3.org/2000/svg" xml:space="preserve" width="20.4549mm" height="20.4549mm" version="1.1" style="shape-rendering:geometricPrecision; text-rendering:geometricPrecision; image-rendering:optimizeQuality; fill-rule:evenodd; clip-rule:evenodd"
viewBox="0 0 853.46 853.46"
 xmlns:xlink="http://www.w3.org/1999/xlink"
 xmlns:xodm="http://www.corel.com/coreldraw/odm/2003">
 <defs>
  <style type="text/css">
   <![CDATA[
    .fil0 {fill:#FEFEFE;fill-rule:nonzero}
   ]]>
  </style>
 </defs>
 <g id="Capa_x0020_1">
  <metadata id="CorelCorpID_0Corel-Layer"/>
  <path class="fil0" d="M274.5 254.93c-18.02,18.8 -40.38,18.58 -59.03,0.69 -20.72,-19.87 -18.36,-42.54 -2.32,-59.26 7.16,-7.46 14.51,-11.81 20.42,-14.37l-12.61 -20.32c-5.51,1.88 -15.68,8.05 -26.15,18.96 -27.03,28.2 -31.08,67.82 0.71,98.3 26.54,25.44 62.47,28.08 93.35,-4.12 10.86,-11.34 17.14,-22.03 18.92,-27.75l-19.49 -12.6c-2.32,5.74 -7.7,14.11 -13.79,20.47z"/>
  <path class="fil0" d="M578.55 219.92c12.08,-10.66 26.6,-24.3 39.5,-36.04l0.27 0.27c-9.78,14.05 -19.71,30.14 -27.46,43.79l-25.71 45.02 16.07 16.16 46.77 -24.38c14.23,-7.13 31.05,-16.3 45.55,-25.06l0.41 0.4c-13.31,13.23 -26.2,26.87 -36.79,38.22l-33.67 36.2 20.12 20.23 86.5 -96.04 -26.87 -27.02 -40.13 20.47c-13.15,7.14 -28.34,16.03 -41.49,23.99l-0.4 -0.41c8.7,-12.7 17.27,-26.9 25.02,-40.28l21.63 -39.34 -27.41 -27.56 -97.3 85.18 19.04 19.14 36.38 -32.94z"/>
  <path class="fil0" d="M229.9 605.75l-84 20.31 22.36 23.92 31.56 -11.66c9.33,-3.48 16.87,-6.34 24.71,-9.73l0.27 0.28c-3.93,8.13 -7.14,14.8 -11.25,24.14l-13.64 30.83 22.74 24.34 27.83 -81.83 38.62 -36.07 -19.87 -21.27 -39.31 36.73z"/>
  <path class="fil0" d="M590.78 556.4l29.96 29.62 1.86 17.45 -61.83 -16.71 -23.96 24.23 84.32 20.11 9.06 68.99 25.18 -25.46 -9.9 -50.98c-1.26,-5.27 -2.37,-10.68 -3.89,-16.23l0.4 -0.4 40.58 40.12 20.32 -20.57 -91.78 -90.74 -20.32 20.57z"/>
  <path class="fil0" d="M752.54 651.01l-98.97 98.97c-8.19,8.19 -21.59,8.19 -29.78,0l-134.34 -134.34c-8.19,-8.19 -8.19,-21.59 0,-29.78l35.06 -35.06 -68.76 -71.83c0,0 -40.86,-9.71 -54.71,3.79 -11.19,10.92 -54.25,53.75 -70.36,69.78l33.33 33.32c8.19,8.19 8.19,21.59 0,29.78l-134.34 134.34c-8.19,8.19 -21.6,8.19 -29.78,0l-98.97 -98.97c-8.19,-8.19 -8.19,-21.59 0,-29.77l134.34 -134.35c8.19,-8.19 21.59,-8.19 29.78,0l40.7 40.7 66.05 -59.57c0,0 19.13,-30.58 9.13,-58.33 -8.29,-23.03 -59.9,-67.31 -77.25,-81.73l-38.63 38.62c-8.19,8.19 -21.59,8.19 -29.78,0l-134.34 -134.34c-8.19,-8.19 -8.19,-21.59 0,-29.77l98.97 -98.97c8.18,-8.19 21.58,-8.19 29.78,0l134.34 134.34c8.19,8.19 8.19,21.59 0,29.78l-37.07 37.07 61.22 62.75c0,0 18.47,14.95 42.48,14.73 24.01,-0.23 11.04,8.59 49.73,-24.89 28.17,-24.38 43.61,-41.37 49.95,-48.8l-40.86 -40.86c-8.19,-8.19 -8.19,-21.6 0,-29.78l134.34 -134.34c8.19,-8.19 21.59,-8.19 29.78,0l98.97 98.97c8.19,8.19 8.19,21.59 0,29.77l-134.34 134.34c-8.19,8.19 -21.59,8.19 -29.78,0l-35.49 -35.49 -73.98 75.07c0,0 -14.5,37.82 3.85,57.12 15.28,16.06 52.62,52.67 64.72,64.51l40.89 -40.91c8.19,-8.19 21.6,-8.19 29.78,0l134.34 134.35c8.19,8.19 8.19,21.58 0,29.77zm-325.81 -651.01c-235.67,0 -426.73,191.05 -426.73,426.73 0,235.68 191.06,426.73 426.73,426.73 235.67,0 426.73,-191.05 426.73,-426.73 0,-235.67 -191.06,-426.73 -426.73,-426.73z"/>
  <path class="fil0" d="M429.54 420.3c-0.35,0 -0.69,0.02 -1.03,0.05 -0.36,-0.01 -0.71,-0.05 -1.07,-0.05 -6.01,0.2 -7.68,4.34 -7.59,9.51 0,0.06 -0.01,0.12 -0.01,0.17 0,0.16 0.02,0.32 0.03,0.48l0 0c0.02,0.36 0.05,0.72 0.12,1.08 0,0.13 0.03,0.25 0.05,0.36 0.03,0.1 0.05,0.2 0.07,0.28 0.08,0.36 0.18,0.7 0.3,1.01 1.32,3.78 4.91,6.49 9.14,6.49 2.19,0 4.21,-0.74 5.84,-1.98 2.56,-1.3 4.09,-3.39 3.8,-6.84 0.03,-0.29 0.05,-0.58 0.05,-0.88 0,-5.35 -4.34,-9.68 -9.68,-9.68z"/>
  
 </g>
</svg>
