<?xml version="1.0" encoding="UTF-8"?>
<!DOCTYPE svg PUBLIC "-//W3C//DTD SVG 1.1//EN" "http://www.w3.org/Graphics/SVG/1.1/DTD/svg11.dtd">
<!-- Creator: CorelDRAW 2021 (64-Bit) -->
<svg xmlns="http://www.w3.org/2000/svg" xml:space="preserve" width="20.4548mm" height="20.4548mm" version="1.1" style="shape-rendering:geometricPrecision; text-rendering:geometricPrecision; image-rendering:optimizeQuality; fill-rule:evenodd; clip-rule:evenodd"
viewBox="0 0 539.38 539.38"
 xmlns:xlink="http://www.w3.org/1999/xlink"
 xmlns:xodm="http://www.corel.com/coreldraw/odm/2003">
 <defs>
  <style type="text/css">
   <![CDATA[
    .fil1 {fill:#FEFEFE;fill-rule:nonzero}
   ]]>
  </style>
 </defs>
 <g id="Capa_x0020_1">
  <metadata id="CorelCorpID_0Corel-Layer"/>
  <g id="_2380108951536">
   <path class="fil1" d="M382.06 114.8c-1.92,-0.14 -3.85,-0.13 -5.77,-0.13 -21.04,0.03 -42.08,0.08 -63.13,0.09 -19.25,0.01 -38.49,-0.05 -57.74,-0.04 -19.25,0 -38.5,0.03 -57.74,0.06 -13.47,0.02 -26.94,0.02 -40.42,0.11 -4.41,0.03 -6.96,2.17 -7.55,6.56 -0.37,2.76 -0.07,5.6 -0.07,8.69l240.19 0c0,-2.68 0.11,-5.12 -0.03,-7.53 -0.28,-4.8 -2.94,-7.44 -7.76,-7.81z"/>
   <path class="fil1" d="M360.54 208.75c-0.28,3.2 -2.8,5.6 -6.2,5.65 -7.44,0.12 -14.88,0.07 -22.32,0.07 -20.78,0.01 -41.56,0 -62.34,0 -26.55,0 -53.11,0 -79.66,0 -1.41,0 -2.83,0.01 -4.23,-0.05 -4.34,-0.18 -7.09,-2.7 -7.07,-6.44 0.01,-3.72 2.78,-6.51 6.99,-6.66 4.35,-0.15 8.72,-0.05 13.08,-0.05 50.68,0.01 101.37,0.01 152.04,0.06 1.76,0 3.59,0.2 5.27,0.7 3.25,0.96 4.74,3.36 4.45,6.72zm13.13 -7.59c-3.76,-6.3 -8.99,-11.71 -13.4,-17.65 -1.48,-2 -3.16,-2.56 -5.52,-2.54 -12.45,0.13 -24.9,0.17 -37.35,0.16 -42.1,-0.03 -84.19,0.04 -126.29,-0.26 -6.72,-0.05 -11.55,1.46 -16.22,6.75 -8.94,10.14 -14.57,21.37 -14.77,34.89 -0.26,16.94 -0.02,33.88 -0.03,50.83 -0.03,28.37 -0.07,56.73 -0.12,85.09 -0,3.54 0,7.07 0,10.72l219.33 0c0,-16.15 0,-31.93 0,-47.71 -0.02,-30.67 -0.13,-61.35 0,-92.02 0.04,-9.87 -0.52,-19.69 -5.64,-28.26z"/>
   <path class="fil1" d="M439.44 246.59c-2.89,0.62 -3.39,1.68 -3.39,4.25 0.05,44.3 0.33,88.61 -0.21,132.9 -0.12,10.1 3.28,18.84 5.93,28.05 0.8,2.8 1.75,5.75 1.62,8.58 -0.25,4.97 -4.68,9.11 -9.47,9.73 -5.59,0.74 -10.36,-1.65 -12.36,-6.97 -2.75,-7.28 -5,-14.75 -7.43,-22.15 -6.12,-18.56 -12.26,-37.12 -18.33,-55.7 -2.51,-7.69 0.87,-14.6 8.06,-15.77 2.86,-0.46 5.95,0.51 9.08,0.85l0 -82.51 -20.28 0 0 134.31 -245.88 0 0 -134.43 -27.29 0 0 89c11.19,1.86 14.6,7.63 11.06,18.29 -8.13,24.47 -16.18,48.96 -24.27,73.45 -2.15,6.52 -5.7,9.49 -11.39,9.55 -7.93,0.09 -13.28,-6.53 -10.96,-14.15 3.68,-12.1 7.76,-24.08 11.64,-36.11 0.38,-1.18 0.68,-2.46 0.68,-3.69 0.04,-45.33 0.03,-90.66 0.03,-135.99 0,-0.64 -0.06,-1.28 -0.11,-2.19 -7.7,-3.02 -14.27,-7.6 -18.68,-14.93 -3.25,-5.4 -5.11,-11.18 -5.14,-17.46 -0.09,-15.4 -0.12,-30.81 -0.01,-46.22 0.08,-12.15 3.91,-22.62 14.11,-30.09 6.22,-4.56 13.27,-6.57 20.83,-6.71 9.49,-0.18 18.99,-0.04 29.08,-0.04 0,-2.4 -0.02,-4.65 0,-6.89 0.13,-13.55 8.23,-21.79 21.83,-21.9 14.37,-0.12 28.75,-0.03 43.12,-0.07 19.25,-0.04 38.51,-0.17 57.76,-0.16 27.98,0.01 55.96,0.13 83.94,0.16 12.19,0.01 24.39,-0.21 36.58,-0.13 11.83,0.08 19.18,4.83 22.09,14.22 0.79,2.52 1.02,5.24 1.27,7.9 0.2,2.13 0.04,4.3 0.04,6.87 9.41,0 18.49,-0.04 27.57,0.01 14.71,0.08 26.26,5.99 32.65,19.49 2.38,5.03 3.47,11.05 3.64,16.67 0.48,15.65 0.3,31.33 0.13,46.99 -0.17,16.06 -11.39,29.58 -27.5,33.03zm-169.75 -246.59c-148.94,0 -269.69,120.74 -269.69,269.69 0,148.94 120.74,269.69 269.69,269.69 148.94,0 269.69,-120.74 269.69,-269.69 0,-148.95 -120.74,-269.69 -269.69,-269.69z"/>
  </g>
 </g>
</svg>
