<?xml version="1.0" encoding="UTF-8"?>
<!DOCTYPE svg PUBLIC "-//W3C//DTD SVG 1.1//EN" "http://www.w3.org/Graphics/SVG/1.1/DTD/svg11.dtd">
<!-- Creator: CorelDRAW 2021 (64-Bit) -->
<svg xmlns="http://www.w3.org/2000/svg" xml:space="preserve" width="20.4549mm" height="20.4549mm" version="1.1" style="shape-rendering:geometricPrecision; text-rendering:geometricPrecision; image-rendering:optimizeQuality; fill-rule:evenodd; clip-rule:evenodd"
viewBox="0 0 972586.72 972586.72"
 xmlns:xlink="http://www.w3.org/1999/xlink"
 xmlns:xodm="http://www.corel.com/coreldraw/odm/2003">
 <defs>
  <style type="text/css">
   <![CDATA[
    .fil0 {fill:#FEFEFE;fill-rule:nonzero}
   ]]>
  </style>
 </defs>
 <g id="Capa_x0020_1">
  <metadata id="CorelCorpID_0Corel-Layer"/>
  <path class="fil0" d="M510378.73 558810.98c14150.24,0 25428.6,11026.35 25575.99,24991.16 147.4,14107.45 -11221.29,25571.24 -25381.05,25614.03 -13979.07,38.04 -25200.37,-11168.99 -25266.93,-25219.38 -66.57,-14050.39 11135.71,-25385.8 25071.99,-25385.8zm-71378.85 47547.86c4127.15,-2477.24 7745.55,-2781.55 12134.21,-432.69 21291.93,11354.43 42745.53,22409.31 64070.74,33716.19 2624.64,1397.91 4250.78,1302.81 6476.02,-727.48 11544.62,-10531.85 23317.47,-20821.21 34852.58,-31367.32 4046.32,-3694.47 7992.8,-4255.53 12890.22,-1844.86 12110.44,5981.52 24334.99,11720.55 36535.78,17540.41 4574.1,2182.45 9181.49,4293.57 13983.83,6533.08l0 -90540.63 -263762.24 0 0 116439.95c1279.04,-713.22 2172.94,-1183.94 3043.06,-1702.21 26603.03,-15852.46 53225.07,-31676.38 79775.8,-47614.43z"/>
  <path class="fil0" d="M748317.73 651186.96c19.02,-40900.67 161.66,-81796.58 -114.11,-122682.99 -38.04,-5192.23 -1298.06,-10850.42 -3632.66,-15462.56 -8420.73,-16646.51 -23003.65,-24235.14 -41114.63,-24292.2 -74255.49,-237.74 -148506.23,-104.61 -222761.72,-104.61 -69819.28,0 -139648.06,-9.51 -209467.34,28.53 -3532.81,9.51 -7103.65,228.23 -10588.91,794.05 -20759.4,3385.41 -36706.95,20317.2 -36569.06,40035.3 294.8,40363.38 104.61,80736.27 128.38,121099.64 0,1141.15 152.15,2272.79 242.49,3551.83l31424.38 0 0 -4284.06c9.51,-38998.75 9.51,-78007.02 14.26,-117005.77 0,-8344.65 2714.98,-11050.12 11102.43,-11045.37 85581.39,52.3 171158.03,147.4 256734.67,156.91 62059.47,4.75 124114.18,-104.61 186183.16,-156.91 7365.16,-4.75 10522.34,3128.65 10550.87,10517.59 33.28,6666.21 4.75,13337.17 4.75,20003.38 9.51,32346.81 9.51,64688.86 9.51,97045.18l0 4702.48 27668.1 0c71.32,-1117.37 185.44,-2011.27 185.44,-2900.42z"/>
  <polygon class="fil0" points="682211.94,654035.08 702947.56,654035.08 702947.56,539230.77 682211.94,539230.77 "/>
  <path class="fil0" d="M356062.15 731514.32c0,1141.15 128.38,2287.05 209.21,3665.94l263614.84 0c204.46,-779.78 380.38,-1150.66 380.38,-1516.78 14.26,-27340.02 47.55,-54675.28 -90.34,-82015.3 0,-1174.43 -1183.94,-2905.17 -2277.54,-3432.96 -16622.73,-8083.14 -33335.8,-15961.82 -49982.31,-23997.4 -1992.26,-969.98 -3214.24,-741.75 -4778.56,765.52 -3413.94,3271.29 -7070.37,6285.83 -10588.91,9438.25 -5720.01,5125.66 -11421,10289.36 -17354.97,15648 6699.49,3504.28 12980.57,6785.08 19242.62,10075.39 12657.24,6651.95 25323.99,13270.61 37943.19,19989.12 5087.62,2705.47 6856.4,7712.26 4550.33,12124.7 -2367.88,4531.31 -7232.03,5800.84 -12543.13,3190.46 -2943.21,-1445.45 -5805.59,-3052.57 -8706.01,-4574.1 -42403.18,-22247.64 -84820.63,-44466.76 -127181.02,-66785.72 -2134.9,-1122.13 -3646.92,-1069.83 -5700.99,147.4 -27829.76,16632.24 -55711.83,33183.65 -83598.65,49716.04 -2201.47,1298.06 -3257.03,2710.23 -3228.5,5506.04 161.66,17350.21 80.83,34705.18 90.34,52055.4z"/>
  <polygon class="fil0" points="664357.72,169974.09 308038.81,169974.09 308038.81,339135.11 664357.72,339135.11 "/>
  <path class="fil0" d="M637512.2 542368.93c-9.51,35594.33 0,71188.66 0,106773.47 0,30378.33 -9.51,60751.9 -9.51,91125.47 0,9832.9 -2439.21,12272.1 -12343.42,12262.59 -54813.17,-42.79 -109631.1,-123.62 -164439.52,-128.38 -37182.43,-9.51 -74355.34,109.36 -111537.77,123.62 -7436.49,0 -10451.02,-3152.42 -10451.02,-10598.42 -9.51,-23930.84 -9.51,-47856.92 -9.51,-71783 0,-42065.59 0,-84135.94 9.51,-126201.53l0 -4517.05 -30549.5 0 0 263215.44 356138.23 0 0 -263258.24 -26612.54 0c-76.08,1174.43 -194.95,2082.6 -194.95,2986.01z"/>
  <path class="fil0" d="M192526.04 722114.1c33.28,7317.62 4531.31,12053.38 11135.71,12067.65 6594.89,9.51 11183.26,-5087.62 11183.26,-12471.8 14.26,-15215.32 4.75,-30440.14 4.75,-45660.21l0 -4246.02 -22342.74 0c0,17031.64 -61.81,33673.39 19.02,50310.39z"/>
  <polygon class="fil0" points="273333.63,654096.89 290322.48,654096.89 290322.48,539283.07 273333.63,539283.07 "/>
  <path class="fil0" d="M510549.9 592070.71c4398.18,9.51 8007.06,-3556.58 8045.1,-7954.76 42.79,-4431.46 -3480.5,-7950 -7978.53,-7978.53 -4531.31,-19.02 -8002.3,3404.43 -7992.8,7921.47 9.51,4526.56 3442.47,8007.06 7926.23,8011.81z"/>
  <path class="fil0" d="M740286.9 421996.77c-13807.9,-33.28 -25304.97,-11216.54 -25471.39,-24753.42 -175.93,-14825.42 10893.21,-26227.4 25457.12,-26251.17 14264.36,-14.26 25338.25,11064.39 25419.09,25442.86 71.32,14131.22 -11321.15,25609.28 -25404.82,25561.73zm-61607.76 -52.3c-13902.99,-71.32 -25162.33,-11406.73 -25190.86,-25371.54 -28.53,-14307.15 11116.69,-25556.97 25328.74,-25580.75 14207.3,-28.53 25604.52,11207.03 25713.88,25338.25 109.36,14140.73 -11544.62,25690.11 -25851.77,25614.03zm134997.88 -59995.89l0 -5287.32c-1825.84,0 -3119.14,0 -4421.95,0 -50481.56,-114.11 -100967.88,-285.29 -151449.44,-337.59 -21139.78,-23.77 -42279.56,309.06 -63419.34,318.57 -94506.13,33.28 -189002.74,14.26 -283504.11,14.26 -30112.06,0 -60228.87,-304.31 -90340.93,161.66 -11349.67,171.17 -22822.97,1359.87 -33977.7,3451.97 -11430.51,2149.16 -19356.73,9414.48 -23127.28,20802.19 -4041.57,12177.01 -4493.27,24800.96 -4521.8,37396.39 -133.13,66248.43 -66.57,132496.87 -76.08,198740.54 0,11183.26 0,22357 23.77,33535.51 0,1122.13 152.15,2249.01 242.49,3461.48l47809.37 0 0 -4683.46c0,-40235 47.55,-80470 -23.77,-120709.75 -23.77,-10983.56 2938.46,-21044.68 9162.47,-29983.68 13004.34,-18714.84 31424.38,-27411.34 53847.95,-27458.89 79528.55,-137.89 159052.35,-52.3 238576.14,-52.3 64432.1,0 128864.21,-99.85 193291.56,142.64 7251.05,23.77 14749.35,1103.11 21686.58,3161.93 24658.32,7284.33 42678.96,29536.73 42293.82,56115.98 -556.31,39307.82 -142.64,78629.9 -142.64,117947.22l0 5886.43c8144.95,-874.88 15871.48,-1269.53 23422.08,-2615.13 13484.57,-2391.66 19955.84,-8867.68 22323.72,-22404.55 1288.55,-7346.14 2082.6,-14868.22 2153.92,-22314.21 266.27,-28124.56 161.66,-56258.63 161.66,-84378.43 14.26,-53638.74 9.51,-107282.24 9.51,-160911.47z"/>
  <path class="fil0" d="M827156.84 636066.74c-3585.11,18681.55 -15914.27,28861.55 -34177.4,32427.64 -2191.96,423.18 -4393.42,784.54 -7032.33,1260.02 -95.1,1435.95 -271.02,2957.48 -271.02,4479.01 -28.53,16308.92 47.55,32613.08 -52.3,48917.24 -85.59,15690.79 -12390.97,27977.16 -27896.33,28319.51 -15357.96,323.33 -28842.53,-11406.73 -29118.31,-28699.89 -237.74,-15248.6 -57.06,-30506.71 -61.81,-45755.31l0 -5044.83 -46625.43 0 0 4512.29c0,44186.23 0,88367.7 0,132549.17 0,8249.55 -2824.34,11045.37 -11154.73,11045.37 -46283.09,4.75 -92570.93,0 -138863.52,4.75 -76747,0 -153489.25,0 -230236.25,0 -8354.16,0 -11069.14,-2705.47 -11069.14,-11130.95 -4.75,-44048.34 -4.75,-88101.43 -4.75,-132149.77l0 -4897.43 -58417.3 0 0 4027.3c0,15514.87 14.26,31029.73 -9.51,46544.6 -28.53,14953.8 -10764.84,27382.81 -24896.06,28866.31 -15029.88,1583.34 -27962.9,-7422.22 -31372.08,-22109.75 -708.46,-3019.29 -679.93,-6257.3 -694.2,-9395.46 -57.06,-14464.06 -19.02,-28932.87 -14.26,-43387.42l0 -4792.82 -22299.95 0c-8344.65,0 -11382.96,-3019.29 -11382.96,-11335.41 0,-73737.22 -95.1,-147488.71 52.3,-221235.44 28.53,-14682.78 318.57,-29427.37 1711.72,-44029.32 841.6,-8734.54 3128.65,-17630.75 6414.21,-25785.2 6376.17,-15771.63 19665.79,-23712.12 35746.48,-26379.55 12386.22,-2054.07 25024.44,-3076.35 37581.83,-3399.67 20764.15,-542.05 41552.07,-147.4 62330.49,-147.4l5249.28 0 0 -5235.02c0,-56543.92 0,-113083.08 4.75,-169631.75 0,-9500.06 2453.47,-11986.82 11801.38,-11972.55 44571.36,66.57 89152.24,166.42 133728.36,185.44 32204.17,4.75 64417.84,-142.64 96626.76,-161.66 46130.93,-38.04 92271.38,-23.77 138411.82,-23.77 7835.89,0 10755.33,2890.91 10755.33,10674.49 4.75,57066.94 4.75,114138.64 4.75,171210.33l0 4954.49 5125.66 0c44190.98,0 88367.7,0 132558.68,-14.26 8682.24,0 11401.98,2634.15 11401.98,11221.29 0,64018.44 0,128032.12 -14.26,192055.32 0,20483.62 347.1,40981.5 -228.23,61455.61 -299.55,10703.02 -1602.36,21482.12 -3613.64,32004.46zm-340861.1 -636066.74c-268574.09,0 -486295.74,217721.65 -486295.74,486290.98 0,268574.09 217721.65,486295.74 486295.74,486295.74 268564.58,0 486286.23,-217721.65 486286.23,-486295.74 0,-268569.33 -217721.65,-486290.98 -486286.23,-486290.98z"/>
  <path class="fil0" d="M740496.11 388323.37c-4602.63,-85.59 -8344.65,3480.5 -8401.71,8007.06 -52.3,4602.63 3518.54,8225.78 8144.95,8249.55 4564.59,14.26 8240.04,-3651.68 8197.25,-8197.25 -47.55,-4440.97 -3528.05,-7973.78 -7940.49,-8059.36z"/>
  <path class="fil0" d="M746082.98 671865.53c-76.08,1340.85 -199.7,2496.26 -199.7,3642.17 -4.75,15234.33 -14.26,30478.18 9.51,45712.51 14.26,7788.34 4512.29,12956.79 11188.01,12933.02 6941.99,-23.77 11259.33,-4868.9 11273.6,-12771.36 23.77,-15243.84 14.26,-30478.18 0,-45712.51 0,-1264.77 -123.62,-2529.55 -190.19,-3803.83l-22081.23 0z"/>
  <path class="fil0" d="M679178.39 388332.88c-4697.73,-95.1 -8320.88,3371.14 -8368.42,7992.8 -42.79,4588.37 3642.17,8377.93 8111.66,8339.89 4507.54,-38.04 8382.69,-3898.92 8311.37,-8278.08 -76.08,-4355.38 -3684.96,-7964.27 -8054.61,-8054.61z"/>
 </g>
</svg>
