<?xml version="1.0" encoding="UTF-8"?>
<!DOCTYPE svg PUBLIC "-//W3C//DTD SVG 1.1//EN" "http://www.w3.org/Graphics/SVG/1.1/DTD/svg11.dtd">
<!-- Creator: CorelDRAW 2021 (64-Bit) -->
<svg xmlns="http://www.w3.org/2000/svg" xml:space="preserve" width="20.4549mm" height="20.4549mm" version="1.1" style="shape-rendering:geometricPrecision; text-rendering:geometricPrecision; image-rendering:optimizeQuality; fill-rule:evenodd; clip-rule:evenodd"
viewBox="0 0 1125554.09 1125554.09"
 xmlns:xlink="http://www.w3.org/1999/xlink"
 xmlns:xodm="http://www.corel.com/coreldraw/odm/2003">
 <defs>
  <style type="text/css">
   <![CDATA[
    .fil0 {fill:#FEFEFE;fill-rule:nonzero}
   ]]>
  </style>
 </defs>
 <g id="Capa_x0020_1">
  <metadata id="CorelCorpID_0Corel-Layer"/>
  <path class="fil0" d="M563258.52 297058.59c24316.05,-165.08 43151.49,-19336.18 43057.95,-43850.33 -93.54,-23996.9 -19886.45,-43822.81 -43635.72,-43696.25 -23936.37,121.06 -43630.22,19836.92 -43729.27,43762.29 -82.54,24343.56 19743.38,43943.87 44307.04,43784.3z"/>
  <path class="fil0" d="M534303.77 321369.14l0 563021.91 57458.29 0 0 -562911.86c-19231.63,7175.41 -38270.68,7676.15 -57458.29,-110.05z"/>
  <polygon class="fil0" points="328401.48,972641.96 796657.38,972641.96 796657.38,915376.26 328401.48,915376.26 "/>
  <path class="fil0" d="M592158.25 185856.27c0,-7571.6 264.13,-13580.45 -60.53,-19567.29 -517.25,-9370.95 -5854.78,-15060.65 -15077.16,-15489.86 -9436.98,-451.21 -18917.99,-374.18 -28360.47,-22.01 -7676.15,286.14 -13514.42,4308.55 -14592.93,12034.22 -995.97,7158.9 -214.6,14559.92 -214.6,22824.84 19699.36,-7615.62 38424.75,-7615.62 58305.69,220.1z"/>
  <path class="fil0" d="M244624.19 238939.99c-2564.22,0 -5183.46,115.55 -7687.15,616.29 -8088.84,1661.79 -12606.49,8358.47 -11351.89,16485.83 1194.07,7725.67 6927.79,11715.06 17267.2,11715.06 80277.63,27.51 160544.25,16.51 240816.38,-5.5 2206.55,0 4396.59,-352.17 6052.87,-495.24l0 -27980.79c-2322.1,-126.56 -4589.18,-346.66 -6850.75,-346.66 -79413.72,-27.51 -158832.94,-27.51 -238246.66,11.01z"/>
  <path class="fil0" d="M327691.64 563698.73c-1364.65,10410.94 2712.79,16749.96 12023.21,22467.17 11693.05,7191.92 17195.67,19391.21 17316.72,34044.67l-28811.68 0c-2289.09,-7753.18 -6118.91,-14152.72 -15660.44,-13707.01 -7648.63,357.67 -12182.79,4523.15 -13448.39,11979.19 -1260.1,7379 2916.39,13998.65 9970.74,15792.5 3312.57,852.91 6801.23,995.97 10196.34,1535.23 18521.8,2899.88 30913.68,13475.9 36108.15,31232.83 5210.97,17795.45 682.32,34011.65 -13800.55,45627.67 -8407.99,6746.2 -18257.67,11230.83 -12430.4,25466.1l-29543.53 0c-594.28,-830.89 -1227.08,-1309.62 -1177.56,-1705.81 1199.57,-10163.33 -2107.5,-16639.9 -11720.57,-22307.6 -12078.24,-7109.38 -17245.19,-19831.42 -17982.54,-35013.13 9123.33,0 17393.76,-264.13 25631.17,198.09 1766.34,99.05 4071.93,2454.17 4974.36,4330.56 4066.43,8352.97 9948.73,11775.59 17701.91,9409.47 7263.45,-2223.06 10697.08,-7340.49 10245.87,-14890.07 -478.73,-7841.22 -5898.8,-12435.91 -15181.71,-13112.73 -22065.48,-1601.26 -37703.91,-14890.07 -42419.65,-36020.11 -4093.94,-18345.71 5299.02,-37280.21 23017.43,-47685.65 2520.2,-1480.2 4325.05,-5183.46 5183.46,-8226.41 874.92,-3141.99 198.09,-6724.19 198.09,-10647.56l28723.64 0c264.13,346.66 935.44,841.9 885.92,1232.59zm44725.24 72100.74l28520.05 0 0 28646.61 -28520.05 0 0 -28646.61zm-118168.62 28767.66l-29560.04 0c0,-8584.08 -159.58,-17069.11 170.58,-25543.13 44.02,-1320.63 2250.57,-3593.21 3538.18,-3642.73 8457.52,-324.65 16931.54,-170.58 25851.28,-170.58l0 29356.44zm-43949.37 -14202.25c269.63,55923.06 46524.6,102211.05 102431.15,102497.18 56451.31,286.14 102629.24,-45875.29 102700.78,-102667.76 60.53,-57007.08 -45484.6,-102574.22 -102453.16,-102497.18 -56770.46,71.53 -102953.9,46254.97 -102678.77,102667.76z"/>
  <path class="fil0" d="M899891.91 576459.29l-28261.42 0 0 -29224.38 28261.42 0 0 29224.38zm-87959.28 -29736.12c25466.1,2822.84 40180.08,15484.35 44180.48,38045.07 2921.89,16480.33 -4710.24,34886.57 -19891.95,43278.06 -7307.47,4038.92 -9756.13,8540.06 -8666.62,16122.66 231.11,1601.26 -291.64,3301.57 -511.74,5414.57l-28294.44 0c-456.72,-632.8 -1122.53,-1144.54 -1062,-1535.23 1524.22,-10432.96 -2597.23,-16656.41 -11962.68,-22274.58 -11869.14,-7131.39 -16595.88,-19776.39 -17701.91,-34116.2l29312.42 0c2234.06,6867.26 5337.54,13536.43 14493.88,13778.54 7885.25,192.59 14048.17,-4935.84 14736,-12474.42 759.36,-8341.96 -4148.97,-14097.7 -12199.29,-15869.54 -8540.06,-1870.89 -17800.95,-3108.98 -25146.94,-7368 -26120.91,-15165.2 -28085.34,-52615.99 -4484.63,-71473.45 11742.58,-9381.96 11742.58,-9381.96 13343.84,-23798.8l28371.48 0c401.69,726.34 946.45,1232.59 891.42,1694.8 -1111.53,9899.2 2129.51,16254.72 11527.98,21696.8 11984.69,6944.3 16970.06,19539.78 17911.01,34132.71l-26874.76 0c-4963.36,-5023.89 -8253.92,-10482.48 -13052.2,-12722.04 -7874.24,-3675.75 -16843.5,2162.53 -18246.67,10322.9 -1601.26,9271.9 3686.75,16073.13 13327.33,17146.14zm-58674.37 29730.62l-28421 0 0 -29213.38 28421 0 0 29213.38zm59224.63 -117189.16c-56561.36,22.01 -103135.48,46772.21 -102706.28,103052.95 429.2,56374.28 46458.57,102211.05 102673.27,102249.56 56610.89,38.52 102882.36,-46480.58 102519.19,-103047.44 -374.18,-56500.84 -46254.97,-102282.58 -102486.18,-102255.07z"/>
  <path class="fil0" d="M900387.14 253488.9c33.02,-9266.4 -6795.73,-14422.35 -19325.18,-14576.42 -572.27,-11.01 -1139.04,0 -1716.82,0 -78208.65,0 -156417.29,-11.01 -234625.94,16.51 -3004.43,0 -6014.36,253.12 -8738.15,385.18l0 28459.52 7846.73 0c79072.56,0 158139.61,11.01 237212.16,-5.5 12837.6,0 19303.17,-4809.28 19347.19,-14279.28z"/>
  <path class="fil0" d="M944369.53 572701.01c-7340.49,72502.44 -64138.46,122581.72 -135677.94,121635.27 -65690.2,-863.91 -121926.91,-53199.27 -128122.85,-120606.28 -6047.37,-65778.24 38226.66,-131793.1 116220.7,-143629.22l0 -131628.02 -174807.03 0 0 586457.54 10108.3 0c52781.07,0 105567.64,-11.01 158348.71,0 26962.81,5.5 37175.66,10350.42 37186.66,37643.38 0,15495.36 77.04,30979.71 -16.51,46469.57 -137.57,21872.89 -11770.09,33499.91 -33422.87,33505.41l-462978.89 0c-21196.07,-5.5 -33059.7,-11748.08 -33120.23,-32828.59 -49.52,-17492.81 -66.03,-34996.62 11.01,-52494.93 82.54,-20348.66 11979.19,-32201.29 32905.63,-32256.32 53920.11,-121.06 107851.22,-38.52 161776.84,-38.52l10581.53 0 0 -586402.51 -174520.89 0 0 219746.87c43960.38,6993.82 78599.33,28883.22 100466.72,68815.68 16040.12,29312.42 20244.12,60583.77 12788.07,93175.75 -14736,64474.12 -77377.75,108880.21 -143056.95,101655.28 -64617.19,-7103.87 -116011.6,-62674.77 -118377.72,-125151.44 -2575.22,-68072.83 46161.42,-129124.33 116831.49,-138258.67l0 -220588.77c-17443.28,0 -34572.92,209.1 -51691.55,-115.55 -6520.6,-115.55 -13294.31,-566.77 -19479.25,-2432.16 -20535.75,-6168.43 -33527.42,-26698.68 -30506.49,-47019.83 3439.13,-23171.51 20942.95,-39101.57 43910.86,-39145.59 84333.05,-132.06 168666.11,-60.53 252999.16,-66.03l11208.82 0c0,-10702.58 682.32,-20728.35 -137.57,-30627.55 -2041.47,-24508.64 5568.64,-43751.28 28233.91,-55515.87l60248.12 0c21008.98,9838.67 30820.14,26104.4 29378.45,49496.01 -720.84,11698.56 -126.56,23490.66 -126.56,36647.41l10135.81 0c84624.69,5.5 169243.88,-66.03 253863.07,88.04 17459.79,33.02 30996.22,7918.26 39228.13,23424.63 8017.31,15104.67 7384.51,30434.96 -1870.89,44879.32 -9134.34,14235.26 -22901.88,20238.61 -39448.24,20359.67 -15198.22,104.55 -30407.44,27.51 -45611.16,27.51l-9651.58 0 0 132035.21c82038.46,12909.13 122323.1,82302.59 116193.19,142743.3zm-381595.24 -572701.01c-310815.12,0 -562774.29,251964.67 -562774.29,562779.79 0,310804.12 251959.17,562774.29 562774.29,562774.29 310809.62,0 562774.29,-251970.17 562774.29,-562774.29 0,-310815.12 -251964.67,-562779.79 -562774.29,-562779.79z"/>
 </g>
</svg>
