<?xml version="1.0" encoding="UTF-8"?>
<!DOCTYPE svg PUBLIC "-//W3C//DTD SVG 1.1//EN" "http://www.w3.org/Graphics/SVG/1.1/DTD/svg11.dtd">
<!-- Creator: CorelDRAW 2021 (64-Bit) -->
<svg xmlns="http://www.w3.org/2000/svg" xml:space="preserve" width="20.4549mm" height="20.4549mm" version="1.1" style="shape-rendering:geometricPrecision; text-rendering:geometricPrecision; image-rendering:optimizeQuality; fill-rule:evenodd; clip-rule:evenodd"
viewBox="0 0 798.49 798.49"
 xmlns:xlink="http://www.w3.org/1999/xlink"
 xmlns:xodm="http://www.corel.com/coreldraw/odm/2003">
 <defs>
  <style type="text/css">
   <![CDATA[
    .fil1 {fill:#FEFEFE;fill-rule:nonzero}
   ]]>
  </style>
 </defs>
 <g id="Capa_x0020_1">
  <metadata id="CorelCorpID_0Corel-Layer"/>
  <path class="fil1" d="M522.2 457.51c-16.78,-0.28 -33.63,18.02 -33.72,36.62 -0.09,18.78 14.72,34.77 32,34.58 17.91,-0.19 33,-17.06 32.77,-36.65 -0.21,-18.57 -14.32,-34.27 -31.06,-34.55z"/>
  <path class="fil1" d="M726.32 601.11c-8.31,0 -16.62,0.04 -24.93,-0.01 -16.41,-0.11 -32.82,0.09 -49.22,-0.5 -14.29,-0.52 -18.53,-6.41 -15.38,-20.3 1.3,-5.7 3.24,-11.25 5.43,-18.7 29.46,12.64 56.98,24.45 84.5,36.26 -0.14,1.08 -0.27,2.16 -0.4,3.25zm-127.32 -19.72c31.96,-42.57 46.28,-88.34 29.27,-140.36 31.36,52.03 6.11,101.13 -7.04,153.05 -8.17,-4.66 -14.54,-8.31 -22.23,-12.69zm-30.02 6.48c-52.96,36.35 -118.72,6.96 -140.9,-38.6 -21.04,-43.22 -13.97,-99.81 17.97,-134.87 26.79,-29.4 59.79,-43.2 99.41,-33.09 39.47,10.08 61.96,38.01 72.56,76.1 2.66,9.55 2.86,19.79 3.63,25.47 -0.96,46.66 -17.31,80.72 -52.67,104.98zm-123.23 12.69c-67.55,-0.06 -135.1,-0.11 -202.65,-0.29 -24.65,-0.06 -47.45,-5.27 -68.59,-19.55 -31.81,-21.5 -64.87,-41.13 -97.38,-61.6 -3.08,-1.94 -5.96,-4.2 -11.71,-8.27 6,-0.46 8.51,-0.82 11.01,-0.82 63.44,0.02 126.88,0.01 190.33,0.28 5.42,0.02 11.36,0.89 16.16,3.21 55.72,26.88 111.27,54.12 166.85,81.3 1.93,0.94 3.67,2.27 7.73,4.82 -5.57,0.45 -8.67,0.92 -11.75,0.92zm-127.29 -311.89c9.13,0.84 18.57,2.69 27.02,6.15 54.39,22.31 108.55,45.18 162.77,67.92 0.91,0.39 1.57,1.39 2.42,2.18 -107.19,43.99 -126.27,117.44 -85.42,202.45 -2.63,-0.63 -4.68,-0.75 -6.4,-1.59 -46.16,-22.54 -92.57,-44.62 -138.34,-67.94 -35.55,-18.11 -58.53,-46.65 -64.98,-86.89 -9.93,-61.96 45.96,-127.55 102.94,-122.29zm82.86 -68.04c13.87,-20.98 40.5,-32.26 66.99,-23.17 62.65,21.49 124.52,45.24 186.7,68.09 0.52,1.13 1.05,2.26 1.58,3.38 -50.72,27.75 -74.49,66.28 -49.24,125.44 -5.54,-2.01 -8.51,-2.9 -11.31,-4.15 -53.45,-23.77 -107.12,-47.07 -160.14,-71.75 -12.09,-5.63 -23.91,-14.42 -32.43,-24.62 -16.95,-20.27 -16.67,-51.25 -2.15,-73.22zm331.74 121.95c-0.13,37.89 -20.81,65.28 -54.87,72.67 -27.84,6.04 -53.94,-7.66 -65.26,-34.26 -14.6,-34.28 1.07,-78.24 34.32,-95.07 38.36,-19.41 86.73,2.05 85.82,56.66zm-333.81 -342.58c-220.49,0 -399.24,178.75 -399.24,399.24 0,220.49 178.75,399.24 399.24,399.24 220.5,0 399.24,-178.75 399.24,-399.24 0,-220.5 -178.75,-399.24 -399.24,-399.24z"/>
  <path class="fil1" d="M663.48 367.89c7.84,6.19 16.75,4.72 23.76,-2.99 8.1,-8.92 7.51,-18.21 -1.28,-28.76 -6.51,-7.8 -13.58,-10.12 -22.14,-3.6 -6.47,4.93 -12.76,10.1 -20.98,16.63 7.52,6.89 13.72,13.26 20.64,18.72z"/>
 </g>
</svg>
