<?xml version="1.0" encoding="UTF-8"?>
<!DOCTYPE svg PUBLIC "-//W3C//DTD SVG 1.1//EN" "http://www.w3.org/Graphics/SVG/1.1/DTD/svg11.dtd">
<!-- Creator: CorelDRAW 2021 (64-Bit) -->
<svg xmlns="http://www.w3.org/2000/svg" xml:space="preserve" width="20.4549mm" height="20.4549mm" version="1.1" style="shape-rendering:geometricPrecision; text-rendering:geometricPrecision; image-rendering:optimizeQuality; fill-rule:evenodd; clip-rule:evenodd"
viewBox="0 0 1156687.45 1156687.45"
 xmlns:xlink="http://www.w3.org/1999/xlink"
 xmlns:xodm="http://www.corel.com/coreldraw/odm/2003">
 <defs>
  <style type="text/css">
   <![CDATA[
    .fil0 {fill:#FEFEFE;fill-rule:nonzero}
   ]]>
  </style>
 </defs>
 <g id="Capa_x0020_1">
  <metadata id="CorelCorpID_0Corel-Layer"/>
  <path class="fil0" d="M654607.43 880183.8c-40154.87,254.47 -80298.42,135.72 -120458.94,135.72 -29099.7,0 -58199.39,-84.82 -87304.74,124.41 -2821.75,16.96 -7175.96,989.59 -8171.21,2895.27 -3930.1,7520.91 -6797.09,15590.33 -10286.11,24021.67l245153.34 0c-3223.25,-7170.31 -6695.31,-13311.44 -8725.38,-19893.65 -1730.37,-5637.85 -4399.45,-7317.34 -10206.95,-7283.41z"/>
  <path class="fil0" d="M440623.45 724161.7c45.24,-56073.18 0,-112140.7 141.37,-168213.88 16.96,-5490.83 -2793.48,-5999.76 -7113.76,-5971.49 -18055.84,124.41 -36128.63,395.84 -54178.82,-84.82 -9596.23,-265.78 -15426.34,3432.47 -19859.72,11909.05 -27731.23,52991.3 -55801.75,105796 -83736.55,158685.51 -1210.13,2273.24 -2177.11,4670.88 -3641.7,7826.27l167563.58 0c327.98,-1589 825.6,-2878.3 825.6,-4150.64z"/>
  <path class="fil0" d="M385115.75 879556.11l-26311.87 0 0 -26108.3c32503.9,-802.98 27063.96,-6112.86 26311.87,26108.3zm-13509.36 -54229.71c-23569.28,158.33 -41037.02,18118.04 -40776.9,41902.2 254.47,23162.14 18151.97,40709.04 41359.34,40539.39 23478.81,-158.33 41274.52,-18400.78 40923.92,-41930.48 -339.29,-23150.83 -18293.34,-40658.14 -41506.37,-40511.12z"/>
  <path class="fil0" d="M783820.04 590617.51l-53455 0 0 -26594.61 53455 0 0 26594.61zm41681.67 -53997.86l-136518.63 0 0 81706.47 136518.63 0 0 -81706.47z"/>
  <path class="fil0" d="M565142.55 674495.43l53613.33 0 0 26362.76 -53613.33 0 0 -26362.76zm-41393.27 53788.63l136807.02 0 0 -81169.26 -136807.02 0 0 81169.26z"/>
  <path class="fil0" d="M619016.01 590600.55l-54376.73 0c0,-7933.71 -254.47,-15154.91 192.26,-22342.19 90.48,-1617.28 2567.29,-4393.79 3980.99,-4416.41 16585.58,-305.36 33182.47,-203.57 50203.48,-203.57l0 26962.17zm41534.64 -53935.66l-136394.22 0 0 81497.24 136394.22 0 0 -81497.24z"/>
  <path class="fil0" d="M784125.4 481140.23c-17207.61,0 -34013.73,73.51 -50802.89,-152.68 -1170.55,-16.96 -2431.57,-2182.76 -3409.86,-3517.3 -395.84,-542.86 -96.13,-1577.69 -147.03,-2369.37 -1266.68,-21465.69 -1266.68,-21465.69 20363,-21465.69l33996.77 0 0 27505.04zm41970.06 19718.35c33.93,-19113.29 79.17,-38226.57 0,-57334.2 -50.89,-12655.48 -4942.31,-17462.08 -17631.72,-17473.39 -37146.5,-22.62 -74293,-16.96 -111445.16,11.31 -2606.87,0 -5225.05,226.19 -7882.82,350.6l0 81943.97 136501.66 0c186.61,-2799.14 458.04,-5151.54 458.04,-7498.29z"/>
  <path class="fil0" d="M730268.91 674467.16l53839.53 0 0 26334.49 -53839.53 0 0 -26334.49zm-41093.57 53839.53l136484.7 0 0 -81321.94 -136484.7 0 0 81321.94z"/>
  <path class="fil0" d="M633339.66 259827.6c-11.31,-1724.72 -508.93,-4297.66 -1685.14,-5027.13 -12587.63,-7905.44 -25356.21,-15516.82 -39006.94,-23761.55l0 98382.53 40759.93 0c0,-23902.92 33.93,-46754.04 -67.86,-69593.85z"/>
  <path class="fil0" d="M495774.9 245984.6c-39.58,-5275.95 1605.97,-8193.83 6135.48,-10851.6 23478.81,-13746.86 46844.52,-27714.27 70017.96,-41958.75 4880.11,-2997.05 8403.06,-2719.97 13119.18,169.64 23207.37,14199.25 46691.84,27946.11 69876.59,42201.91 2691.69,1656.86 5779.22,5445.59 5813.15,8267.34 378.87,36643.22 226.19,73292.1 192.26,109935.32 0,780.36 -294.05,1549.42 -622.03,3189.32l-163916.22 0c-180.95,-2793.48 -469.35,-5134.58 -469.35,-7481.32 -28.27,-34488.74 96.13,-68983.13 -147.03,-103471.87zm-329732.46 688672.06l0 -26509.79 149626.5 0c-3873.55,-9302.18 -7153.35,-17693.93 -10964.69,-25831.21 -593.76,-1255.37 -3658.67,-1843.47 -5598.27,-1905.67 -7543.53,-226.19 -15098.37,33.93 -22647.55,-141.37 -25062.16,-593.76 -41732.56,-16823.08 -42043.57,-41743.87 -378.87,-29388.09 -559.83,-58798.8 226.19,-88169.93 209.23,-7673.59 3194.97,-15839.15 6836.68,-22754.99 31271.15,-59386.9 63294.38,-118377.97 94378.92,-177855.35 10054.27,-19232.04 24445.78,-28262.78 46052.84,-27408.9 17224.58,684.23 34505.7,-16.96 51758.55,220.54 5151.54,73.51 7006.32,-1458.94 7147.69,-6847.99 610.72,-23207.37 774.71,-23196.07 27069.62,-19893.65l0 232249.05 28019.63 0 0 -9681.05c0,-90872.93 554.17,-181757.17 -350.6,-272618.8 -271.43,-27001.76 17891.85,-47975.48 47540.06,-47630.54 88164.27,1012.21 176356.82,356.25 264526.75,361.91 29405.06,0 45979.33,16636.48 45984.98,46199.87 16.96,91138.71 11.31,182288.73 11.31,273433.09l0 9873.31c2533.36,571.14 4569.09,1091.38 6638.76,1475.91 20396.93,3754.8 33815.81,18225.48 34381.3,39001.28 655.96,23987.74 701.2,48015.06 11.31,71985.84 -667.27,23190.41 -17247.2,39052.18 -40663.8,39702.48 -16709.99,475 -33442.6,305.36 -50152.58,50.89 -4931,-79.17 -6881.91,1651.21 -8340.86,6339.05 -2131.87,6847.99 -5553.03,13294.48 -8685.8,20498.72l135003.13 0c158.33,-2703 452.39,-5547.38 452.39,-8386.1 28.27,-184177.44 0,-368354.87 147.03,-552532.31 0,-5824.46 -1668.17,-9138.19 -6847.99,-12112.62 -110353.78,-63345.28 -220611.43,-126860.2 -330795.57,-190488.21 -4546.47,-2629.49 -7871.51,-2838.72 -12497.15,-163.99 -110653.49,63905.1 -221369.18,127708.42 -332203.62,191291.2 -5309.87,3042.29 -5835.77,6774.47 -5835.77,11875.12 79.17,100582.26 62.2,201170.17 62.2,301746.77 0,11886.43 -5.65,11886.43 -11603.69,11886.43 -15923.97,5.65 -15923.97,5.65 -15923.97,-15584.68 0,-104093.9 79.17,-208182.14 -175.3,-312270.38 -16.96,-7634 2001.81,-11920.36 8878.06,-15878.73 118242.25,-68004.85 236292.24,-136337.67 354370.51,-204625.26 2510.74,-1447.63 4823.56,-3257.18 7215.55,-4902.73l3234.56 0c2318.48,1707.76 4501.24,3636.05 6978.05,5072.37 118304.46,68423.3 236608.91,136863.57 355049.08,205066.34 5717.02,3296.76 7520.91,6944.12 7509.6,13345.37 -163.99,188757.84 -130.06,377526.99 -130.06,566290.48l0 11009.93 40952.19 0 0 26962.17 -824602.59 0zm412292.81 -934656.66c-319401.11,0 -578335.24,258934.14 -578335.24,578346.55 0,319401.11 258934.14,578340.9 578335.24,578340.9 319412.42,0 578352.21,-258939.79 578352.21,-578340.9 0,-319412.42 -258939.79,-578346.55 -578352.21,-578346.55z"/>
  <path class="fil0" d="M564701.48 459029.89c-882.15,-4241.11 1803.89,-5485.17 5756.61,-5439.94 11541.48,141.37 23094.28,45.24 34647.07,45.24l13899.54 0 0 27510.69c-17145.41,0 -34313.44,2064.01 -50593.66,-842.57 -8606.63,-1538.11 -2171.45,-13944.78 -3709.56,-21273.43zm-41280.17 49129.06l137174.59 0 0 -82051.42c-42184.95,0 -83352.02,-130.06 -124513.45,113.1 -7650.97,39.58 -12355.78,5750.95 -12576.32,14069.19 -260.12,9692.36 -79.17,19384.72 -84.82,29077.08 0,12842.09 0,25689.84 0,38792.05z"/>
  <path class="fil0" d="M556937.41 330037.82c6118.51,254.47 7831.92,-1877.4 7769.72,-7843.23 -260.12,-27736.88 -101.79,-55473.77 -135.72,-83210.65 0,-2075.32 -333.63,-4139.33 -650.3,-7871.51 -13543.29,8159.9 -26142.23,15669.5 -38622.41,23399.64 -1057.45,655.96 -1764.3,2708.66 -1764.3,4128.02 -118.75,23382.67 -79.17,46776.66 -79.17,71278.99 12022.14,0 22771.95,-316.67 33482.18,118.75z"/>
  <path class="fil0" d="M803464.87 852837.09c15646.88,-180.95 31282.46,5.65 46923.68,-101.79 12644.17,-79.17 16902.25,-4325.94 16987.07,-17145.41 130.06,-19684.42 50.89,-39380.16 33.93,-59058.92 -16.96,-16828.74 -3494.68,-20272.52 -20526.99,-20272.52 -191732.27,-11.31 -383464.55,-11.31 -575196.82,-11.31l-9901.59 0c0,4399.45 0,7351.26 0,10286.11 45.24,24547.57 -124.41,49083.82 243.16,73620.08 113.1,7747.1 5106.3,12067.38 13215.31,12463.22 7537.87,367.56 15109.67,-141.37 22647.55,243.16 4976.24,254.47 6785.78,-1713.41 8273,-6418.22 9409.62,-29704.76 34731.89,-48416.56 65267.91,-48767.15 29552.08,-339.29 55592.52,18253.75 65409.28,47455.24 1984.84,5914.94 4603.02,7803.65 10772.43,7781.03 68762.59,-226.19 137530.84,-135.72 206293.43,-135.72l7882.82 0c610.72,-1752.99 978.28,-2736.93 1294.95,-3743.49 10167.36,-31915.8 34466.12,-50870.75 65850.36,-51351.41 30383.34,-463.7 55767.82,18231.13 66427.15,49462.7 1549.42,4535.16 3749.14,5733.99 8103.35,5694.4z"/>
  <path class="fil0" d="M743263.68 875173.63c-220.54,1837.82 -2736.93,4738.74 -4365.52,4863.14 -7142.04,531.55 -14351.93,226.19 -22873.74,226.19 0,-8391.75 -299.71,-15590.33 214.88,-22726.72 124.41,-1679.48 2974.43,-3200.63 4653.92,-4687.84 305.36,-271.43 1051.8,-45.24 1583.35,-67.86 21850.22,-910.43 23337.44,593.76 20787.11,22393.08zm-13843 -49841.57c-23173.45,135.72 -40810.82,17863.57 -40856.06,41070.95 -62.2,23207.37 17496.01,41093.57 40601.6,41359.34 23416.6,282.74 41670.36,-17676.96 41743.87,-41104.88 79.17,-23450.53 -17999.29,-41466.78 -41489.4,-41325.41z"/>
 </g>
</svg>
