<?xml version="1.0" encoding="UTF-8"?>
<!DOCTYPE svg PUBLIC "-//W3C//DTD SVG 1.1//EN" "http://www.w3.org/Graphics/SVG/1.1/DTD/svg11.dtd">
<!-- Creator: CorelDRAW 2021 (64-Bit) -->
<svg xmlns="http://www.w3.org/2000/svg" xml:space="preserve" width="20.4551mm" height="20.4551mm" version="1.1" style="shape-rendering:geometricPrecision; text-rendering:geometricPrecision; image-rendering:optimizeQuality; fill-rule:evenodd; clip-rule:evenodd"
viewBox="0 0 1099838.36 1099838.36"
 xmlns:xlink="http://www.w3.org/1999/xlink"
 xmlns:xodm="http://www.corel.com/coreldraw/odm/2003">
 <defs>
  <style type="text/css">
   <![CDATA[
    .fil0 {fill:#FEFEFE;fill-rule:nonzero}
   ]]>
  </style>
 </defs>
 <g id="Capa_x0020_1">
  <metadata id="CorelCorpID_0Corel-Layer"/>
  <path class="fil0" d="M305168.03 863569.18l86050.98 0 0 -319056.41 -123344.75 0c12474.27,106719.56 24867.89,212772.38 37293.77,319056.41z"/>
  <path class="fil0" d="M534216.11 257534.59l112424.38 0c0,-17265.04 1075.37,-34099.93 -263.47,-50730.5 -1887.27,-23491.42 -20636.32,-42864.18 -43729.85,-47579.67 -24260.31,-4952.07 -48504.49,5850 -60478.72,26642.25 -13119.49,22765.55 -6005.93,47353.85 -7952.35,71667.92z"/>
  <path class="fil0" d="M234838.94 553777.06c-12044.13,103133.2 -24082.87,206277.16 -36180.77,309754.48l73824.04 0c-12097.89,-103509.58 -24152.77,-206610.52 -36207.65,-309716.84 -483.92,-5.38 -951.7,-21.51 -1435.62,-37.64z"/>
  <path class="fil0" d="M757123.84 565417.93l0 -274342.6 -77120.04 0 0 9344.95c32.26,26126.07 225.83,52268.28 26.88,78399.73 -91.41,11350.51 -7043.66,18878.09 -16313.34,18765.18 -9420.23,-107.54 -15856.31,-7758.78 -15883.19,-19114.67 -43.01,-26378.79 -16.13,-52773.7 -16.13,-79152.49l0 -8317.97 -113209.4 0c-134.42,2801.33 -360.25,5247.8 -360.25,7699.64 -10.75,26384.16 107.54,52773.7 0,79147.11 -59.15,11818.3 -6769.44,19700.75 -16254.19,19722.26 -9689.07,16.13 -16173.54,-7748.03 -16221.93,-19636.23 -59.15,-15065.91 -16.13,-30153.33 -16.13,-45224.62l0 -41525.35 -76840.45 0 0 572262.65 213966.04 0 0 -10070.82c0,-88459.8 -10.75,-176914.22 0,-265357.89 0,-16786.5 5774.73,-22582.74 22550.47,-22588.11 29099.47,-16.13 58215.07,-10.75 87319.91,-10.75l8371.74 0z"/>
  <path class="fil0" d="M333772.83 511074.19c1946.42,0 3898.21,-215.07 6678.04,-397.89 0,-9129.88 37.64,-17404.84 -37.64,-25663.67 -16.13,-1736.72 -414.02,-3478.82 -752.76,-5199.41 -2709.93,-13598.03 -13544.26,-22394.55 -27163.8,-22120.33 -12990.45,268.84 -24249.56,9570.78 -25695.93,22889.22 -1059.24,9839.62 -204.32,19872.81 -204.32,30508.2 16189.67,0 31685.73,16.13 47176.41,-16.13z"/>
  <path class="fil0" d="M935495.19 884904.49l0 12060.26 -15071.29 0 -741030.96 0 -15055.16 0 0 -12060.26 0 -13581.9c467.79,-1414.11 1177.53,-2795.96 1344.21,-4236.95 3097.06,-26152.96 6156.48,-52316.67 9183.65,-78485.76 4693.98,-40864 9296.56,-81760.26 14065.82,-122613.5 5280.06,-45100.95 10796.7,-90175.01 16033.74,-135281.34 1629.18,-14087.33 7145.82,-19517.94 21265.41,-19598.59 8957.82,-59.15 17926.39,-16.13 27599.33,-16.13 0,-7656.62 -516.18,-14436.82 112.91,-21109.48 865.67,-8914.8 1473.25,-18119.96 4193.94,-26545.47 7930.84,-24609.8 36325.94,-41589.87 61817.55,-37960.5 29266.15,4172.43 50988.59,26679.89 52128.48,54472.78 430.15,10189.12 75.28,20421.25 75.28,30637.24l19636.23 0 0 -6414.57c0,-74646.69 10.75,-149288.01 -21.51,-223940.08 -10.75,-16404.74 5742.47,-22335.4 21889.12,-22308.52 26604.61,43.01 53225.36,32.26 79819.22,16.13 2629.28,0 5263.93,-231.2 8291.09,-371 0,-15157.32 -107.54,-29459.72 16.13,-43762.12 333.36,-39492.9 26443.31,-73877.81 64532.85,-84798.17 6452.21,-1855.01 13151.75,-2855.1 19749.14,-4253.08l10533.23 0c1661.44,473.16 3306.76,1166.77 4995.09,1371.09 36578.65,4607.95 66602.94,29583.38 74770.36,65570.59 3763.79,16614.44 2709.93,34341.89 3704.64,51558.54 274.22,4661.72 48.39,9328.82 48.39,14700.29l10113.84 0c26330.39,0 52671.54,-80.65 79012.69,43.01 14641.14,59.15 20528.78,6005.93 20813.75,20448.13 21.51,1252.8 5.38,2510.99 5.38,3774.54 -43.01,80614.99 -75.28,161246.11 -107.54,241871.85 -10.75,13506.63 0,27018.63 0,41326.41l8936.31 0c38132.56,-26.88 76259.75,59.15 114386.93,-134.42 9796.61,-48.39 17722.07,2527.12 22211.73,11941.97l0 307679.02zm-385578.7 -884904.49c-303705.53,0 -549916.49,246216.34 -549916.49,549916.49 0,303705.53 246210.96,549921.87 549916.49,549921.87 303700.15,0 549916.49,-246216.34 549916.49,-549921.87 0,-303700.15 -246216.34,-549916.49 -549916.49,-549916.49z"/>
  <path class="fil0" d="M714404.83 651995.83c102.16,-7371.65 2279.78,-13904.51 9597.66,-17361.82 5742.47,-2715.31 12130.16,-2736.81 16055.25,1919.53 3559.47,4215.44 6393.06,10307.41 6742.56,15748.77 903.31,14759.43 155.93,29626.4 349.49,44428.84 284.97,21098.73 15689.62,38008.89 36358.2,40234.91 19598.59,2113.1 38508.94,-11162.32 42831.92,-31137.29 1613.05,-7479.19 978.59,-15479.93 1080.75,-23227.96 129.04,-10302.03 -209.7,-20604.06 16.13,-30889.96 150.55,-7366.27 2451.84,-13861.5 9801.98,-17238.15 5780.1,-2650.78 11990.36,-2494.85 16049.87,2118.48 3355.15,3817.56 5871.51,9328.82 6522.11,14372.3 1059.24,8145.92 279.6,16539.17 279.6,24824.88 618.34,86.03 1236.67,177.44 1844.26,258.09 -2070.08,14786.31 -2656.16,29965.14 -6511.36,44267.54 -7441.55,27524.05 -33400.94,46353.75 -64581.25,49133.58 -25319.55,2242.14 -54300.72,-14012.05 -66705.1,-37100.21 -6554.37,-12205.43 -9780.48,-25120.6 -9791.23,-38922.96 0,-13807.73 -112.91,-27620.84 59.15,-41428.57zm-42434.04 211481.94l230903.09 0 0 -264863.23 -230903.09 0 0 264863.23z"/>
 </g>
</svg>
