<?xml version="1.0" encoding="UTF-8"?>
<!DOCTYPE svg PUBLIC "-//W3C//DTD SVG 1.1//EN" "http://www.w3.org/Graphics/SVG/1.1/DTD/svg11.dtd">
<!-- Creator: CorelDRAW 2021 (64-Bit) -->
<svg xmlns="http://www.w3.org/2000/svg" xml:space="preserve" width="20.4549mm" height="20.4549mm" version="1.1" style="shape-rendering:geometricPrecision; text-rendering:geometricPrecision; image-rendering:optimizeQuality; fill-rule:evenodd; clip-rule:evenodd"
viewBox="0 0 1038188.32 1038188.32"
 xmlns:xlink="http://www.w3.org/1999/xlink"
 xmlns:xodm="http://www.corel.com/coreldraw/odm/2003">
 <defs>
  <style type="text/css">
   <![CDATA[
    .fil0 {fill:#FEFEFE;fill-rule:nonzero}
   ]]>
  </style>
 </defs>
 <g id="Capa_x0020_1">
  <metadata id="CorelCorpID_0Corel-Layer"/>
  <path class="fil0" d="M817338.11 596092.02l-269615.6 28600.44 119619.37 235188.49c6796.09,13384.09 1476.97,29737.35 -11896.97,36553.75 -3948.74,1999.75 -8161.4,2959.02 -12308.09,2959.02 -9897.22,0 -19439.16,-5440.94 -24235.51,-14866.14l-118644.87 -233264.87 -182890.54 199121.99c-28717.18,14612.36 -62733.17,-6258.09 -62733.17,-38477.36l15.23 -641558.34c0,-25753.08 29239.95,-40619.22 50044.42,-25448.55l518502.86 377820.17c26032.24,18982.37 22860.05,58774.28 -5857.13,73371.42zm-298251.57 -596092.02c-286679.43,0 -519086.55,232407.12 -519086.55,519091.62 0,286689.58 232407.12,519096.7 519086.55,519096.7 286689.58,0 519101.77,-232407.12 519101.77,-519096.7 0,-286684.51 -232412.19,-519091.62 -519101.77,-519091.62z"/>
 </g>
</svg>
