<?xml version="1.0" encoding="UTF-8"?>
<!DOCTYPE svg PUBLIC "-//W3C//DTD SVG 1.1//EN" "http://www.w3.org/Graphics/SVG/1.1/DTD/svg11.dtd">
<!-- Creator: CorelDRAW 2021 (64-Bit) -->
<svg xmlns="http://www.w3.org/2000/svg" xml:space="preserve" width="20.4549mm" height="20.4549mm" version="1.1" style="shape-rendering:geometricPrecision; text-rendering:geometricPrecision; image-rendering:optimizeQuality; fill-rule:evenodd; clip-rule:evenodd"
viewBox="0 0 781.05 781.05"
 xmlns:xlink="http://www.w3.org/1999/xlink"
 xmlns:xodm="http://www.corel.com/coreldraw/odm/2003">
 <defs>
  <style type="text/css">
   <![CDATA[
    .fil1 {fill:#FEFEFE;fill-rule:nonzero}
   ]]>
  </style>
 </defs>
 <g id="Capa_x0020_1">
  <metadata id="CorelCorpID_0Corel-Layer"/>
  <path class="fil1" d="M395.24 421.74l-230.1 0 0 -180.55 230.1 0 0 180.55zm40.1 -205.06c-0.08,-6.33 -5.02,-11.42 -10.83,-11.44 -13.09,-0.05 -26.18,-0.12 -39.26,-0.12 -31.09,-0.01 -62.19,-0.02 -93.29,0 -13.73,0.01 -27.47,0.15 -41.2,0.18 -12.43,0.03 -24.87,-0.01 -37.31,-0.02 -11.14,-0.01 -22.28,-0.02 -33.43,-0.01 -12.95,0.01 -25.91,-0.05 -38.86,0.11 -5.83,0.08 -9,3.5 -9.02,9.38 -0.07,21.26 -0.09,42.53 -0.09,63.79 -0,42.91 0.02,85.82 0.02,128.73 0,33.71 -0.05,67.41 -0.01,101.12 0.01,6.71 4.93,11.41 11.62,11.41 4.54,0 9.07,0 13.6,0 10.6,0.01 21.2,0.01 31.71,0.01 7.43,-36.17 34.98,-53.87 61.16,-56.03 14.78,-1.21 28.64,2.08 41.16,9.98 16.98,10.71 26.98,26.34 30.75,45.73l113.31 0 0 -4.15c0.03,-49.26 0.07,-98.51 0.09,-147.77 0.02,-38.63 0.01,-77.26 0,-115.88 -0,-11.67 0.01,-23.34 -0.12,-35.01z"/>
  <path class="fil1" d="M552.21 396.19c19.96,-0.1 39.92,-0.03 59.87,-0.03l35.11 0c-0.99,-11.51 -5.32,-21.31 -11.7,-30.05 -13.59,-18.61 -27.37,-37.09 -41.55,-55.26 -5.6,-7.19 -12.15,-13.72 -18.82,-19.96 -11.12,-10.39 -25.1,-6.12 -38.51,-7.01l0 4.19 0 92.92c0,10.3 5.23,15.25 15.61,15.2z"/>
  <path class="fil1" d="M255.4 486.2c-25.41,0.44 -44.74,19.83 -44.64,45.4 0.1,25.01 20.16,44.4 45.8,44.24 24.38,-0.15 43.9,-20.24 43.75,-45.02 0.7,-24.14 -20.2,-45.05 -44.91,-44.62z"/>
  <path class="fil1" d="M558.81 486.25c-24.92,0.02 -44.6,19.66 -44.65,44.58 -0.06,24.96 19.56,44.91 44.27,45 25.59,0.09 45.29,-19.29 45.36,-44.62 0.07,-25.45 -19.46,-44.97 -44.97,-44.96z"/>
  <path class="fil1" d="M642.57 418.7c-31.64,0 -63.27,0.05 -94.91,-0.02 -17.69,-0.05 -33.68,-15.93 -33.65,-33.14 0.04,-26.71 0.05,-53.41 0.07,-80.13 0,-7.09 0,-14.18 0,-21.55 -2.55,0 -4.6,-0.01 -6.66,0 -11.79,0.03 -23.59,0.17 -35.39,0.06 -8.45,-0.08 -14.06,5.06 -14.06,13.4 -0.01,63.41 -0.01,126.81 0,190.21l0 31.57c0.65,0.35 0.87,0.57 1.09,0.57 10.5,0.06 21,0.17 31.49,0.05 0.85,-0.02 2.06,-1.47 2.47,-2.49 2.62,-6.59 4.24,-13.7 7.67,-19.8 14.24,-25.25 42.47,-38.26 71,-32.6 22.54,4.46 38.99,17.35 48.54,38.44 2.37,5.23 3.85,10.87 5.8,16.48 2.96,0 6.06,0.06 9.16,-0.01 8.27,-0.19 13.54,-5.51 13.56,-13.69 0.05,-27.87 0.08,-55.74 0.1,-83.61 0,-1.12 -0.17,-2.24 -0.29,-3.73l-6.01 0z"/>
  <path class="fil1" d="M659.71 533.51c-6.58,5.76 -14.16,8.94 -22.98,8.94l-11.18 0c-3.94,19.82 -14.17,35.44 -31.34,46.13 -12.12,7.55 -25.51,10.86 -39.68,9.79 -29.01,-2.17 -55.1,-21.82 -62.02,-55.79l-170.16 0c-8.19,40.5 -43.36,57.67 -70.55,55.87 -28.36,-1.87 -55.54,-20.8 -62.77,-56.04 -10.92,0 -21.91,0.13 -32.91,-0.05 -6.97,-0.12 -14.15,0.25 -20.86,-1.26 -13.6,-3.05 -21.81,-12.17 -25.01,-25.77 -0.14,-0.59 -0.5,-1.13 -0.75,-1.69l0 -304.2c1.81,-4.24 3.06,-8.84 5.54,-12.65 6.52,-10.04 16.25,-14.34 28.11,-14.3 20.47,0.06 40.95,-0.01 61.42,0.02 19.31,0.03 38.62,0.16 57.93,0.16 19.57,0 39.14,-0.14 58.7,-0.14 19.31,0 38.62,0.13 57.93,0.14 14.38,0 28.77,-0.02 43.15,-0.18 11.4,-0.13 21.2,3.37 28.46,12.42 4.84,6.03 7.27,13.07 7.28,20.85 0.03,14.39 0,28.79 0,43.17l0 2.91c13.71,-0.21 27.13,-0.53 40.55,-0.57 19.06,-0.06 38.12,0.52 57.17,0.01 15.75,-0.43 28.75,5.29 39.42,16.1 7.78,7.88 14.74,16.65 21.49,25.47 12.15,15.82 24.15,31.77 35.67,48.05 8.85,12.52 16.29,26.04 18.35,41.52 1.15,8.68 0.68,17.58 0.7,26.39 0.07,27.75 -0.26,55.49 0.16,83.22 0.19,12.32 -2.24,23.11 -11.82,31.49zm-269.18 -533.51c-215.68,0 -390.52,174.84 -390.52,390.53 0,215.68 174.84,390.52 390.52,390.52 215.68,0 390.52,-174.84 390.52,-390.52 0,-215.68 -174.84,-390.53 -390.52,-390.53z"/>
 </g>
</svg>
